%TF.GenerationSoftware,KiCad,Pcbnew,8.0.2*%
%TF.CreationDate,2024-05-15T00:29:23-07:00*%
%TF.ProjectId,Flying_Fader,466c7969-6e67-45f4-9661-6465722e6b69,1*%
%TF.SameCoordinates,Original*%
%TF.FileFunction,Drillmap*%
%TF.FilePolarity,Positive*%
%FSLAX45Y45*%
G04 Gerber Fmt 4.5, Leading zero omitted, Abs format (unit mm)*
G04 Created by KiCad (PCBNEW 8.0.2) date 2024-05-15 00:29:23*
%MOMM*%
%LPD*%
G01*
G04 APERTURE LIST*
%ADD10C,0.038100*%
%ADD11C,0.200000*%
%ADD12C,0.100000*%
%ADD13C,0.160000*%
G04 APERTURE END LIST*
D10*
X4000000Y-3550000D02*
X14000000Y-3550000D01*
X14000000Y-16550000D01*
X4000000Y-16550000D01*
X4000000Y-3550000D01*
D11*
D12*
X8165000Y-3705000D02*
X8255000Y-3795000D01*
X8255000Y-3705000D02*
X8165000Y-3795000D01*
X8845000Y-3705000D02*
X8935000Y-3795000D01*
X8935000Y-3705000D02*
X8845000Y-3795000D01*
D13*
X10130000Y-3900000D02*
G75*
G02*
X9970000Y-3900000I-80000J0D01*
G01*
X9970000Y-3900000D02*
G75*
G02*
X10130000Y-3900000I80000J0D01*
G01*
D11*
X4258872Y-16863389D02*
X4258872Y-16663389D01*
X4258872Y-16663389D02*
X4306491Y-16663389D01*
X4306491Y-16663389D02*
X4335062Y-16672913D01*
X4335062Y-16672913D02*
X4354110Y-16691960D01*
X4354110Y-16691960D02*
X4363634Y-16711008D01*
X4363634Y-16711008D02*
X4373158Y-16749103D01*
X4373158Y-16749103D02*
X4373158Y-16777675D01*
X4373158Y-16777675D02*
X4363634Y-16815770D01*
X4363634Y-16815770D02*
X4354110Y-16834817D01*
X4354110Y-16834817D02*
X4335062Y-16853865D01*
X4335062Y-16853865D02*
X4306491Y-16863389D01*
X4306491Y-16863389D02*
X4258872Y-16863389D01*
X4458872Y-16863389D02*
X4458872Y-16730055D01*
X4458872Y-16768151D02*
X4468396Y-16749103D01*
X4468396Y-16749103D02*
X4477919Y-16739579D01*
X4477919Y-16739579D02*
X4496967Y-16730055D01*
X4496967Y-16730055D02*
X4516015Y-16730055D01*
X4582681Y-16863389D02*
X4582681Y-16730055D01*
X4582681Y-16663389D02*
X4573158Y-16672913D01*
X4573158Y-16672913D02*
X4582681Y-16682436D01*
X4582681Y-16682436D02*
X4592205Y-16672913D01*
X4592205Y-16672913D02*
X4582681Y-16663389D01*
X4582681Y-16663389D02*
X4582681Y-16682436D01*
X4706491Y-16863389D02*
X4687443Y-16853865D01*
X4687443Y-16853865D02*
X4677919Y-16834817D01*
X4677919Y-16834817D02*
X4677919Y-16663389D01*
X4811253Y-16863389D02*
X4792205Y-16853865D01*
X4792205Y-16853865D02*
X4782681Y-16834817D01*
X4782681Y-16834817D02*
X4782681Y-16663389D01*
X5039824Y-16863389D02*
X5039824Y-16663389D01*
X5039824Y-16663389D02*
X5106491Y-16806246D01*
X5106491Y-16806246D02*
X5173158Y-16663389D01*
X5173158Y-16663389D02*
X5173158Y-16863389D01*
X5354110Y-16863389D02*
X5354110Y-16758627D01*
X5354110Y-16758627D02*
X5344586Y-16739579D01*
X5344586Y-16739579D02*
X5325539Y-16730055D01*
X5325539Y-16730055D02*
X5287443Y-16730055D01*
X5287443Y-16730055D02*
X5268396Y-16739579D01*
X5354110Y-16853865D02*
X5335062Y-16863389D01*
X5335062Y-16863389D02*
X5287443Y-16863389D01*
X5287443Y-16863389D02*
X5268396Y-16853865D01*
X5268396Y-16853865D02*
X5258872Y-16834817D01*
X5258872Y-16834817D02*
X5258872Y-16815770D01*
X5258872Y-16815770D02*
X5268396Y-16796722D01*
X5268396Y-16796722D02*
X5287443Y-16787198D01*
X5287443Y-16787198D02*
X5335062Y-16787198D01*
X5335062Y-16787198D02*
X5354110Y-16777675D01*
X5449348Y-16730055D02*
X5449348Y-16930055D01*
X5449348Y-16739579D02*
X5468396Y-16730055D01*
X5468396Y-16730055D02*
X5506491Y-16730055D01*
X5506491Y-16730055D02*
X5525539Y-16739579D01*
X5525539Y-16739579D02*
X5535062Y-16749103D01*
X5535062Y-16749103D02*
X5544586Y-16768151D01*
X5544586Y-16768151D02*
X5544586Y-16825294D01*
X5544586Y-16825294D02*
X5535062Y-16844341D01*
X5535062Y-16844341D02*
X5525539Y-16853865D01*
X5525539Y-16853865D02*
X5506491Y-16863389D01*
X5506491Y-16863389D02*
X5468396Y-16863389D01*
X5468396Y-16863389D02*
X5449348Y-16853865D01*
X5630300Y-16844341D02*
X5639824Y-16853865D01*
X5639824Y-16853865D02*
X5630300Y-16863389D01*
X5630300Y-16863389D02*
X5620777Y-16853865D01*
X5620777Y-16853865D02*
X5630300Y-16844341D01*
X5630300Y-16844341D02*
X5630300Y-16863389D01*
X5630300Y-16739579D02*
X5639824Y-16749103D01*
X5639824Y-16749103D02*
X5630300Y-16758627D01*
X5630300Y-16758627D02*
X5620777Y-16749103D01*
X5620777Y-16749103D02*
X5630300Y-16739579D01*
X5630300Y-16739579D02*
X5630300Y-16758627D01*
D12*
X3908095Y-17146905D02*
X3998095Y-17236905D01*
X3998095Y-17146905D02*
X3908095Y-17236905D01*
D11*
X4296967Y-17083389D02*
X4316015Y-17083389D01*
X4316015Y-17083389D02*
X4335062Y-17092913D01*
X4335062Y-17092913D02*
X4344586Y-17102436D01*
X4344586Y-17102436D02*
X4354110Y-17121484D01*
X4354110Y-17121484D02*
X4363634Y-17159579D01*
X4363634Y-17159579D02*
X4363634Y-17207198D01*
X4363634Y-17207198D02*
X4354110Y-17245294D01*
X4354110Y-17245294D02*
X4344586Y-17264341D01*
X4344586Y-17264341D02*
X4335062Y-17273865D01*
X4335062Y-17273865D02*
X4316015Y-17283389D01*
X4316015Y-17283389D02*
X4296967Y-17283389D01*
X4296967Y-17283389D02*
X4277919Y-17273865D01*
X4277919Y-17273865D02*
X4268396Y-17264341D01*
X4268396Y-17264341D02*
X4258872Y-17245294D01*
X4258872Y-17245294D02*
X4249348Y-17207198D01*
X4249348Y-17207198D02*
X4249348Y-17159579D01*
X4249348Y-17159579D02*
X4258872Y-17121484D01*
X4258872Y-17121484D02*
X4268396Y-17102436D01*
X4268396Y-17102436D02*
X4277919Y-17092913D01*
X4277919Y-17092913D02*
X4296967Y-17083389D01*
X4449348Y-17264341D02*
X4458872Y-17273865D01*
X4458872Y-17273865D02*
X4449348Y-17283389D01*
X4449348Y-17283389D02*
X4439824Y-17273865D01*
X4439824Y-17273865D02*
X4449348Y-17264341D01*
X4449348Y-17264341D02*
X4449348Y-17283389D01*
X4554110Y-17283389D02*
X4592205Y-17283389D01*
X4592205Y-17283389D02*
X4611253Y-17273865D01*
X4611253Y-17273865D02*
X4620777Y-17264341D01*
X4620777Y-17264341D02*
X4639824Y-17235770D01*
X4639824Y-17235770D02*
X4649348Y-17197675D01*
X4649348Y-17197675D02*
X4649348Y-17121484D01*
X4649348Y-17121484D02*
X4639824Y-17102436D01*
X4639824Y-17102436D02*
X4630300Y-17092913D01*
X4630300Y-17092913D02*
X4611253Y-17083389D01*
X4611253Y-17083389D02*
X4573158Y-17083389D01*
X4573158Y-17083389D02*
X4554110Y-17092913D01*
X4554110Y-17092913D02*
X4544586Y-17102436D01*
X4544586Y-17102436D02*
X4535062Y-17121484D01*
X4535062Y-17121484D02*
X4535062Y-17169103D01*
X4535062Y-17169103D02*
X4544586Y-17188151D01*
X4544586Y-17188151D02*
X4554110Y-17197675D01*
X4554110Y-17197675D02*
X4573158Y-17207198D01*
X4573158Y-17207198D02*
X4611253Y-17207198D01*
X4611253Y-17207198D02*
X4630300Y-17197675D01*
X4630300Y-17197675D02*
X4639824Y-17188151D01*
X4639824Y-17188151D02*
X4649348Y-17169103D01*
X4773158Y-17083389D02*
X4792205Y-17083389D01*
X4792205Y-17083389D02*
X4811253Y-17092913D01*
X4811253Y-17092913D02*
X4820777Y-17102436D01*
X4820777Y-17102436D02*
X4830300Y-17121484D01*
X4830300Y-17121484D02*
X4839824Y-17159579D01*
X4839824Y-17159579D02*
X4839824Y-17207198D01*
X4839824Y-17207198D02*
X4830300Y-17245294D01*
X4830300Y-17245294D02*
X4820777Y-17264341D01*
X4820777Y-17264341D02*
X4811253Y-17273865D01*
X4811253Y-17273865D02*
X4792205Y-17283389D01*
X4792205Y-17283389D02*
X4773158Y-17283389D01*
X4773158Y-17283389D02*
X4754110Y-17273865D01*
X4754110Y-17273865D02*
X4744586Y-17264341D01*
X4744586Y-17264341D02*
X4735062Y-17245294D01*
X4735062Y-17245294D02*
X4725539Y-17207198D01*
X4725539Y-17207198D02*
X4725539Y-17159579D01*
X4725539Y-17159579D02*
X4735062Y-17121484D01*
X4735062Y-17121484D02*
X4744586Y-17102436D01*
X4744586Y-17102436D02*
X4754110Y-17092913D01*
X4754110Y-17092913D02*
X4773158Y-17083389D01*
X4963634Y-17083389D02*
X4982681Y-17083389D01*
X4982681Y-17083389D02*
X5001729Y-17092913D01*
X5001729Y-17092913D02*
X5011253Y-17102436D01*
X5011253Y-17102436D02*
X5020777Y-17121484D01*
X5020777Y-17121484D02*
X5030300Y-17159579D01*
X5030300Y-17159579D02*
X5030300Y-17207198D01*
X5030300Y-17207198D02*
X5020777Y-17245294D01*
X5020777Y-17245294D02*
X5011253Y-17264341D01*
X5011253Y-17264341D02*
X5001729Y-17273865D01*
X5001729Y-17273865D02*
X4982681Y-17283389D01*
X4982681Y-17283389D02*
X4963634Y-17283389D01*
X4963634Y-17283389D02*
X4944586Y-17273865D01*
X4944586Y-17273865D02*
X4935062Y-17264341D01*
X4935062Y-17264341D02*
X4925539Y-17245294D01*
X4925539Y-17245294D02*
X4916015Y-17207198D01*
X4916015Y-17207198D02*
X4916015Y-17159579D01*
X4916015Y-17159579D02*
X4925539Y-17121484D01*
X4925539Y-17121484D02*
X4935062Y-17102436D01*
X4935062Y-17102436D02*
X4944586Y-17092913D01*
X4944586Y-17092913D02*
X4963634Y-17083389D01*
X5116015Y-17283389D02*
X5116015Y-17150055D01*
X5116015Y-17169103D02*
X5125539Y-17159579D01*
X5125539Y-17159579D02*
X5144586Y-17150055D01*
X5144586Y-17150055D02*
X5173158Y-17150055D01*
X5173158Y-17150055D02*
X5192205Y-17159579D01*
X5192205Y-17159579D02*
X5201729Y-17178627D01*
X5201729Y-17178627D02*
X5201729Y-17283389D01*
X5201729Y-17178627D02*
X5211253Y-17159579D01*
X5211253Y-17159579D02*
X5230300Y-17150055D01*
X5230300Y-17150055D02*
X5258872Y-17150055D01*
X5258872Y-17150055D02*
X5277920Y-17159579D01*
X5277920Y-17159579D02*
X5287443Y-17178627D01*
X5287443Y-17178627D02*
X5287443Y-17283389D01*
X5382681Y-17283389D02*
X5382681Y-17150055D01*
X5382681Y-17169103D02*
X5392205Y-17159579D01*
X5392205Y-17159579D02*
X5411253Y-17150055D01*
X5411253Y-17150055D02*
X5439824Y-17150055D01*
X5439824Y-17150055D02*
X5458872Y-17159579D01*
X5458872Y-17159579D02*
X5468396Y-17178627D01*
X5468396Y-17178627D02*
X5468396Y-17283389D01*
X5468396Y-17178627D02*
X5477920Y-17159579D01*
X5477920Y-17159579D02*
X5496967Y-17150055D01*
X5496967Y-17150055D02*
X5525539Y-17150055D01*
X5525539Y-17150055D02*
X5544586Y-17159579D01*
X5544586Y-17159579D02*
X5554110Y-17178627D01*
X5554110Y-17178627D02*
X5554110Y-17283389D01*
X5944586Y-17073865D02*
X5773158Y-17331008D01*
X6201729Y-17083389D02*
X6220777Y-17083389D01*
X6220777Y-17083389D02*
X6239824Y-17092913D01*
X6239824Y-17092913D02*
X6249348Y-17102436D01*
X6249348Y-17102436D02*
X6258872Y-17121484D01*
X6258872Y-17121484D02*
X6268396Y-17159579D01*
X6268396Y-17159579D02*
X6268396Y-17207198D01*
X6268396Y-17207198D02*
X6258872Y-17245294D01*
X6258872Y-17245294D02*
X6249348Y-17264341D01*
X6249348Y-17264341D02*
X6239824Y-17273865D01*
X6239824Y-17273865D02*
X6220777Y-17283389D01*
X6220777Y-17283389D02*
X6201729Y-17283389D01*
X6201729Y-17283389D02*
X6182681Y-17273865D01*
X6182681Y-17273865D02*
X6173158Y-17264341D01*
X6173158Y-17264341D02*
X6163634Y-17245294D01*
X6163634Y-17245294D02*
X6154110Y-17207198D01*
X6154110Y-17207198D02*
X6154110Y-17159579D01*
X6154110Y-17159579D02*
X6163634Y-17121484D01*
X6163634Y-17121484D02*
X6173158Y-17102436D01*
X6173158Y-17102436D02*
X6182681Y-17092913D01*
X6182681Y-17092913D02*
X6201729Y-17083389D01*
X6354110Y-17264341D02*
X6363634Y-17273865D01*
X6363634Y-17273865D02*
X6354110Y-17283389D01*
X6354110Y-17283389D02*
X6344586Y-17273865D01*
X6344586Y-17273865D02*
X6354110Y-17264341D01*
X6354110Y-17264341D02*
X6354110Y-17283389D01*
X6487443Y-17083389D02*
X6506491Y-17083389D01*
X6506491Y-17083389D02*
X6525539Y-17092913D01*
X6525539Y-17092913D02*
X6535062Y-17102436D01*
X6535062Y-17102436D02*
X6544586Y-17121484D01*
X6544586Y-17121484D02*
X6554110Y-17159579D01*
X6554110Y-17159579D02*
X6554110Y-17207198D01*
X6554110Y-17207198D02*
X6544586Y-17245294D01*
X6544586Y-17245294D02*
X6535062Y-17264341D01*
X6535062Y-17264341D02*
X6525539Y-17273865D01*
X6525539Y-17273865D02*
X6506491Y-17283389D01*
X6506491Y-17283389D02*
X6487443Y-17283389D01*
X6487443Y-17283389D02*
X6468396Y-17273865D01*
X6468396Y-17273865D02*
X6458872Y-17264341D01*
X6458872Y-17264341D02*
X6449348Y-17245294D01*
X6449348Y-17245294D02*
X6439824Y-17207198D01*
X6439824Y-17207198D02*
X6439824Y-17159579D01*
X6439824Y-17159579D02*
X6449348Y-17121484D01*
X6449348Y-17121484D02*
X6458872Y-17102436D01*
X6458872Y-17102436D02*
X6468396Y-17092913D01*
X6468396Y-17092913D02*
X6487443Y-17083389D01*
X6620777Y-17083389D02*
X6744586Y-17083389D01*
X6744586Y-17083389D02*
X6677920Y-17159579D01*
X6677920Y-17159579D02*
X6706491Y-17159579D01*
X6706491Y-17159579D02*
X6725539Y-17169103D01*
X6725539Y-17169103D02*
X6735062Y-17178627D01*
X6735062Y-17178627D02*
X6744586Y-17197675D01*
X6744586Y-17197675D02*
X6744586Y-17245294D01*
X6744586Y-17245294D02*
X6735062Y-17264341D01*
X6735062Y-17264341D02*
X6725539Y-17273865D01*
X6725539Y-17273865D02*
X6706491Y-17283389D01*
X6706491Y-17283389D02*
X6649348Y-17283389D01*
X6649348Y-17283389D02*
X6630301Y-17273865D01*
X6630301Y-17273865D02*
X6620777Y-17264341D01*
X6925539Y-17083389D02*
X6830301Y-17083389D01*
X6830301Y-17083389D02*
X6820777Y-17178627D01*
X6820777Y-17178627D02*
X6830301Y-17169103D01*
X6830301Y-17169103D02*
X6849348Y-17159579D01*
X6849348Y-17159579D02*
X6896967Y-17159579D01*
X6896967Y-17159579D02*
X6916015Y-17169103D01*
X6916015Y-17169103D02*
X6925539Y-17178627D01*
X6925539Y-17178627D02*
X6935062Y-17197675D01*
X6935062Y-17197675D02*
X6935062Y-17245294D01*
X6935062Y-17245294D02*
X6925539Y-17264341D01*
X6925539Y-17264341D02*
X6916015Y-17273865D01*
X6916015Y-17273865D02*
X6896967Y-17283389D01*
X6896967Y-17283389D02*
X6849348Y-17283389D01*
X6849348Y-17283389D02*
X6830301Y-17273865D01*
X6830301Y-17273865D02*
X6820777Y-17264341D01*
X7106491Y-17150055D02*
X7106491Y-17283389D01*
X7058872Y-17073865D02*
X7011253Y-17216722D01*
X7011253Y-17216722D02*
X7135062Y-17216722D01*
X7201729Y-17083389D02*
X7201729Y-17121484D01*
X7277920Y-17083389D02*
X7277920Y-17121484D01*
X7573158Y-17359579D02*
X7563634Y-17350055D01*
X7563634Y-17350055D02*
X7544586Y-17321484D01*
X7544586Y-17321484D02*
X7535063Y-17302436D01*
X7535063Y-17302436D02*
X7525539Y-17273865D01*
X7525539Y-17273865D02*
X7516015Y-17226246D01*
X7516015Y-17226246D02*
X7516015Y-17188151D01*
X7516015Y-17188151D02*
X7525539Y-17140532D01*
X7525539Y-17140532D02*
X7535063Y-17111960D01*
X7535063Y-17111960D02*
X7544586Y-17092913D01*
X7544586Y-17092913D02*
X7563634Y-17064341D01*
X7563634Y-17064341D02*
X7573158Y-17054817D01*
X7639824Y-17102436D02*
X7649348Y-17092913D01*
X7649348Y-17092913D02*
X7668396Y-17083389D01*
X7668396Y-17083389D02*
X7716015Y-17083389D01*
X7716015Y-17083389D02*
X7735063Y-17092913D01*
X7735063Y-17092913D02*
X7744586Y-17102436D01*
X7744586Y-17102436D02*
X7754110Y-17121484D01*
X7754110Y-17121484D02*
X7754110Y-17140532D01*
X7754110Y-17140532D02*
X7744586Y-17169103D01*
X7744586Y-17169103D02*
X7630301Y-17283389D01*
X7630301Y-17283389D02*
X7754110Y-17283389D01*
X7992205Y-17283389D02*
X7992205Y-17083389D01*
X8077920Y-17283389D02*
X8077920Y-17178627D01*
X8077920Y-17178627D02*
X8068396Y-17159579D01*
X8068396Y-17159579D02*
X8049348Y-17150055D01*
X8049348Y-17150055D02*
X8020777Y-17150055D01*
X8020777Y-17150055D02*
X8001729Y-17159579D01*
X8001729Y-17159579D02*
X7992205Y-17169103D01*
X8201729Y-17283389D02*
X8182682Y-17273865D01*
X8182682Y-17273865D02*
X8173158Y-17264341D01*
X8173158Y-17264341D02*
X8163634Y-17245294D01*
X8163634Y-17245294D02*
X8163634Y-17188151D01*
X8163634Y-17188151D02*
X8173158Y-17169103D01*
X8173158Y-17169103D02*
X8182682Y-17159579D01*
X8182682Y-17159579D02*
X8201729Y-17150055D01*
X8201729Y-17150055D02*
X8230301Y-17150055D01*
X8230301Y-17150055D02*
X8249348Y-17159579D01*
X8249348Y-17159579D02*
X8258872Y-17169103D01*
X8258872Y-17169103D02*
X8268396Y-17188151D01*
X8268396Y-17188151D02*
X8268396Y-17245294D01*
X8268396Y-17245294D02*
X8258872Y-17264341D01*
X8258872Y-17264341D02*
X8249348Y-17273865D01*
X8249348Y-17273865D02*
X8230301Y-17283389D01*
X8230301Y-17283389D02*
X8201729Y-17283389D01*
X8382682Y-17283389D02*
X8363634Y-17273865D01*
X8363634Y-17273865D02*
X8354110Y-17254817D01*
X8354110Y-17254817D02*
X8354110Y-17083389D01*
X8535063Y-17273865D02*
X8516015Y-17283389D01*
X8516015Y-17283389D02*
X8477920Y-17283389D01*
X8477920Y-17283389D02*
X8458872Y-17273865D01*
X8458872Y-17273865D02*
X8449348Y-17254817D01*
X8449348Y-17254817D02*
X8449348Y-17178627D01*
X8449348Y-17178627D02*
X8458872Y-17159579D01*
X8458872Y-17159579D02*
X8477920Y-17150055D01*
X8477920Y-17150055D02*
X8516015Y-17150055D01*
X8516015Y-17150055D02*
X8535063Y-17159579D01*
X8535063Y-17159579D02*
X8544587Y-17178627D01*
X8544587Y-17178627D02*
X8544587Y-17197675D01*
X8544587Y-17197675D02*
X8449348Y-17216722D01*
X8620777Y-17273865D02*
X8639825Y-17283389D01*
X8639825Y-17283389D02*
X8677920Y-17283389D01*
X8677920Y-17283389D02*
X8696968Y-17273865D01*
X8696968Y-17273865D02*
X8706491Y-17254817D01*
X8706491Y-17254817D02*
X8706491Y-17245294D01*
X8706491Y-17245294D02*
X8696968Y-17226246D01*
X8696968Y-17226246D02*
X8677920Y-17216722D01*
X8677920Y-17216722D02*
X8649348Y-17216722D01*
X8649348Y-17216722D02*
X8630301Y-17207198D01*
X8630301Y-17207198D02*
X8620777Y-17188151D01*
X8620777Y-17188151D02*
X8620777Y-17178627D01*
X8620777Y-17178627D02*
X8630301Y-17159579D01*
X8630301Y-17159579D02*
X8649348Y-17150055D01*
X8649348Y-17150055D02*
X8677920Y-17150055D01*
X8677920Y-17150055D02*
X8696968Y-17159579D01*
X8773158Y-17359579D02*
X8782682Y-17350055D01*
X8782682Y-17350055D02*
X8801729Y-17321484D01*
X8801729Y-17321484D02*
X8811253Y-17302436D01*
X8811253Y-17302436D02*
X8820777Y-17273865D01*
X8820777Y-17273865D02*
X8830301Y-17226246D01*
X8830301Y-17226246D02*
X8830301Y-17188151D01*
X8830301Y-17188151D02*
X8820777Y-17140532D01*
X8820777Y-17140532D02*
X8811253Y-17111960D01*
X8811253Y-17111960D02*
X8801729Y-17092913D01*
X8801729Y-17092913D02*
X8782682Y-17064341D01*
X8782682Y-17064341D02*
X8773158Y-17054817D01*
X9135063Y-17359579D02*
X9125539Y-17350055D01*
X9125539Y-17350055D02*
X9106491Y-17321484D01*
X9106491Y-17321484D02*
X9096968Y-17302436D01*
X9096968Y-17302436D02*
X9087444Y-17273865D01*
X9087444Y-17273865D02*
X9077920Y-17226246D01*
X9077920Y-17226246D02*
X9077920Y-17188151D01*
X9077920Y-17188151D02*
X9087444Y-17140532D01*
X9087444Y-17140532D02*
X9096968Y-17111960D01*
X9096968Y-17111960D02*
X9106491Y-17092913D01*
X9106491Y-17092913D02*
X9125539Y-17064341D01*
X9125539Y-17064341D02*
X9135063Y-17054817D01*
X9211253Y-17150055D02*
X9211253Y-17283389D01*
X9211253Y-17169103D02*
X9220777Y-17159579D01*
X9220777Y-17159579D02*
X9239825Y-17150055D01*
X9239825Y-17150055D02*
X9268396Y-17150055D01*
X9268396Y-17150055D02*
X9287444Y-17159579D01*
X9287444Y-17159579D02*
X9296968Y-17178627D01*
X9296968Y-17178627D02*
X9296968Y-17283389D01*
X9420777Y-17283389D02*
X9401729Y-17273865D01*
X9401729Y-17273865D02*
X9392206Y-17264341D01*
X9392206Y-17264341D02*
X9382682Y-17245294D01*
X9382682Y-17245294D02*
X9382682Y-17188151D01*
X9382682Y-17188151D02*
X9392206Y-17169103D01*
X9392206Y-17169103D02*
X9401729Y-17159579D01*
X9401729Y-17159579D02*
X9420777Y-17150055D01*
X9420777Y-17150055D02*
X9449349Y-17150055D01*
X9449349Y-17150055D02*
X9468396Y-17159579D01*
X9468396Y-17159579D02*
X9477920Y-17169103D01*
X9477920Y-17169103D02*
X9487444Y-17188151D01*
X9487444Y-17188151D02*
X9487444Y-17245294D01*
X9487444Y-17245294D02*
X9477920Y-17264341D01*
X9477920Y-17264341D02*
X9468396Y-17273865D01*
X9468396Y-17273865D02*
X9449349Y-17283389D01*
X9449349Y-17283389D02*
X9420777Y-17283389D01*
X9544587Y-17150055D02*
X9620777Y-17150055D01*
X9573158Y-17083389D02*
X9573158Y-17254817D01*
X9573158Y-17254817D02*
X9582682Y-17273865D01*
X9582682Y-17273865D02*
X9601729Y-17283389D01*
X9601729Y-17283389D02*
X9620777Y-17283389D01*
X9839825Y-17150055D02*
X9839825Y-17350055D01*
X9839825Y-17159579D02*
X9858872Y-17150055D01*
X9858872Y-17150055D02*
X9896968Y-17150055D01*
X9896968Y-17150055D02*
X9916015Y-17159579D01*
X9916015Y-17159579D02*
X9925539Y-17169103D01*
X9925539Y-17169103D02*
X9935063Y-17188151D01*
X9935063Y-17188151D02*
X9935063Y-17245294D01*
X9935063Y-17245294D02*
X9925539Y-17264341D01*
X9925539Y-17264341D02*
X9916015Y-17273865D01*
X9916015Y-17273865D02*
X9896968Y-17283389D01*
X9896968Y-17283389D02*
X9858872Y-17283389D01*
X9858872Y-17283389D02*
X9839825Y-17273865D01*
X10049349Y-17283389D02*
X10030301Y-17273865D01*
X10030301Y-17273865D02*
X10020777Y-17254817D01*
X10020777Y-17254817D02*
X10020777Y-17083389D01*
X10211253Y-17283389D02*
X10211253Y-17178627D01*
X10211253Y-17178627D02*
X10201730Y-17159579D01*
X10201730Y-17159579D02*
X10182682Y-17150055D01*
X10182682Y-17150055D02*
X10144587Y-17150055D01*
X10144587Y-17150055D02*
X10125539Y-17159579D01*
X10211253Y-17273865D02*
X10192206Y-17283389D01*
X10192206Y-17283389D02*
X10144587Y-17283389D01*
X10144587Y-17283389D02*
X10125539Y-17273865D01*
X10125539Y-17273865D02*
X10116015Y-17254817D01*
X10116015Y-17254817D02*
X10116015Y-17235770D01*
X10116015Y-17235770D02*
X10125539Y-17216722D01*
X10125539Y-17216722D02*
X10144587Y-17207198D01*
X10144587Y-17207198D02*
X10192206Y-17207198D01*
X10192206Y-17207198D02*
X10211253Y-17197675D01*
X10277920Y-17150055D02*
X10354110Y-17150055D01*
X10306491Y-17083389D02*
X10306491Y-17254817D01*
X10306491Y-17254817D02*
X10316015Y-17273865D01*
X10316015Y-17273865D02*
X10335063Y-17283389D01*
X10335063Y-17283389D02*
X10354110Y-17283389D01*
X10496968Y-17273865D02*
X10477920Y-17283389D01*
X10477920Y-17283389D02*
X10439825Y-17283389D01*
X10439825Y-17283389D02*
X10420777Y-17273865D01*
X10420777Y-17273865D02*
X10411253Y-17254817D01*
X10411253Y-17254817D02*
X10411253Y-17178627D01*
X10411253Y-17178627D02*
X10420777Y-17159579D01*
X10420777Y-17159579D02*
X10439825Y-17150055D01*
X10439825Y-17150055D02*
X10477920Y-17150055D01*
X10477920Y-17150055D02*
X10496968Y-17159579D01*
X10496968Y-17159579D02*
X10506491Y-17178627D01*
X10506491Y-17178627D02*
X10506491Y-17197675D01*
X10506491Y-17197675D02*
X10411253Y-17216722D01*
X10677920Y-17283389D02*
X10677920Y-17083389D01*
X10677920Y-17273865D02*
X10658872Y-17283389D01*
X10658872Y-17283389D02*
X10620777Y-17283389D01*
X10620777Y-17283389D02*
X10601730Y-17273865D01*
X10601730Y-17273865D02*
X10592206Y-17264341D01*
X10592206Y-17264341D02*
X10582682Y-17245294D01*
X10582682Y-17245294D02*
X10582682Y-17188151D01*
X10582682Y-17188151D02*
X10592206Y-17169103D01*
X10592206Y-17169103D02*
X10601730Y-17159579D01*
X10601730Y-17159579D02*
X10620777Y-17150055D01*
X10620777Y-17150055D02*
X10658872Y-17150055D01*
X10658872Y-17150055D02*
X10677920Y-17159579D01*
X10754111Y-17359579D02*
X10763634Y-17350055D01*
X10763634Y-17350055D02*
X10782682Y-17321484D01*
X10782682Y-17321484D02*
X10792206Y-17302436D01*
X10792206Y-17302436D02*
X10801730Y-17273865D01*
X10801730Y-17273865D02*
X10811253Y-17226246D01*
X10811253Y-17226246D02*
X10811253Y-17188151D01*
X10811253Y-17188151D02*
X10801730Y-17140532D01*
X10801730Y-17140532D02*
X10792206Y-17111960D01*
X10792206Y-17111960D02*
X10782682Y-17092913D01*
X10782682Y-17092913D02*
X10763634Y-17064341D01*
X10763634Y-17064341D02*
X10754111Y-17054817D01*
D13*
X3998095Y-17455905D02*
G75*
G02*
X3838095Y-17455905I-80000J0D01*
G01*
X3838095Y-17455905D02*
G75*
G02*
X3998095Y-17455905I80000J0D01*
G01*
D11*
X4363634Y-17547389D02*
X4249348Y-17547389D01*
X4306491Y-17547389D02*
X4306491Y-17347389D01*
X4306491Y-17347389D02*
X4287443Y-17375960D01*
X4287443Y-17375960D02*
X4268396Y-17395008D01*
X4268396Y-17395008D02*
X4249348Y-17404532D01*
X4449348Y-17528341D02*
X4458872Y-17537865D01*
X4458872Y-17537865D02*
X4449348Y-17547389D01*
X4449348Y-17547389D02*
X4439824Y-17537865D01*
X4439824Y-17537865D02*
X4449348Y-17528341D01*
X4449348Y-17528341D02*
X4449348Y-17547389D01*
X4630300Y-17347389D02*
X4592205Y-17347389D01*
X4592205Y-17347389D02*
X4573158Y-17356913D01*
X4573158Y-17356913D02*
X4563634Y-17366436D01*
X4563634Y-17366436D02*
X4544586Y-17395008D01*
X4544586Y-17395008D02*
X4535062Y-17433103D01*
X4535062Y-17433103D02*
X4535062Y-17509294D01*
X4535062Y-17509294D02*
X4544586Y-17528341D01*
X4544586Y-17528341D02*
X4554110Y-17537865D01*
X4554110Y-17537865D02*
X4573158Y-17547389D01*
X4573158Y-17547389D02*
X4611253Y-17547389D01*
X4611253Y-17547389D02*
X4630300Y-17537865D01*
X4630300Y-17537865D02*
X4639824Y-17528341D01*
X4639824Y-17528341D02*
X4649348Y-17509294D01*
X4649348Y-17509294D02*
X4649348Y-17461675D01*
X4649348Y-17461675D02*
X4639824Y-17442627D01*
X4639824Y-17442627D02*
X4630300Y-17433103D01*
X4630300Y-17433103D02*
X4611253Y-17423579D01*
X4611253Y-17423579D02*
X4573158Y-17423579D01*
X4573158Y-17423579D02*
X4554110Y-17433103D01*
X4554110Y-17433103D02*
X4544586Y-17442627D01*
X4544586Y-17442627D02*
X4535062Y-17461675D01*
X4773158Y-17347389D02*
X4792205Y-17347389D01*
X4792205Y-17347389D02*
X4811253Y-17356913D01*
X4811253Y-17356913D02*
X4820777Y-17366436D01*
X4820777Y-17366436D02*
X4830300Y-17385484D01*
X4830300Y-17385484D02*
X4839824Y-17423579D01*
X4839824Y-17423579D02*
X4839824Y-17471198D01*
X4839824Y-17471198D02*
X4830300Y-17509294D01*
X4830300Y-17509294D02*
X4820777Y-17528341D01*
X4820777Y-17528341D02*
X4811253Y-17537865D01*
X4811253Y-17537865D02*
X4792205Y-17547389D01*
X4792205Y-17547389D02*
X4773158Y-17547389D01*
X4773158Y-17547389D02*
X4754110Y-17537865D01*
X4754110Y-17537865D02*
X4744586Y-17528341D01*
X4744586Y-17528341D02*
X4735062Y-17509294D01*
X4735062Y-17509294D02*
X4725539Y-17471198D01*
X4725539Y-17471198D02*
X4725539Y-17423579D01*
X4725539Y-17423579D02*
X4735062Y-17385484D01*
X4735062Y-17385484D02*
X4744586Y-17366436D01*
X4744586Y-17366436D02*
X4754110Y-17356913D01*
X4754110Y-17356913D02*
X4773158Y-17347389D01*
X4963634Y-17347389D02*
X4982681Y-17347389D01*
X4982681Y-17347389D02*
X5001729Y-17356913D01*
X5001729Y-17356913D02*
X5011253Y-17366436D01*
X5011253Y-17366436D02*
X5020777Y-17385484D01*
X5020777Y-17385484D02*
X5030300Y-17423579D01*
X5030300Y-17423579D02*
X5030300Y-17471198D01*
X5030300Y-17471198D02*
X5020777Y-17509294D01*
X5020777Y-17509294D02*
X5011253Y-17528341D01*
X5011253Y-17528341D02*
X5001729Y-17537865D01*
X5001729Y-17537865D02*
X4982681Y-17547389D01*
X4982681Y-17547389D02*
X4963634Y-17547389D01*
X4963634Y-17547389D02*
X4944586Y-17537865D01*
X4944586Y-17537865D02*
X4935062Y-17528341D01*
X4935062Y-17528341D02*
X4925539Y-17509294D01*
X4925539Y-17509294D02*
X4916015Y-17471198D01*
X4916015Y-17471198D02*
X4916015Y-17423579D01*
X4916015Y-17423579D02*
X4925539Y-17385484D01*
X4925539Y-17385484D02*
X4935062Y-17366436D01*
X4935062Y-17366436D02*
X4944586Y-17356913D01*
X4944586Y-17356913D02*
X4963634Y-17347389D01*
X5116015Y-17547389D02*
X5116015Y-17414055D01*
X5116015Y-17433103D02*
X5125539Y-17423579D01*
X5125539Y-17423579D02*
X5144586Y-17414055D01*
X5144586Y-17414055D02*
X5173158Y-17414055D01*
X5173158Y-17414055D02*
X5192205Y-17423579D01*
X5192205Y-17423579D02*
X5201729Y-17442627D01*
X5201729Y-17442627D02*
X5201729Y-17547389D01*
X5201729Y-17442627D02*
X5211253Y-17423579D01*
X5211253Y-17423579D02*
X5230300Y-17414055D01*
X5230300Y-17414055D02*
X5258872Y-17414055D01*
X5258872Y-17414055D02*
X5277920Y-17423579D01*
X5277920Y-17423579D02*
X5287443Y-17442627D01*
X5287443Y-17442627D02*
X5287443Y-17547389D01*
X5382681Y-17547389D02*
X5382681Y-17414055D01*
X5382681Y-17433103D02*
X5392205Y-17423579D01*
X5392205Y-17423579D02*
X5411253Y-17414055D01*
X5411253Y-17414055D02*
X5439824Y-17414055D01*
X5439824Y-17414055D02*
X5458872Y-17423579D01*
X5458872Y-17423579D02*
X5468396Y-17442627D01*
X5468396Y-17442627D02*
X5468396Y-17547389D01*
X5468396Y-17442627D02*
X5477920Y-17423579D01*
X5477920Y-17423579D02*
X5496967Y-17414055D01*
X5496967Y-17414055D02*
X5525539Y-17414055D01*
X5525539Y-17414055D02*
X5544586Y-17423579D01*
X5544586Y-17423579D02*
X5554110Y-17442627D01*
X5554110Y-17442627D02*
X5554110Y-17547389D01*
X5944586Y-17337865D02*
X5773158Y-17595008D01*
X6201729Y-17347389D02*
X6220777Y-17347389D01*
X6220777Y-17347389D02*
X6239824Y-17356913D01*
X6239824Y-17356913D02*
X6249348Y-17366436D01*
X6249348Y-17366436D02*
X6258872Y-17385484D01*
X6258872Y-17385484D02*
X6268396Y-17423579D01*
X6268396Y-17423579D02*
X6268396Y-17471198D01*
X6268396Y-17471198D02*
X6258872Y-17509294D01*
X6258872Y-17509294D02*
X6249348Y-17528341D01*
X6249348Y-17528341D02*
X6239824Y-17537865D01*
X6239824Y-17537865D02*
X6220777Y-17547389D01*
X6220777Y-17547389D02*
X6201729Y-17547389D01*
X6201729Y-17547389D02*
X6182681Y-17537865D01*
X6182681Y-17537865D02*
X6173158Y-17528341D01*
X6173158Y-17528341D02*
X6163634Y-17509294D01*
X6163634Y-17509294D02*
X6154110Y-17471198D01*
X6154110Y-17471198D02*
X6154110Y-17423579D01*
X6154110Y-17423579D02*
X6163634Y-17385484D01*
X6163634Y-17385484D02*
X6173158Y-17366436D01*
X6173158Y-17366436D02*
X6182681Y-17356913D01*
X6182681Y-17356913D02*
X6201729Y-17347389D01*
X6354110Y-17528341D02*
X6363634Y-17537865D01*
X6363634Y-17537865D02*
X6354110Y-17547389D01*
X6354110Y-17547389D02*
X6344586Y-17537865D01*
X6344586Y-17537865D02*
X6354110Y-17528341D01*
X6354110Y-17528341D02*
X6354110Y-17547389D01*
X6487443Y-17347389D02*
X6506491Y-17347389D01*
X6506491Y-17347389D02*
X6525539Y-17356913D01*
X6525539Y-17356913D02*
X6535062Y-17366436D01*
X6535062Y-17366436D02*
X6544586Y-17385484D01*
X6544586Y-17385484D02*
X6554110Y-17423579D01*
X6554110Y-17423579D02*
X6554110Y-17471198D01*
X6554110Y-17471198D02*
X6544586Y-17509294D01*
X6544586Y-17509294D02*
X6535062Y-17528341D01*
X6535062Y-17528341D02*
X6525539Y-17537865D01*
X6525539Y-17537865D02*
X6506491Y-17547389D01*
X6506491Y-17547389D02*
X6487443Y-17547389D01*
X6487443Y-17547389D02*
X6468396Y-17537865D01*
X6468396Y-17537865D02*
X6458872Y-17528341D01*
X6458872Y-17528341D02*
X6449348Y-17509294D01*
X6449348Y-17509294D02*
X6439824Y-17471198D01*
X6439824Y-17471198D02*
X6439824Y-17423579D01*
X6439824Y-17423579D02*
X6449348Y-17385484D01*
X6449348Y-17385484D02*
X6458872Y-17366436D01*
X6458872Y-17366436D02*
X6468396Y-17356913D01*
X6468396Y-17356913D02*
X6487443Y-17347389D01*
X6725539Y-17347389D02*
X6687443Y-17347389D01*
X6687443Y-17347389D02*
X6668396Y-17356913D01*
X6668396Y-17356913D02*
X6658872Y-17366436D01*
X6658872Y-17366436D02*
X6639824Y-17395008D01*
X6639824Y-17395008D02*
X6630301Y-17433103D01*
X6630301Y-17433103D02*
X6630301Y-17509294D01*
X6630301Y-17509294D02*
X6639824Y-17528341D01*
X6639824Y-17528341D02*
X6649348Y-17537865D01*
X6649348Y-17537865D02*
X6668396Y-17547389D01*
X6668396Y-17547389D02*
X6706491Y-17547389D01*
X6706491Y-17547389D02*
X6725539Y-17537865D01*
X6725539Y-17537865D02*
X6735062Y-17528341D01*
X6735062Y-17528341D02*
X6744586Y-17509294D01*
X6744586Y-17509294D02*
X6744586Y-17461675D01*
X6744586Y-17461675D02*
X6735062Y-17442627D01*
X6735062Y-17442627D02*
X6725539Y-17433103D01*
X6725539Y-17433103D02*
X6706491Y-17423579D01*
X6706491Y-17423579D02*
X6668396Y-17423579D01*
X6668396Y-17423579D02*
X6649348Y-17433103D01*
X6649348Y-17433103D02*
X6639824Y-17442627D01*
X6639824Y-17442627D02*
X6630301Y-17461675D01*
X6811253Y-17347389D02*
X6935062Y-17347389D01*
X6935062Y-17347389D02*
X6868396Y-17423579D01*
X6868396Y-17423579D02*
X6896967Y-17423579D01*
X6896967Y-17423579D02*
X6916015Y-17433103D01*
X6916015Y-17433103D02*
X6925539Y-17442627D01*
X6925539Y-17442627D02*
X6935062Y-17461675D01*
X6935062Y-17461675D02*
X6935062Y-17509294D01*
X6935062Y-17509294D02*
X6925539Y-17528341D01*
X6925539Y-17528341D02*
X6916015Y-17537865D01*
X6916015Y-17537865D02*
X6896967Y-17547389D01*
X6896967Y-17547389D02*
X6839824Y-17547389D01*
X6839824Y-17547389D02*
X6820777Y-17537865D01*
X6820777Y-17537865D02*
X6811253Y-17528341D01*
X7058872Y-17347389D02*
X7077920Y-17347389D01*
X7077920Y-17347389D02*
X7096967Y-17356913D01*
X7096967Y-17356913D02*
X7106491Y-17366436D01*
X7106491Y-17366436D02*
X7116015Y-17385484D01*
X7116015Y-17385484D02*
X7125539Y-17423579D01*
X7125539Y-17423579D02*
X7125539Y-17471198D01*
X7125539Y-17471198D02*
X7116015Y-17509294D01*
X7116015Y-17509294D02*
X7106491Y-17528341D01*
X7106491Y-17528341D02*
X7096967Y-17537865D01*
X7096967Y-17537865D02*
X7077920Y-17547389D01*
X7077920Y-17547389D02*
X7058872Y-17547389D01*
X7058872Y-17547389D02*
X7039824Y-17537865D01*
X7039824Y-17537865D02*
X7030301Y-17528341D01*
X7030301Y-17528341D02*
X7020777Y-17509294D01*
X7020777Y-17509294D02*
X7011253Y-17471198D01*
X7011253Y-17471198D02*
X7011253Y-17423579D01*
X7011253Y-17423579D02*
X7020777Y-17385484D01*
X7020777Y-17385484D02*
X7030301Y-17366436D01*
X7030301Y-17366436D02*
X7039824Y-17356913D01*
X7039824Y-17356913D02*
X7058872Y-17347389D01*
X7201729Y-17347389D02*
X7201729Y-17385484D01*
X7277920Y-17347389D02*
X7277920Y-17385484D01*
X7573158Y-17623579D02*
X7563634Y-17614055D01*
X7563634Y-17614055D02*
X7544586Y-17585484D01*
X7544586Y-17585484D02*
X7535063Y-17566436D01*
X7535063Y-17566436D02*
X7525539Y-17537865D01*
X7525539Y-17537865D02*
X7516015Y-17490246D01*
X7516015Y-17490246D02*
X7516015Y-17452151D01*
X7516015Y-17452151D02*
X7525539Y-17404532D01*
X7525539Y-17404532D02*
X7535063Y-17375960D01*
X7535063Y-17375960D02*
X7544586Y-17356913D01*
X7544586Y-17356913D02*
X7563634Y-17328341D01*
X7563634Y-17328341D02*
X7573158Y-17318817D01*
X7754110Y-17547389D02*
X7639824Y-17547389D01*
X7696967Y-17547389D02*
X7696967Y-17347389D01*
X7696967Y-17347389D02*
X7677920Y-17375960D01*
X7677920Y-17375960D02*
X7658872Y-17395008D01*
X7658872Y-17395008D02*
X7639824Y-17404532D01*
X7992205Y-17547389D02*
X7992205Y-17347389D01*
X8077920Y-17547389D02*
X8077920Y-17442627D01*
X8077920Y-17442627D02*
X8068396Y-17423579D01*
X8068396Y-17423579D02*
X8049348Y-17414055D01*
X8049348Y-17414055D02*
X8020777Y-17414055D01*
X8020777Y-17414055D02*
X8001729Y-17423579D01*
X8001729Y-17423579D02*
X7992205Y-17433103D01*
X8201729Y-17547389D02*
X8182682Y-17537865D01*
X8182682Y-17537865D02*
X8173158Y-17528341D01*
X8173158Y-17528341D02*
X8163634Y-17509294D01*
X8163634Y-17509294D02*
X8163634Y-17452151D01*
X8163634Y-17452151D02*
X8173158Y-17433103D01*
X8173158Y-17433103D02*
X8182682Y-17423579D01*
X8182682Y-17423579D02*
X8201729Y-17414055D01*
X8201729Y-17414055D02*
X8230301Y-17414055D01*
X8230301Y-17414055D02*
X8249348Y-17423579D01*
X8249348Y-17423579D02*
X8258872Y-17433103D01*
X8258872Y-17433103D02*
X8268396Y-17452151D01*
X8268396Y-17452151D02*
X8268396Y-17509294D01*
X8268396Y-17509294D02*
X8258872Y-17528341D01*
X8258872Y-17528341D02*
X8249348Y-17537865D01*
X8249348Y-17537865D02*
X8230301Y-17547389D01*
X8230301Y-17547389D02*
X8201729Y-17547389D01*
X8382682Y-17547389D02*
X8363634Y-17537865D01*
X8363634Y-17537865D02*
X8354110Y-17518817D01*
X8354110Y-17518817D02*
X8354110Y-17347389D01*
X8535063Y-17537865D02*
X8516015Y-17547389D01*
X8516015Y-17547389D02*
X8477920Y-17547389D01*
X8477920Y-17547389D02*
X8458872Y-17537865D01*
X8458872Y-17537865D02*
X8449348Y-17518817D01*
X8449348Y-17518817D02*
X8449348Y-17442627D01*
X8449348Y-17442627D02*
X8458872Y-17423579D01*
X8458872Y-17423579D02*
X8477920Y-17414055D01*
X8477920Y-17414055D02*
X8516015Y-17414055D01*
X8516015Y-17414055D02*
X8535063Y-17423579D01*
X8535063Y-17423579D02*
X8544587Y-17442627D01*
X8544587Y-17442627D02*
X8544587Y-17461675D01*
X8544587Y-17461675D02*
X8449348Y-17480722D01*
X8611253Y-17623579D02*
X8620777Y-17614055D01*
X8620777Y-17614055D02*
X8639825Y-17585484D01*
X8639825Y-17585484D02*
X8649348Y-17566436D01*
X8649348Y-17566436D02*
X8658872Y-17537865D01*
X8658872Y-17537865D02*
X8668396Y-17490246D01*
X8668396Y-17490246D02*
X8668396Y-17452151D01*
X8668396Y-17452151D02*
X8658872Y-17404532D01*
X8658872Y-17404532D02*
X8649348Y-17375960D01*
X8649348Y-17375960D02*
X8639825Y-17356913D01*
X8639825Y-17356913D02*
X8620777Y-17328341D01*
X8620777Y-17328341D02*
X8611253Y-17318817D01*
X8973158Y-17623579D02*
X8963634Y-17614055D01*
X8963634Y-17614055D02*
X8944587Y-17585484D01*
X8944587Y-17585484D02*
X8935063Y-17566436D01*
X8935063Y-17566436D02*
X8925539Y-17537865D01*
X8925539Y-17537865D02*
X8916015Y-17490246D01*
X8916015Y-17490246D02*
X8916015Y-17452151D01*
X8916015Y-17452151D02*
X8925539Y-17404532D01*
X8925539Y-17404532D02*
X8935063Y-17375960D01*
X8935063Y-17375960D02*
X8944587Y-17356913D01*
X8944587Y-17356913D02*
X8963634Y-17328341D01*
X8963634Y-17328341D02*
X8973158Y-17318817D01*
X9049348Y-17414055D02*
X9049348Y-17547389D01*
X9049348Y-17433103D02*
X9058872Y-17423579D01*
X9058872Y-17423579D02*
X9077920Y-17414055D01*
X9077920Y-17414055D02*
X9106491Y-17414055D01*
X9106491Y-17414055D02*
X9125539Y-17423579D01*
X9125539Y-17423579D02*
X9135063Y-17442627D01*
X9135063Y-17442627D02*
X9135063Y-17547389D01*
X9258872Y-17547389D02*
X9239825Y-17537865D01*
X9239825Y-17537865D02*
X9230301Y-17528341D01*
X9230301Y-17528341D02*
X9220777Y-17509294D01*
X9220777Y-17509294D02*
X9220777Y-17452151D01*
X9220777Y-17452151D02*
X9230301Y-17433103D01*
X9230301Y-17433103D02*
X9239825Y-17423579D01*
X9239825Y-17423579D02*
X9258872Y-17414055D01*
X9258872Y-17414055D02*
X9287444Y-17414055D01*
X9287444Y-17414055D02*
X9306491Y-17423579D01*
X9306491Y-17423579D02*
X9316015Y-17433103D01*
X9316015Y-17433103D02*
X9325539Y-17452151D01*
X9325539Y-17452151D02*
X9325539Y-17509294D01*
X9325539Y-17509294D02*
X9316015Y-17528341D01*
X9316015Y-17528341D02*
X9306491Y-17537865D01*
X9306491Y-17537865D02*
X9287444Y-17547389D01*
X9287444Y-17547389D02*
X9258872Y-17547389D01*
X9382682Y-17414055D02*
X9458872Y-17414055D01*
X9411253Y-17347389D02*
X9411253Y-17518817D01*
X9411253Y-17518817D02*
X9420777Y-17537865D01*
X9420777Y-17537865D02*
X9439825Y-17547389D01*
X9439825Y-17547389D02*
X9458872Y-17547389D01*
X9677920Y-17414055D02*
X9677920Y-17614055D01*
X9677920Y-17423579D02*
X9696968Y-17414055D01*
X9696968Y-17414055D02*
X9735063Y-17414055D01*
X9735063Y-17414055D02*
X9754110Y-17423579D01*
X9754110Y-17423579D02*
X9763634Y-17433103D01*
X9763634Y-17433103D02*
X9773158Y-17452151D01*
X9773158Y-17452151D02*
X9773158Y-17509294D01*
X9773158Y-17509294D02*
X9763634Y-17528341D01*
X9763634Y-17528341D02*
X9754110Y-17537865D01*
X9754110Y-17537865D02*
X9735063Y-17547389D01*
X9735063Y-17547389D02*
X9696968Y-17547389D01*
X9696968Y-17547389D02*
X9677920Y-17537865D01*
X9887444Y-17547389D02*
X9868396Y-17537865D01*
X9868396Y-17537865D02*
X9858872Y-17518817D01*
X9858872Y-17518817D02*
X9858872Y-17347389D01*
X10049349Y-17547389D02*
X10049349Y-17442627D01*
X10049349Y-17442627D02*
X10039825Y-17423579D01*
X10039825Y-17423579D02*
X10020777Y-17414055D01*
X10020777Y-17414055D02*
X9982682Y-17414055D01*
X9982682Y-17414055D02*
X9963634Y-17423579D01*
X10049349Y-17537865D02*
X10030301Y-17547389D01*
X10030301Y-17547389D02*
X9982682Y-17547389D01*
X9982682Y-17547389D02*
X9963634Y-17537865D01*
X9963634Y-17537865D02*
X9954110Y-17518817D01*
X9954110Y-17518817D02*
X9954110Y-17499770D01*
X9954110Y-17499770D02*
X9963634Y-17480722D01*
X9963634Y-17480722D02*
X9982682Y-17471198D01*
X9982682Y-17471198D02*
X10030301Y-17471198D01*
X10030301Y-17471198D02*
X10049349Y-17461675D01*
X10116015Y-17414055D02*
X10192206Y-17414055D01*
X10144587Y-17347389D02*
X10144587Y-17518817D01*
X10144587Y-17518817D02*
X10154110Y-17537865D01*
X10154110Y-17537865D02*
X10173158Y-17547389D01*
X10173158Y-17547389D02*
X10192206Y-17547389D01*
X10335063Y-17537865D02*
X10316015Y-17547389D01*
X10316015Y-17547389D02*
X10277920Y-17547389D01*
X10277920Y-17547389D02*
X10258872Y-17537865D01*
X10258872Y-17537865D02*
X10249349Y-17518817D01*
X10249349Y-17518817D02*
X10249349Y-17442627D01*
X10249349Y-17442627D02*
X10258872Y-17423579D01*
X10258872Y-17423579D02*
X10277920Y-17414055D01*
X10277920Y-17414055D02*
X10316015Y-17414055D01*
X10316015Y-17414055D02*
X10335063Y-17423579D01*
X10335063Y-17423579D02*
X10344587Y-17442627D01*
X10344587Y-17442627D02*
X10344587Y-17461675D01*
X10344587Y-17461675D02*
X10249349Y-17480722D01*
X10516015Y-17547389D02*
X10516015Y-17347389D01*
X10516015Y-17537865D02*
X10496968Y-17547389D01*
X10496968Y-17547389D02*
X10458872Y-17547389D01*
X10458872Y-17547389D02*
X10439825Y-17537865D01*
X10439825Y-17537865D02*
X10430301Y-17528341D01*
X10430301Y-17528341D02*
X10420777Y-17509294D01*
X10420777Y-17509294D02*
X10420777Y-17452151D01*
X10420777Y-17452151D02*
X10430301Y-17433103D01*
X10430301Y-17433103D02*
X10439825Y-17423579D01*
X10439825Y-17423579D02*
X10458872Y-17414055D01*
X10458872Y-17414055D02*
X10496968Y-17414055D01*
X10496968Y-17414055D02*
X10516015Y-17423579D01*
X10592206Y-17623579D02*
X10601730Y-17614055D01*
X10601730Y-17614055D02*
X10620777Y-17585484D01*
X10620777Y-17585484D02*
X10630301Y-17566436D01*
X10630301Y-17566436D02*
X10639825Y-17537865D01*
X10639825Y-17537865D02*
X10649349Y-17490246D01*
X10649349Y-17490246D02*
X10649349Y-17452151D01*
X10649349Y-17452151D02*
X10639825Y-17404532D01*
X10639825Y-17404532D02*
X10630301Y-17375960D01*
X10630301Y-17375960D02*
X10620777Y-17356913D01*
X10620777Y-17356913D02*
X10601730Y-17328341D01*
X10601730Y-17328341D02*
X10592206Y-17318817D01*
M02*
