G04 #@! TF.GenerationSoftware,KiCad,Pcbnew,8.0.2*
G04 #@! TF.CreationDate,2024-05-15T00:12:31-07:00*
G04 #@! TF.ProjectId,Flying_Fader,466c7969-6e67-45f4-9661-6465722e6b69,1*
G04 #@! TF.SameCoordinates,Original*
G04 #@! TF.FileFunction,Legend,Bot*
G04 #@! TF.FilePolarity,Positive*
%FSLAX46Y46*%
G04 Gerber Fmt 4.6, Leading zero omitted, Abs format (unit mm)*
G04 Created by KiCad (PCBNEW 8.0.2) date 2024-05-15 00:12:31*
%MOMM*%
%LPD*%
G01*
G04 APERTURE LIST*
%ADD10C,5.600000*%
%ADD11C,0.900000*%
%ADD12R,1.700000X1.700000*%
%ADD13O,1.700000X1.700000*%
%ADD14C,1.600000*%
%ADD15R,4.000000X2.000000*%
%ADD16O,3.300000X2.000000*%
%ADD17O,2.000000X3.500000*%
%ADD18C,0.700000*%
%ADD19O,0.900000X2.400000*%
%ADD20O,0.900000X1.700000*%
G04 APERTURE END LIST*
%LPC*%
D10*
X136500000Y-162000000D03*
X43500000Y-162000000D03*
X136500000Y-39000000D03*
X43500000Y-39000000D03*
D11*
X88900000Y-37500000D03*
X82100000Y-37500000D03*
D12*
X59939000Y-55123000D03*
D13*
X62479000Y-55123000D03*
X59939000Y-57663000D03*
X62479000Y-57663000D03*
X59939000Y-60203000D03*
X62479000Y-60203000D03*
X59939000Y-62743000D03*
X62479000Y-62743000D03*
X59939000Y-65283000D03*
X62479000Y-65283000D03*
D14*
X100500000Y-39000000D03*
D15*
X100500000Y-48000000D03*
D16*
X100500000Y-42000000D03*
D17*
X105000000Y-41000000D03*
X96000000Y-41000000D03*
D13*
X115736500Y-155760000D03*
X113196500Y-155760000D03*
X110656500Y-155760000D03*
X108116500Y-155760000D03*
X105576500Y-155760000D03*
D12*
X103036500Y-155760000D03*
D13*
X77636500Y-155760000D03*
X75096500Y-155760000D03*
X72556500Y-155760000D03*
X70016500Y-155760000D03*
X67476500Y-155760000D03*
D12*
X64936500Y-155760000D03*
D13*
X96686500Y-155760000D03*
X94146500Y-155760000D03*
X91606500Y-155760000D03*
X89066500Y-155760000D03*
X86526500Y-155760000D03*
D12*
X83986500Y-155760000D03*
D13*
X134532500Y-155760000D03*
X131992500Y-155760000D03*
X129452500Y-155760000D03*
X126912500Y-155760000D03*
X124372500Y-155760000D03*
D12*
X121832500Y-155760000D03*
D18*
X72975000Y-44525000D03*
X72125000Y-44525000D03*
X71275000Y-44525000D03*
X70425000Y-44525000D03*
X69575000Y-44525000D03*
X68725000Y-44525000D03*
X67875000Y-44525000D03*
X67025000Y-44525000D03*
X67025000Y-43175000D03*
X67875000Y-43175000D03*
X68725000Y-43175000D03*
X69575000Y-43175000D03*
X70425000Y-43175000D03*
X71275000Y-43175000D03*
X72125000Y-43175000D03*
X72975000Y-43175000D03*
D19*
X74325000Y-43545000D03*
D20*
X74325000Y-40165000D03*
D19*
X65675000Y-43545000D03*
D20*
X65675000Y-40165000D03*
D12*
X67000000Y-57725000D03*
D13*
X67000000Y-60265000D03*
X58840500Y-155760000D03*
X56300500Y-155760000D03*
X53760500Y-155760000D03*
X51220500Y-155760000D03*
X48680500Y-155760000D03*
D12*
X46140500Y-155760000D03*
X77216000Y-80264000D03*
D13*
X77216000Y-82804000D03*
X77216000Y-85344000D03*
X77216000Y-87884000D03*
%LPD*%
M02*
