%TF.GenerationSoftware,KiCad,Pcbnew,8.0.2*%
%TF.CreationDate,2024-05-15T00:29:23-07:00*%
%TF.ProjectId,Flying_Fader,466c7969-6e67-45f4-9661-6465722e6b69,1*%
%TF.SameCoordinates,Original*%
%TF.FileFunction,Drillmap*%
%TF.FilePolarity,Positive*%
%FSLAX45Y45*%
G04 Gerber Fmt 4.5, Leading zero omitted, Abs format (unit mm)*
G04 Created by KiCad (PCBNEW 8.0.2) date 2024-05-15 00:29:23*
%MOMM*%
%LPD*%
G01*
G04 APERTURE LIST*
%ADD10C,0.038100*%
%ADD11C,0.200000*%
%ADD12C,0.100000*%
%ADD13C,0.320000*%
G04 APERTURE END LIST*
D10*
X4000000Y-3550000D02*
X14000000Y-3550000D01*
X14000000Y-16550000D01*
X4000000Y-16550000D01*
X4000000Y-3550000D01*
D11*
D12*
X4785000Y-14935000D02*
X4815000Y-14965000D01*
X4815000Y-14935000D02*
X4785000Y-14965000D01*
X4985000Y-14785000D02*
X5015000Y-14815000D01*
X5015000Y-14785000D02*
X4985000Y-14815000D01*
X5185000Y-14335000D02*
X5215000Y-14365000D01*
X5215000Y-14335000D02*
X5185000Y-14365000D01*
X5235000Y-14835000D02*
X5265000Y-14865000D01*
X5265000Y-14835000D02*
X5235000Y-14865000D01*
X5335000Y-14235000D02*
X5365000Y-14265000D01*
X5365000Y-14235000D02*
X5335000Y-14265000D01*
X5335000Y-14435000D02*
X5365000Y-14465000D01*
X5365000Y-14435000D02*
X5335000Y-14465000D01*
X5389224Y-15139225D02*
X5419224Y-15169225D01*
X5419224Y-15139225D02*
X5389224Y-15169225D01*
X5785000Y-8085000D02*
X5815000Y-8115000D01*
X5815000Y-8085000D02*
X5785000Y-8115000D01*
X6085000Y-7935000D02*
X6115000Y-7965000D01*
X6115000Y-7935000D02*
X6085000Y-7965000D01*
X6235000Y-13635000D02*
X6265000Y-13665000D01*
X6265000Y-13635000D02*
X6235000Y-13665000D01*
X6285000Y-13485000D02*
X6315000Y-13515000D01*
X6315000Y-13485000D02*
X6285000Y-13515000D01*
X6335000Y-8335000D02*
X6365000Y-8365000D01*
X6365000Y-8335000D02*
X6335000Y-8365000D01*
X6335000Y-13385000D02*
X6365000Y-13415000D01*
X6365000Y-13385000D02*
X6335000Y-13415000D01*
X6385000Y-7785000D02*
X6415000Y-7815000D01*
X6415000Y-7785000D02*
X6385000Y-7815000D01*
X6385000Y-8935000D02*
X6415000Y-8965000D01*
X6415000Y-8935000D02*
X6385000Y-8965000D01*
X6435000Y-14185000D02*
X6465000Y-14215000D01*
X6465000Y-14185000D02*
X6435000Y-14215000D01*
X6485000Y-6985000D02*
X6515000Y-7015000D01*
X6515000Y-6985000D02*
X6485000Y-7015000D01*
X6485000Y-8035000D02*
X6515000Y-8065000D01*
X6515000Y-8035000D02*
X6485000Y-8065000D01*
X6512003Y-9294669D02*
X6542003Y-9324669D01*
X6542003Y-9294669D02*
X6512003Y-9324669D01*
X6535000Y-13535000D02*
X6565000Y-13565000D01*
X6565000Y-13535000D02*
X6535000Y-13565000D01*
X6535000Y-13685000D02*
X6565000Y-13715000D01*
X6565000Y-13685000D02*
X6535000Y-13715000D01*
X6585000Y-8035000D02*
X6615000Y-8065000D01*
X6615000Y-8035000D02*
X6585000Y-8065000D01*
X6685000Y-14935000D02*
X6715000Y-14965000D01*
X6715000Y-14935000D02*
X6685000Y-14965000D01*
X6785000Y-5385000D02*
X6815000Y-5415000D01*
X6815000Y-5385000D02*
X6785000Y-5415000D01*
X6785000Y-5485000D02*
X6815000Y-5515000D01*
X6815000Y-5485000D02*
X6785000Y-5515000D01*
X6785000Y-8085000D02*
X6815000Y-8115000D01*
X6815000Y-8085000D02*
X6785000Y-8115000D01*
X6785000Y-13435000D02*
X6815000Y-13465000D01*
X6815000Y-13435000D02*
X6785000Y-13465000D01*
X6835000Y-14135000D02*
X6865000Y-14165000D01*
X6865000Y-14135000D02*
X6835000Y-14165000D01*
X6885000Y-14735000D02*
X6915000Y-14765000D01*
X6915000Y-14735000D02*
X6885000Y-14765000D01*
X6895104Y-8024896D02*
X6925104Y-8054896D01*
X6925104Y-8024896D02*
X6895104Y-8054896D01*
X6908500Y-8708500D02*
X6938500Y-8738500D01*
X6938500Y-8708500D02*
X6908500Y-8738500D01*
X6935000Y-6335000D02*
X6965000Y-6365000D01*
X6965000Y-6335000D02*
X6935000Y-6365000D01*
X6935000Y-14035000D02*
X6965000Y-14065000D01*
X6965000Y-14035000D02*
X6935000Y-14065000D01*
X6935000Y-14285000D02*
X6965000Y-14315000D01*
X6965000Y-14285000D02*
X6935000Y-14315000D01*
X6985000Y-14385000D02*
X7015000Y-14415000D01*
X7015000Y-14385000D02*
X6985000Y-14415000D01*
X7035000Y-6385000D02*
X7065000Y-6415000D01*
X7065000Y-6385000D02*
X7035000Y-6415000D01*
X7085000Y-5885000D02*
X7115000Y-5915000D01*
X7115000Y-5885000D02*
X7085000Y-5915000D01*
X7124896Y-13845104D02*
X7154896Y-13875104D01*
X7154896Y-13845104D02*
X7124896Y-13875104D01*
X7135000Y-14835000D02*
X7165000Y-14865000D01*
X7165000Y-14835000D02*
X7135000Y-14865000D01*
X7185000Y-14485000D02*
X7215000Y-14515000D01*
X7215000Y-14485000D02*
X7185000Y-14515000D01*
X7197500Y-13785000D02*
X7227500Y-13815000D01*
X7227500Y-13785000D02*
X7197500Y-13815000D01*
X7285000Y-13435000D02*
X7315000Y-13465000D01*
X7315000Y-13435000D02*
X7285000Y-13465000D01*
X7300200Y-8722600D02*
X7330200Y-8752600D01*
X7330200Y-8722600D02*
X7300200Y-8752600D01*
X7335000Y-5935000D02*
X7365000Y-5965000D01*
X7365000Y-5935000D02*
X7335000Y-5965000D01*
X7335000Y-7735000D02*
X7365000Y-7765000D01*
X7365000Y-7735000D02*
X7335000Y-7765000D01*
X7335000Y-15135000D02*
X7365000Y-15165000D01*
X7365000Y-15135000D02*
X7335000Y-15165000D01*
X7401800Y-8621000D02*
X7431800Y-8651000D01*
X7431800Y-8621000D02*
X7401800Y-8651000D01*
X7435000Y-7885000D02*
X7465000Y-7915000D01*
X7465000Y-7885000D02*
X7435000Y-7915000D01*
X7485000Y-5485000D02*
X7515000Y-5515000D01*
X7515000Y-5485000D02*
X7485000Y-5515000D01*
X7490806Y-6490806D02*
X7520806Y-6520806D01*
X7520806Y-6490806D02*
X7490806Y-6520806D01*
X7635000Y-6622500D02*
X7665000Y-6652500D01*
X7665000Y-6622500D02*
X7635000Y-6652500D01*
X7635000Y-6885000D02*
X7665000Y-6915000D01*
X7665000Y-6885000D02*
X7635000Y-6915000D01*
X7685000Y-5285000D02*
X7715000Y-5315000D01*
X7715000Y-5285000D02*
X7685000Y-5315000D01*
X7685000Y-6185000D02*
X7715000Y-6215000D01*
X7715000Y-6185000D02*
X7685000Y-6215000D01*
X7735000Y-5835000D02*
X7765000Y-5865000D01*
X7765000Y-5835000D02*
X7735000Y-5865000D01*
X7735000Y-6787344D02*
X7765000Y-6817344D01*
X7765000Y-6787344D02*
X7735000Y-6817344D01*
X7735000Y-7435000D02*
X7765000Y-7465000D01*
X7765000Y-7435000D02*
X7735000Y-7465000D01*
X7785000Y-5735000D02*
X7815000Y-5765000D01*
X7815000Y-5735000D02*
X7785000Y-5765000D01*
X7785000Y-6535000D02*
X7815000Y-6565000D01*
X7815000Y-6535000D02*
X7785000Y-6565000D01*
X7785000Y-6885000D02*
X7815000Y-6915000D01*
X7815000Y-6885000D02*
X7785000Y-6915000D01*
X7785000Y-7685000D02*
X7815000Y-7715000D01*
X7815000Y-7685000D02*
X7785000Y-7715000D01*
X7832387Y-6622500D02*
X7862387Y-6652500D01*
X7862387Y-6622500D02*
X7832387Y-6652500D01*
X7885000Y-6185000D02*
X7915000Y-6215000D01*
X7915000Y-6185000D02*
X7885000Y-6215000D01*
X7935000Y-5635000D02*
X7965000Y-5665000D01*
X7965000Y-5635000D02*
X7935000Y-5665000D01*
X7935000Y-6285000D02*
X7965000Y-6315000D01*
X7965000Y-6285000D02*
X7935000Y-6315000D01*
X7935000Y-9085000D02*
X7965000Y-9115000D01*
X7965000Y-9085000D02*
X7935000Y-9115000D01*
X7947500Y-6085000D02*
X7977500Y-6115000D01*
X7977500Y-6085000D02*
X7947500Y-6115000D01*
X7985000Y-13785000D02*
X8015000Y-13815000D01*
X8015000Y-13785000D02*
X7985000Y-13815000D01*
X8035000Y-5985000D02*
X8065000Y-6015000D01*
X8065000Y-5985000D02*
X8035000Y-6015000D01*
X8035000Y-13435000D02*
X8065000Y-13465000D01*
X8065000Y-13435000D02*
X8035000Y-13465000D01*
X8065806Y-14304194D02*
X8095806Y-14334194D01*
X8095806Y-14304194D02*
X8065806Y-14334194D01*
X8072944Y-14034556D02*
X8102944Y-14064556D01*
X8102944Y-14034556D02*
X8072944Y-14064556D01*
X8085000Y-5785000D02*
X8115000Y-5815000D01*
X8115000Y-5785000D02*
X8085000Y-5815000D01*
X8085000Y-9885000D02*
X8115000Y-9915000D01*
X8115000Y-9885000D02*
X8085000Y-9915000D01*
X8106195Y-6903144D02*
X8136195Y-6933144D01*
X8136195Y-6903144D02*
X8106195Y-6933144D01*
X8135000Y-13835000D02*
X8165000Y-13865000D01*
X8165000Y-13835000D02*
X8135000Y-13865000D01*
X8169929Y-6294690D02*
X8199929Y-6324690D01*
X8199929Y-6294690D02*
X8169929Y-6324690D01*
X8172500Y-6147056D02*
X8202500Y-6177056D01*
X8202500Y-6147056D02*
X8172500Y-6177056D01*
X8172500Y-7135000D02*
X8202500Y-7165000D01*
X8202500Y-7135000D02*
X8172500Y-7165000D01*
X8185000Y-5935000D02*
X8215000Y-5965000D01*
X8215000Y-5935000D02*
X8185000Y-5965000D01*
X8185000Y-6935000D02*
X8215000Y-6965000D01*
X8215000Y-6935000D02*
X8185000Y-6965000D01*
X8185000Y-14235000D02*
X8215000Y-14265000D01*
X8215000Y-14235000D02*
X8185000Y-14265000D01*
X8197500Y-6847500D02*
X8227500Y-6877500D01*
X8227500Y-6847500D02*
X8197500Y-6877500D01*
X8221136Y-7759103D02*
X8251136Y-7789103D01*
X8251136Y-7759103D02*
X8221136Y-7789103D01*
X8222771Y-7674119D02*
X8252771Y-7704119D01*
X8252771Y-7674119D02*
X8222771Y-7704119D01*
X8227748Y-5861531D02*
X8257748Y-5891531D01*
X8257748Y-5861531D02*
X8227748Y-5891531D01*
X8235000Y-6085000D02*
X8265000Y-6115000D01*
X8265000Y-6085000D02*
X8235000Y-6115000D01*
X8235000Y-6685000D02*
X8265000Y-6715000D01*
X8265000Y-6685000D02*
X8235000Y-6715000D01*
X8241232Y-6774613D02*
X8271232Y-6804613D01*
X8271232Y-6774613D02*
X8241232Y-6804613D01*
X8258385Y-7229998D02*
X8288385Y-7259998D01*
X8288385Y-7229998D02*
X8258385Y-7259998D01*
X8274896Y-7895104D02*
X8304896Y-7925104D01*
X8304896Y-7895104D02*
X8274896Y-7925104D01*
X8285000Y-6235000D02*
X8315000Y-6265000D01*
X8315000Y-6235000D02*
X8285000Y-6265000D01*
X8309579Y-7986355D02*
X8339579Y-8016355D01*
X8339579Y-7986355D02*
X8309579Y-8016355D01*
X8324898Y-7832118D02*
X8354898Y-7862118D01*
X8354898Y-7832118D02*
X8324898Y-7862118D01*
X8334273Y-5999450D02*
X8364273Y-6029450D01*
X8364273Y-5999450D02*
X8334273Y-6029450D01*
X8335000Y-5635000D02*
X8365000Y-5665000D01*
X8365000Y-5635000D02*
X8335000Y-5665000D01*
X8335000Y-8085000D02*
X8365000Y-8115000D01*
X8365000Y-8085000D02*
X8335000Y-8115000D01*
X8346838Y-6192365D02*
X8376838Y-6222365D01*
X8376838Y-6192365D02*
X8346838Y-6222365D01*
X8357335Y-7326046D02*
X8387335Y-7356046D01*
X8387335Y-7326046D02*
X8357335Y-7356046D01*
X8360000Y-6675381D02*
X8390000Y-6705381D01*
X8390000Y-6675381D02*
X8360000Y-6705381D01*
X8385000Y-7885000D02*
X8415000Y-7915000D01*
X8415000Y-7885000D02*
X8385000Y-7915000D01*
X8388892Y-6993608D02*
X8418892Y-7023608D01*
X8418892Y-6993608D02*
X8388892Y-7023608D01*
X8397500Y-6885000D02*
X8427500Y-6915000D01*
X8427500Y-6885000D02*
X8397500Y-6915000D01*
X8425310Y-6619929D02*
X8455310Y-6649929D01*
X8455310Y-6619929D02*
X8425310Y-6649929D01*
X8435000Y-6085000D02*
X8465000Y-6115000D01*
X8465000Y-6085000D02*
X8435000Y-6115000D01*
X8435000Y-6535000D02*
X8465000Y-6565000D01*
X8465000Y-6535000D02*
X8435000Y-6565000D01*
X8480728Y-6867889D02*
X8510728Y-6897889D01*
X8510728Y-6867889D02*
X8480728Y-6897889D01*
X8535000Y-6685000D02*
X8565000Y-6715000D01*
X8565000Y-6685000D02*
X8535000Y-6715000D01*
X8535000Y-14935000D02*
X8565000Y-14965000D01*
X8565000Y-14935000D02*
X8535000Y-14965000D01*
X8546350Y-7135000D02*
X8576350Y-7165000D01*
X8576350Y-7135000D02*
X8546350Y-7165000D01*
X8573650Y-6761861D02*
X8603650Y-6791861D01*
X8603650Y-6761861D02*
X8573650Y-6791861D01*
X8585000Y-6385000D02*
X8615000Y-6415000D01*
X8615000Y-6385000D02*
X8585000Y-6415000D01*
X8586546Y-7522500D02*
X8616546Y-7552500D01*
X8616546Y-7522500D02*
X8586546Y-7552500D01*
X8588286Y-7027794D02*
X8618286Y-7057794D01*
X8618286Y-7027794D02*
X8588286Y-7057794D01*
X8629782Y-6671993D02*
X8659782Y-6701993D01*
X8659782Y-6671993D02*
X8629782Y-6701993D01*
X8635000Y-5785000D02*
X8665000Y-5815000D01*
X8665000Y-5785000D02*
X8635000Y-5815000D01*
X8642326Y-7355564D02*
X8672326Y-7385564D01*
X8672326Y-7355564D02*
X8642326Y-7385564D01*
X8661885Y-6523496D02*
X8691885Y-6553496D01*
X8691885Y-6523496D02*
X8661885Y-6553496D01*
X8663206Y-7631838D02*
X8693206Y-7661838D01*
X8693206Y-7631838D02*
X8663206Y-7661838D01*
X8668760Y-6960441D02*
X8698760Y-6990441D01*
X8698760Y-6960441D02*
X8668760Y-6990441D01*
X8685000Y-12485000D02*
X8715000Y-12515000D01*
X8715000Y-12485000D02*
X8685000Y-12515000D01*
X8691365Y-6822500D02*
X8721365Y-6852500D01*
X8721365Y-6822500D02*
X8691365Y-6852500D01*
X8700129Y-7425545D02*
X8730129Y-7455545D01*
X8730129Y-7425545D02*
X8700129Y-7455545D01*
X8710698Y-6285000D02*
X8740698Y-6315000D01*
X8740698Y-6285000D02*
X8710698Y-6315000D01*
X8724284Y-6465778D02*
X8754284Y-6495778D01*
X8754284Y-6465778D02*
X8724284Y-6495778D01*
X8761001Y-7148500D02*
X8791001Y-7178500D01*
X8791001Y-7148500D02*
X8761001Y-7178500D01*
X8779060Y-7069344D02*
X8809060Y-7099344D01*
X8809060Y-7069344D02*
X8779060Y-7099344D01*
X8785000Y-6535000D02*
X8815000Y-6565000D01*
X8815000Y-6535000D02*
X8785000Y-6565000D01*
X8785000Y-13585000D02*
X8815000Y-13615000D01*
X8815000Y-13585000D02*
X8785000Y-13615000D01*
X8785000Y-13785000D02*
X8815000Y-13815000D01*
X8815000Y-13785000D02*
X8785000Y-13815000D01*
X8790511Y-8129489D02*
X8820511Y-8159489D01*
X8820511Y-8129489D02*
X8790511Y-8159489D01*
X8804194Y-7665806D02*
X8834194Y-7695806D01*
X8834194Y-7665806D02*
X8804194Y-7695806D01*
X8822030Y-6223253D02*
X8852030Y-6253253D01*
X8852030Y-6223253D02*
X8822030Y-6253253D01*
X8835000Y-6950000D02*
X8865000Y-6980000D01*
X8865000Y-6950000D02*
X8835000Y-6980000D01*
X8835000Y-13385000D02*
X8865000Y-13415000D01*
X8865000Y-13385000D02*
X8835000Y-13415000D01*
X8835000Y-14885000D02*
X8865000Y-14915000D01*
X8865000Y-14885000D02*
X8835000Y-14915000D01*
X8850456Y-6385000D02*
X8880456Y-6415000D01*
X8880456Y-6385000D02*
X8850456Y-6415000D01*
X8850561Y-7486383D02*
X8880561Y-7516383D01*
X8880561Y-7486383D02*
X8850561Y-7516383D01*
X8851498Y-7024871D02*
X8881498Y-7054871D01*
X8881498Y-7024871D02*
X8851498Y-7054871D01*
X8885000Y-8285000D02*
X8915000Y-8315000D01*
X8915000Y-8285000D02*
X8885000Y-8315000D01*
X8885000Y-8535000D02*
X8915000Y-8565000D01*
X8915000Y-8535000D02*
X8885000Y-8565000D01*
X8926250Y-12485000D02*
X8956250Y-12515000D01*
X8956250Y-12485000D02*
X8926250Y-12515000D01*
X8935000Y-7335000D02*
X8965000Y-7365000D01*
X8965000Y-7335000D02*
X8935000Y-7365000D01*
X8935000Y-13935000D02*
X8965000Y-13965000D01*
X8965000Y-13935000D02*
X8935000Y-13965000D01*
X8935425Y-6390180D02*
X8965425Y-6420180D01*
X8965425Y-6390180D02*
X8935425Y-6420180D01*
X8985000Y-5885000D02*
X9015000Y-5915000D01*
X9015000Y-5885000D02*
X8985000Y-5915000D01*
X8985000Y-14835000D02*
X9015000Y-14865000D01*
X9015000Y-14835000D02*
X8985000Y-14865000D01*
X9018520Y-6399597D02*
X9048520Y-6429597D01*
X9048520Y-6399597D02*
X9018520Y-6429597D01*
X9035000Y-6685000D02*
X9065000Y-6715000D01*
X9065000Y-6685000D02*
X9035000Y-6715000D01*
X9035000Y-7350000D02*
X9065000Y-7380000D01*
X9065000Y-7350000D02*
X9035000Y-7380000D01*
X9035000Y-7435000D02*
X9065000Y-7465000D01*
X9065000Y-7435000D02*
X9035000Y-7465000D01*
X9061739Y-5784963D02*
X9091739Y-5814963D01*
X9091739Y-5784963D02*
X9061739Y-5814963D01*
X9085000Y-7035000D02*
X9115000Y-7065000D01*
X9115000Y-7035000D02*
X9085000Y-7065000D01*
X9098350Y-6428790D02*
X9128350Y-6458790D01*
X9128350Y-6428790D02*
X9098350Y-6458790D01*
X9121761Y-8460739D02*
X9151761Y-8490739D01*
X9151761Y-8460739D02*
X9121761Y-8490739D01*
X9126250Y-12935000D02*
X9156250Y-12965000D01*
X9156250Y-12935000D02*
X9126250Y-12965000D01*
X9135000Y-8135000D02*
X9165000Y-8165000D01*
X9165000Y-8135000D02*
X9135000Y-8165000D01*
X9135000Y-14485000D02*
X9165000Y-14515000D01*
X9165000Y-14485000D02*
X9135000Y-14515000D01*
X9174896Y-5924896D02*
X9204896Y-5954896D01*
X9204896Y-5924896D02*
X9174896Y-5954896D01*
X9197500Y-6835000D02*
X9227500Y-6865000D01*
X9227500Y-6835000D02*
X9197500Y-6865000D01*
X9199092Y-6447500D02*
X9229092Y-6477500D01*
X9229092Y-6447500D02*
X9199092Y-6477500D01*
X9239285Y-5973107D02*
X9269285Y-6003107D01*
X9269285Y-5973107D02*
X9239285Y-6003107D01*
X9254194Y-7454194D02*
X9284194Y-7484194D01*
X9284194Y-7454194D02*
X9254194Y-7484194D01*
X9260000Y-5890669D02*
X9290000Y-5920669D01*
X9290000Y-5890669D02*
X9260000Y-5920669D01*
X9277461Y-7892539D02*
X9307461Y-7922539D01*
X9307461Y-7892539D02*
X9277461Y-7922539D01*
X9285000Y-6035000D02*
X9315000Y-6065000D01*
X9315000Y-6035000D02*
X9285000Y-6065000D01*
X9285000Y-6735000D02*
X9315000Y-6765000D01*
X9315000Y-6735000D02*
X9285000Y-6765000D01*
X9285000Y-14985000D02*
X9315000Y-15015000D01*
X9315000Y-14985000D02*
X9285000Y-15015000D01*
X9335000Y-5385000D02*
X9365000Y-5415000D01*
X9365000Y-5385000D02*
X9335000Y-5415000D01*
X9335000Y-6647500D02*
X9365000Y-6677500D01*
X9365000Y-6647500D02*
X9335000Y-6677500D01*
X9336546Y-8248157D02*
X9366546Y-8278157D01*
X9366546Y-8248157D02*
X9336546Y-8278157D01*
X9373490Y-7722500D02*
X9403490Y-7752500D01*
X9403490Y-7722500D02*
X9373490Y-7752500D01*
X9385000Y-5785002D02*
X9415000Y-5815002D01*
X9415000Y-5785002D02*
X9385000Y-5815002D01*
X9435000Y-6066303D02*
X9465000Y-6096303D01*
X9465000Y-6066303D02*
X9435000Y-6096303D01*
X9447944Y-8072500D02*
X9477944Y-8102500D01*
X9477944Y-8072500D02*
X9447944Y-8102500D01*
X9462567Y-7952514D02*
X9492567Y-7982514D01*
X9492567Y-7952514D02*
X9462567Y-7982514D01*
X9485000Y-5385000D02*
X9515000Y-5415000D01*
X9515000Y-5385000D02*
X9485000Y-5415000D01*
X9485000Y-5685000D02*
X9515000Y-5715000D01*
X9515000Y-5685000D02*
X9485000Y-5715000D01*
X9485000Y-6885000D02*
X9515000Y-6915000D01*
X9515000Y-6885000D02*
X9485000Y-6915000D01*
X9535000Y-8085000D02*
X9565000Y-8115000D01*
X9565000Y-8085000D02*
X9535000Y-8115000D01*
X9539405Y-7927500D02*
X9569405Y-7957500D01*
X9569405Y-7927500D02*
X9539405Y-7957500D01*
X9585000Y-14135000D02*
X9615000Y-14165000D01*
X9615000Y-14135000D02*
X9585000Y-14165000D01*
X9635000Y-7835000D02*
X9665000Y-7865000D01*
X9665000Y-7835000D02*
X9635000Y-7865000D01*
X9635333Y-7508341D02*
X9665333Y-7538341D01*
X9665333Y-7508341D02*
X9635333Y-7538341D01*
X9685000Y-6185000D02*
X9715000Y-6215000D01*
X9715000Y-6185000D02*
X9685000Y-6215000D01*
X9703093Y-8057721D02*
X9733093Y-8087721D01*
X9733093Y-8057721D02*
X9703093Y-8087721D01*
X9724896Y-8174896D02*
X9754896Y-8204896D01*
X9754896Y-8174896D02*
X9724896Y-8204896D01*
X9727681Y-7839292D02*
X9757681Y-7869292D01*
X9757681Y-7839292D02*
X9727681Y-7869292D01*
X9735000Y-8585000D02*
X9765000Y-8615000D01*
X9765000Y-8585000D02*
X9735000Y-8615000D01*
X9760444Y-8922056D02*
X9790444Y-8952056D01*
X9790444Y-8922056D02*
X9760444Y-8952056D01*
X9775381Y-7560000D02*
X9805381Y-7590000D01*
X9805381Y-7560000D02*
X9775381Y-7590000D01*
X9785000Y-6135000D02*
X9815000Y-6165000D01*
X9815000Y-6135000D02*
X9785000Y-6165000D01*
X9785000Y-8035000D02*
X9815000Y-8065000D01*
X9815000Y-8035000D02*
X9785000Y-8065000D01*
X9785000Y-8235000D02*
X9815000Y-8265000D01*
X9815000Y-8235000D02*
X9785000Y-8265000D01*
X9785000Y-11885000D02*
X9815000Y-11915000D01*
X9815000Y-11885000D02*
X9785000Y-11915000D01*
X9822500Y-13592878D02*
X9852500Y-13622878D01*
X9852500Y-13592878D02*
X9822500Y-13622878D01*
X9835000Y-6285000D02*
X9865000Y-6315000D01*
X9865000Y-6285000D02*
X9835000Y-6315000D01*
X9835000Y-8735000D02*
X9865000Y-8765000D01*
X9865000Y-8735000D02*
X9835000Y-8765000D01*
X9845104Y-8174896D02*
X9875104Y-8204896D01*
X9875104Y-8174896D02*
X9845104Y-8204896D01*
X9870000Y-8035000D02*
X9900000Y-8065000D01*
X9900000Y-8035000D02*
X9870000Y-8065000D01*
X9885000Y-6623469D02*
X9915000Y-6653469D01*
X9915000Y-6623469D02*
X9885000Y-6653469D01*
X9935000Y-7322500D02*
X9965000Y-7352500D01*
X9965000Y-7322500D02*
X9935000Y-7352500D01*
X10035000Y-8035000D02*
X10065000Y-8065000D01*
X10065000Y-8035000D02*
X10035000Y-8065000D01*
X10035000Y-8935000D02*
X10065000Y-8965000D01*
X10065000Y-8935000D02*
X10035000Y-8965000D01*
X10035000Y-9235000D02*
X10065000Y-9265000D01*
X10065000Y-9235000D02*
X10035000Y-9265000D01*
X10260000Y-9360000D02*
X10290000Y-9390000D01*
X10290000Y-9360000D02*
X10260000Y-9390000D01*
X10285000Y-14085000D02*
X10315000Y-14115000D01*
X10315000Y-14085000D02*
X10285000Y-14115000D01*
X10335000Y-5735000D02*
X10365000Y-5765000D01*
X10365000Y-5735000D02*
X10335000Y-5765000D01*
X10424400Y-8621000D02*
X10454400Y-8651000D01*
X10454400Y-8621000D02*
X10424400Y-8651000D01*
X10424400Y-8697200D02*
X10454400Y-8727200D01*
X10454400Y-8697200D02*
X10424400Y-8727200D01*
X10435000Y-7585000D02*
X10465000Y-7615000D01*
X10465000Y-7585000D02*
X10435000Y-7615000D01*
X10435000Y-14935000D02*
X10465000Y-14965000D01*
X10465000Y-14935000D02*
X10435000Y-14965000D01*
X10485000Y-5835000D02*
X10515000Y-5865000D01*
X10515000Y-5835000D02*
X10485000Y-5865000D01*
X10535000Y-14085000D02*
X10565000Y-14115000D01*
X10565000Y-14085000D02*
X10535000Y-14115000D01*
X10585000Y-5897500D02*
X10615000Y-5927500D01*
X10615000Y-5897500D02*
X10585000Y-5927500D01*
X10585000Y-6535000D02*
X10615000Y-6565000D01*
X10615000Y-6535000D02*
X10585000Y-6565000D01*
X10586990Y-7174544D02*
X10616990Y-7204544D01*
X10616990Y-7174544D02*
X10586990Y-7204544D01*
X10597500Y-6072500D02*
X10627500Y-6102500D01*
X10627500Y-6072500D02*
X10597500Y-6102500D01*
X10635000Y-14185000D02*
X10665000Y-14215000D01*
X10665000Y-14185000D02*
X10635000Y-14215000D01*
X10635000Y-15835000D02*
X10665000Y-15865000D01*
X10665000Y-15835000D02*
X10635000Y-15865000D01*
X10653000Y-8671800D02*
X10683000Y-8701800D01*
X10683000Y-8671800D02*
X10653000Y-8701800D01*
X10685000Y-7535000D02*
X10715000Y-7565000D01*
X10715000Y-7535000D02*
X10685000Y-7565000D01*
X10685000Y-8595600D02*
X10715000Y-8625600D01*
X10715000Y-8595600D02*
X10685000Y-8625600D01*
X10685000Y-14785000D02*
X10715000Y-14815000D01*
X10715000Y-14785000D02*
X10685000Y-14815000D01*
X10723519Y-6585131D02*
X10753519Y-6615131D01*
X10753519Y-6585131D02*
X10723519Y-6615131D01*
X10735000Y-5635000D02*
X10765000Y-5665000D01*
X10765000Y-5635000D02*
X10735000Y-5665000D01*
X10735000Y-7112500D02*
X10765000Y-7142500D01*
X10765000Y-7112500D02*
X10735000Y-7142500D01*
X10780000Y-7401800D02*
X10810000Y-7431800D01*
X10810000Y-7401800D02*
X10780000Y-7431800D01*
X10785000Y-6685000D02*
X10815000Y-6715000D01*
X10815000Y-6685000D02*
X10785000Y-6715000D01*
X10808097Y-6896486D02*
X10838097Y-6926486D01*
X10838097Y-6896486D02*
X10808097Y-6926486D01*
X10812625Y-7077868D02*
X10842625Y-7107868D01*
X10842625Y-7077868D02*
X10812625Y-7107868D01*
X10837466Y-7612990D02*
X10867466Y-7642990D01*
X10867466Y-7612990D02*
X10837466Y-7642990D01*
X10894757Y-7099762D02*
X10924757Y-7129762D01*
X10924757Y-7099762D02*
X10894757Y-7129762D01*
X10935000Y-5135000D02*
X10965000Y-5165000D01*
X10965000Y-5135000D02*
X10935000Y-5165000D01*
X10935000Y-7035000D02*
X10965000Y-7065000D01*
X10965000Y-7035000D02*
X10935000Y-7065000D01*
X10935000Y-7685000D02*
X10965000Y-7715000D01*
X10965000Y-7685000D02*
X10935000Y-7715000D01*
X10935000Y-14835000D02*
X10965000Y-14865000D01*
X10965000Y-14835000D02*
X10935000Y-14865000D01*
X10985000Y-6135000D02*
X11015000Y-6165000D01*
X11015000Y-6135000D02*
X10985000Y-6165000D01*
X11035000Y-6785000D02*
X11065000Y-6815000D01*
X11065000Y-6785000D02*
X11035000Y-6815000D01*
X11035000Y-7285000D02*
X11065000Y-7315000D01*
X11065000Y-7285000D02*
X11035000Y-7315000D01*
X11046875Y-6560112D02*
X11076875Y-6590112D01*
X11076875Y-6560112D02*
X11046875Y-6590112D01*
X11085000Y-8235000D02*
X11115000Y-8265000D01*
X11115000Y-8235000D02*
X11085000Y-8265000D01*
X11085000Y-14485000D02*
X11115000Y-14515000D01*
X11115000Y-14485000D02*
X11085000Y-14515000D01*
X11091934Y-7458282D02*
X11121934Y-7488282D01*
X11121934Y-7458282D02*
X11091934Y-7488282D01*
X11106577Y-6494068D02*
X11136577Y-6524068D01*
X11136577Y-6494068D02*
X11106577Y-6524068D01*
X11135000Y-6785000D02*
X11165000Y-6815000D01*
X11165000Y-6785000D02*
X11135000Y-6815000D01*
X11135000Y-7385000D02*
X11165000Y-7415000D01*
X11165000Y-7385000D02*
X11135000Y-7415000D01*
X11143460Y-7216757D02*
X11173460Y-7246757D01*
X11173460Y-7216757D02*
X11143460Y-7246757D01*
X11147912Y-7093118D02*
X11177912Y-7123118D01*
X11177912Y-7093118D02*
X11147912Y-7123118D01*
X11160000Y-6610000D02*
X11190000Y-6640000D01*
X11190000Y-6610000D02*
X11160000Y-6640000D01*
X11185000Y-15135000D02*
X11215000Y-15165000D01*
X11215000Y-15135000D02*
X11185000Y-15165000D01*
X11185000Y-15835000D02*
X11215000Y-15865000D01*
X11215000Y-15835000D02*
X11185000Y-15865000D01*
X11186400Y-6868400D02*
X11216400Y-6898400D01*
X11216400Y-6868400D02*
X11186400Y-6898400D01*
X11387514Y-6900470D02*
X11417514Y-6930470D01*
X11417514Y-6900470D02*
X11387514Y-6930470D01*
X11435000Y-6185000D02*
X11465000Y-6215000D01*
X11465000Y-6185000D02*
X11435000Y-6215000D01*
X11461662Y-6942028D02*
X11491662Y-6972028D01*
X11491662Y-6942028D02*
X11461662Y-6972028D01*
X11485000Y-5685000D02*
X11515000Y-5715000D01*
X11515000Y-5685000D02*
X11485000Y-5715000D01*
X11516600Y-7427200D02*
X11546600Y-7457200D01*
X11546600Y-7427200D02*
X11516600Y-7457200D01*
X11535000Y-7035000D02*
X11565000Y-7065000D01*
X11565000Y-7035000D02*
X11535000Y-7065000D01*
X11535000Y-7235000D02*
X11565000Y-7265000D01*
X11565000Y-7235000D02*
X11535000Y-7265000D01*
X11535000Y-7785000D02*
X11565000Y-7815000D01*
X11565000Y-7785000D02*
X11535000Y-7815000D01*
X11585000Y-6935000D02*
X11615000Y-6965000D01*
X11615000Y-6935000D02*
X11585000Y-6965000D01*
X11609370Y-7722242D02*
X11639370Y-7752242D01*
X11639370Y-7722242D02*
X11609370Y-7752242D01*
X11618200Y-7376400D02*
X11648200Y-7406400D01*
X11648200Y-7376400D02*
X11618200Y-7406400D01*
X11674896Y-6945104D02*
X11704896Y-6975104D01*
X11704896Y-6945104D02*
X11674896Y-6975104D01*
X11685000Y-6835000D02*
X11715000Y-6865000D01*
X11715000Y-6835000D02*
X11685000Y-6865000D01*
X11685000Y-7251500D02*
X11715000Y-7281500D01*
X11715000Y-7251500D02*
X11685000Y-7281500D01*
X11694400Y-7336500D02*
X11724400Y-7366500D01*
X11724400Y-7336500D02*
X11694400Y-7366500D01*
X11785000Y-6835000D02*
X11815000Y-6865000D01*
X11815000Y-6835000D02*
X11785000Y-6865000D01*
X11785000Y-7314000D02*
X11815000Y-7344000D01*
X11815000Y-7314000D02*
X11785000Y-7344000D01*
X11785000Y-7585000D02*
X11815000Y-7615000D01*
X11815000Y-7585000D02*
X11785000Y-7615000D01*
X11795050Y-7895050D02*
X11825050Y-7925050D01*
X11825050Y-7895050D02*
X11795050Y-7925050D01*
X11872200Y-7732000D02*
X11902200Y-7762000D01*
X11902200Y-7732000D02*
X11872200Y-7762000D01*
X11885000Y-6785000D02*
X11915000Y-6815000D01*
X11915000Y-6785000D02*
X11885000Y-6815000D01*
X11885000Y-13535000D02*
X11915000Y-13565000D01*
X11915000Y-13535000D02*
X11885000Y-13565000D01*
X12218459Y-6399747D02*
X12248459Y-6429747D01*
X12248459Y-6399747D02*
X12218459Y-6429747D01*
X12235000Y-5935000D02*
X12265000Y-5965000D01*
X12265000Y-5935000D02*
X12235000Y-5965000D01*
X12235000Y-6135000D02*
X12265000Y-6165000D01*
X12265000Y-6135000D02*
X12235000Y-6165000D01*
X12235000Y-6235000D02*
X12265000Y-6265000D01*
X12265000Y-6235000D02*
X12235000Y-6265000D01*
X12285000Y-7785000D02*
X12315000Y-7815000D01*
X12315000Y-7785000D02*
X12285000Y-7815000D01*
X12285000Y-14135000D02*
X12315000Y-14165000D01*
X12315000Y-14135000D02*
X12285000Y-14165000D01*
X12335000Y-6485000D02*
X12365000Y-6515000D01*
X12365000Y-6485000D02*
X12335000Y-6515000D01*
X12385000Y-14135000D02*
X12415000Y-14165000D01*
X12415000Y-14135000D02*
X12385000Y-14165000D01*
X12435000Y-14935000D02*
X12465000Y-14965000D01*
X12465000Y-14935000D02*
X12435000Y-14965000D01*
X12485000Y-6535000D02*
X12515000Y-6565000D01*
X12515000Y-6535000D02*
X12485000Y-6565000D01*
X12485000Y-6685000D02*
X12515000Y-6715000D01*
X12515000Y-6685000D02*
X12485000Y-6715000D01*
X12485000Y-7085000D02*
X12515000Y-7115000D01*
X12515000Y-7085000D02*
X12485000Y-7115000D01*
X12485000Y-7485000D02*
X12515000Y-7515000D01*
X12515000Y-7485000D02*
X12485000Y-7515000D01*
X12585000Y-14885000D02*
X12615000Y-14915000D01*
X12615000Y-14885000D02*
X12585000Y-14915000D01*
X12685000Y-6347500D02*
X12715000Y-6377500D01*
X12715000Y-6347500D02*
X12685000Y-6377500D01*
X12835000Y-6335000D02*
X12865000Y-6365000D01*
X12865000Y-6335000D02*
X12835000Y-6365000D01*
X12835000Y-14885000D02*
X12865000Y-14915000D01*
X12865000Y-14885000D02*
X12835000Y-14915000D01*
X12935000Y-14535000D02*
X12965000Y-14565000D01*
X12965000Y-14535000D02*
X12935000Y-14565000D01*
X12985000Y-15335000D02*
X13015000Y-15365000D01*
X13015000Y-15335000D02*
X12985000Y-15365000D01*
X13035000Y-15235000D02*
X13065000Y-15265000D01*
X13065000Y-15235000D02*
X13035000Y-15265000D01*
X13310000Y-8535000D02*
X13340000Y-8565000D01*
X13340000Y-8535000D02*
X13310000Y-8565000D01*
X4670000Y-5750000D02*
G75*
G02*
X4630000Y-5750000I-20000J0D01*
G01*
X4630000Y-5750000D02*
G75*
G02*
X4670000Y-5750000I20000J0D01*
G01*
X4670000Y-6950000D02*
G75*
G02*
X4630000Y-6950000I-20000J0D01*
G01*
X4630000Y-6950000D02*
G75*
G02*
X4670000Y-6950000I20000J0D01*
G01*
X4670000Y-8700000D02*
G75*
G02*
X4630000Y-8700000I-20000J0D01*
G01*
X4630000Y-8700000D02*
G75*
G02*
X4670000Y-8700000I20000J0D01*
G01*
X4670000Y-10350000D02*
G75*
G02*
X4630000Y-10350000I-20000J0D01*
G01*
X4630000Y-10350000D02*
G75*
G02*
X4670000Y-10350000I20000J0D01*
G01*
X4670000Y-12250000D02*
G75*
G02*
X4630000Y-12250000I-20000J0D01*
G01*
X4630000Y-12250000D02*
G75*
G02*
X4670000Y-12250000I20000J0D01*
G01*
X4670000Y-13650000D02*
G75*
G02*
X4630000Y-13650000I-20000J0D01*
G01*
X4630000Y-13650000D02*
G75*
G02*
X4670000Y-13650000I20000J0D01*
G01*
X4720000Y-14000001D02*
G75*
G02*
X4680000Y-14000001I-20000J0D01*
G01*
X4680000Y-14000001D02*
G75*
G02*
X4720000Y-14000001I20000J0D01*
G01*
X4920000Y-15050000D02*
G75*
G02*
X4880000Y-15050000I-20000J0D01*
G01*
X4880000Y-15050000D02*
G75*
G02*
X4920000Y-15050000I20000J0D01*
G01*
X5070000Y-15250000D02*
G75*
G02*
X5030000Y-15250000I-20000J0D01*
G01*
X5030000Y-15250000D02*
G75*
G02*
X5070000Y-15250000I20000J0D01*
G01*
X5120000Y-6250000D02*
G75*
G02*
X5080000Y-6250000I-20000J0D01*
G01*
X5080000Y-6250000D02*
G75*
G02*
X5120000Y-6250000I20000J0D01*
G01*
X5120000Y-7650000D02*
G75*
G02*
X5080000Y-7650000I-20000J0D01*
G01*
X5080000Y-7650000D02*
G75*
G02*
X5120000Y-7650000I20000J0D01*
G01*
X5120000Y-9550000D02*
G75*
G02*
X5080000Y-9550000I-20000J0D01*
G01*
X5080000Y-9550000D02*
G75*
G02*
X5120000Y-9550000I20000J0D01*
G01*
X5120000Y-11300000D02*
G75*
G02*
X5080000Y-11300000I-20000J0D01*
G01*
X5080000Y-11300000D02*
G75*
G02*
X5120000Y-11300000I20000J0D01*
G01*
X5120000Y-12700000D02*
G75*
G02*
X5080000Y-12700000I-20000J0D01*
G01*
X5080000Y-12700000D02*
G75*
G02*
X5120000Y-12700000I20000J0D01*
G01*
X5120000Y-13800000D02*
G75*
G02*
X5080000Y-13800000I-20000J0D01*
G01*
X5080000Y-13800000D02*
G75*
G02*
X5120000Y-13800000I20000J0D01*
G01*
X5170000Y-14050000D02*
G75*
G02*
X5130000Y-14050000I-20000J0D01*
G01*
X5130000Y-14050000D02*
G75*
G02*
X5170000Y-14050000I20000J0D01*
G01*
X5370000Y-4750000D02*
G75*
G02*
X5330000Y-4750000I-20000J0D01*
G01*
X5330000Y-4750000D02*
G75*
G02*
X5370000Y-4750000I20000J0D01*
G01*
X5420000Y-15350000D02*
G75*
G02*
X5380000Y-15350000I-20000J0D01*
G01*
X5380000Y-15350000D02*
G75*
G02*
X5420000Y-15350000I20000J0D01*
G01*
X5470000Y-15750000D02*
G75*
G02*
X5430000Y-15750000I-20000J0D01*
G01*
X5430000Y-15750000D02*
G75*
G02*
X5470000Y-15750000I20000J0D01*
G01*
X5570000Y-14150000D02*
G75*
G02*
X5530000Y-14150000I-20000J0D01*
G01*
X5530000Y-14150000D02*
G75*
G02*
X5570000Y-14150000I20000J0D01*
G01*
X5720000Y-5650000D02*
G75*
G02*
X5680000Y-5650000I-20000J0D01*
G01*
X5680000Y-5650000D02*
G75*
G02*
X5720000Y-5650000I20000J0D01*
G01*
X5770000Y-13750000D02*
G75*
G02*
X5730000Y-13750000I-20000J0D01*
G01*
X5730000Y-13750000D02*
G75*
G02*
X5770000Y-13750000I20000J0D01*
G01*
X5770000Y-14850000D02*
G75*
G02*
X5730000Y-14850000I-20000J0D01*
G01*
X5730000Y-14850000D02*
G75*
G02*
X5770000Y-14850000I20000J0D01*
G01*
X5920000Y-9050000D02*
G75*
G02*
X5880000Y-9050000I-20000J0D01*
G01*
X5880000Y-9050000D02*
G75*
G02*
X5920000Y-9050000I20000J0D01*
G01*
X5920000Y-9900000D02*
G75*
G02*
X5880000Y-9900000I-20000J0D01*
G01*
X5880000Y-9900000D02*
G75*
G02*
X5920000Y-9900000I20000J0D01*
G01*
X5920000Y-11000000D02*
G75*
G02*
X5880000Y-11000000I-20000J0D01*
G01*
X5880000Y-11000000D02*
G75*
G02*
X5920000Y-11000000I20000J0D01*
G01*
X5920000Y-14400000D02*
G75*
G02*
X5880000Y-14400000I-20000J0D01*
G01*
X5880000Y-14400000D02*
G75*
G02*
X5920000Y-14400000I20000J0D01*
G01*
X6070000Y-12850000D02*
G75*
G02*
X6030000Y-12850000I-20000J0D01*
G01*
X6030000Y-12850000D02*
G75*
G02*
X6070000Y-12850000I20000J0D01*
G01*
X6120000Y-4700000D02*
G75*
G02*
X6080000Y-4700000I-20000J0D01*
G01*
X6080000Y-4700000D02*
G75*
G02*
X6120000Y-4700000I20000J0D01*
G01*
X6170000Y-4000000D02*
G75*
G02*
X6130000Y-4000000I-20000J0D01*
G01*
X6130000Y-4000000D02*
G75*
G02*
X6170000Y-4000000I20000J0D01*
G01*
X6170000Y-8550000D02*
G75*
G02*
X6130000Y-8550000I-20000J0D01*
G01*
X6130000Y-8550000D02*
G75*
G02*
X6170000Y-8550000I20000J0D01*
G01*
X6220000Y-14300000D02*
G75*
G02*
X6180000Y-14300000I-20000J0D01*
G01*
X6180000Y-14300000D02*
G75*
G02*
X6220000Y-14300000I20000J0D01*
G01*
X6220000Y-15200000D02*
G75*
G02*
X6180000Y-15200000I-20000J0D01*
G01*
X6180000Y-15200000D02*
G75*
G02*
X6220000Y-15200000I20000J0D01*
G01*
X6220000Y-15800000D02*
G75*
G02*
X6180000Y-15800000I-20000J0D01*
G01*
X6180000Y-15800000D02*
G75*
G02*
X6220000Y-15800000I20000J0D01*
G01*
X6370000Y-8150000D02*
G75*
G02*
X6330000Y-8150000I-20000J0D01*
G01*
X6330000Y-8150000D02*
G75*
G02*
X6370000Y-8150000I20000J0D01*
G01*
X6470000Y-12150000D02*
G75*
G02*
X6430000Y-12150000I-20000J0D01*
G01*
X6430000Y-12150000D02*
G75*
G02*
X6470000Y-12150000I20000J0D01*
G01*
X6670000Y-14600000D02*
G75*
G02*
X6630000Y-14600000I-20000J0D01*
G01*
X6630000Y-14600000D02*
G75*
G02*
X6670000Y-14600000I20000J0D01*
G01*
X6720000Y-7050000D02*
G75*
G02*
X6680000Y-7050000I-20000J0D01*
G01*
X6680000Y-7050000D02*
G75*
G02*
X6720000Y-7050000I20000J0D01*
G01*
X6770000Y-4050000D02*
G75*
G02*
X6730000Y-4050000I-20000J0D01*
G01*
X6730000Y-4050000D02*
G75*
G02*
X6770000Y-4050000I20000J0D01*
G01*
X6770000Y-14000000D02*
G75*
G02*
X6730000Y-14000000I-20000J0D01*
G01*
X6730000Y-14000000D02*
G75*
G02*
X6770000Y-14000000I20000J0D01*
G01*
X6820000Y-15050000D02*
G75*
G02*
X6780000Y-15050000I-20000J0D01*
G01*
X6780000Y-15050000D02*
G75*
G02*
X6820000Y-15050000I20000J0D01*
G01*
X6820000Y-15800000D02*
G75*
G02*
X6780000Y-15800000I-20000J0D01*
G01*
X6780000Y-15800000D02*
G75*
G02*
X6820000Y-15800000I20000J0D01*
G01*
X6920000Y-7750000D02*
G75*
G02*
X6880000Y-7750000I-20000J0D01*
G01*
X6880000Y-7750000D02*
G75*
G02*
X6920000Y-7750000I20000J0D01*
G01*
X6920000Y-15300000D02*
G75*
G02*
X6880000Y-15300000I-20000J0D01*
G01*
X6880000Y-15300000D02*
G75*
G02*
X6920000Y-15300000I20000J0D01*
G01*
X7220000Y-11100000D02*
G75*
G02*
X7180000Y-11100000I-20000J0D01*
G01*
X7180000Y-11100000D02*
G75*
G02*
X7220000Y-11100000I20000J0D01*
G01*
X7220000Y-14050000D02*
G75*
G02*
X7180000Y-14050000I-20000J0D01*
G01*
X7180000Y-14050000D02*
G75*
G02*
X7220000Y-14050000I20000J0D01*
G01*
X7270000Y-14250000D02*
G75*
G02*
X7230000Y-14250000I-20000J0D01*
G01*
X7230000Y-14250000D02*
G75*
G02*
X7270000Y-14250000I20000J0D01*
G01*
X7270000Y-15300000D02*
G75*
G02*
X7230000Y-15300000I-20000J0D01*
G01*
X7230000Y-15300000D02*
G75*
G02*
X7270000Y-15300000I20000J0D01*
G01*
X7320000Y-4050000D02*
G75*
G02*
X7280000Y-4050000I-20000J0D01*
G01*
X7280000Y-4050000D02*
G75*
G02*
X7320000Y-4050000I20000J0D01*
G01*
X7370000Y-15800000D02*
G75*
G02*
X7330000Y-15800000I-20000J0D01*
G01*
X7330000Y-15800000D02*
G75*
G02*
X7370000Y-15800000I20000J0D01*
G01*
X7420000Y-14150000D02*
G75*
G02*
X7380000Y-14150000I-20000J0D01*
G01*
X7380000Y-14150000D02*
G75*
G02*
X7420000Y-14150000I20000J0D01*
G01*
X7520000Y-4850000D02*
G75*
G02*
X7480000Y-4850000I-20000J0D01*
G01*
X7480000Y-4850000D02*
G75*
G02*
X7520000Y-4850000I20000J0D01*
G01*
X7570000Y-7400000D02*
G75*
G02*
X7530000Y-7400000I-20000J0D01*
G01*
X7530000Y-7400000D02*
G75*
G02*
X7570000Y-7400000I20000J0D01*
G01*
X7620000Y-6800000D02*
G75*
G02*
X7580000Y-6800000I-20000J0D01*
G01*
X7580000Y-6800000D02*
G75*
G02*
X7620000Y-6800000I20000J0D01*
G01*
X7620000Y-7800000D02*
G75*
G02*
X7580000Y-7800000I-20000J0D01*
G01*
X7580000Y-7800000D02*
G75*
G02*
X7620000Y-7800000I20000J0D01*
G01*
X7620000Y-14850000D02*
G75*
G02*
X7580000Y-14850000I-20000J0D01*
G01*
X7580000Y-14850000D02*
G75*
G02*
X7620000Y-14850000I20000J0D01*
G01*
X7720000Y-4000000D02*
G75*
G02*
X7680000Y-4000000I-20000J0D01*
G01*
X7680000Y-4000000D02*
G75*
G02*
X7720000Y-4000000I20000J0D01*
G01*
X7770000Y-11550000D02*
G75*
G02*
X7730000Y-11550000I-20000J0D01*
G01*
X7730000Y-11550000D02*
G75*
G02*
X7770000Y-11550000I20000J0D01*
G01*
X8020000Y-4350000D02*
G75*
G02*
X7980000Y-4350000I-20000J0D01*
G01*
X7980000Y-4350000D02*
G75*
G02*
X8020000Y-4350000I20000J0D01*
G01*
X8070000Y-10250000D02*
G75*
G02*
X8030000Y-10250000I-20000J0D01*
G01*
X8030000Y-10250000D02*
G75*
G02*
X8070000Y-10250000I20000J0D01*
G01*
X8070000Y-14850000D02*
G75*
G02*
X8030000Y-14850000I-20000J0D01*
G01*
X8030000Y-14850000D02*
G75*
G02*
X8070000Y-14850000I20000J0D01*
G01*
X8186086Y-13987154D02*
G75*
G02*
X8146086Y-13987154I-20000J0D01*
G01*
X8146086Y-13987154D02*
G75*
G02*
X8186086Y-13987154I20000J0D01*
G01*
X8370000Y-14200000D02*
G75*
G02*
X8330000Y-14200000I-20000J0D01*
G01*
X8330000Y-14200000D02*
G75*
G02*
X8370000Y-14200000I20000J0D01*
G01*
X8420000Y-10900000D02*
G75*
G02*
X8380000Y-10900000I-20000J0D01*
G01*
X8380000Y-10900000D02*
G75*
G02*
X8420000Y-10900000I20000J0D01*
G01*
X8470000Y-14000000D02*
G75*
G02*
X8430000Y-14000000I-20000J0D01*
G01*
X8430000Y-14000000D02*
G75*
G02*
X8470000Y-14000000I20000J0D01*
G01*
X8520000Y-4400000D02*
G75*
G02*
X8480000Y-4400000I-20000J0D01*
G01*
X8480000Y-4400000D02*
G75*
G02*
X8520000Y-4400000I20000J0D01*
G01*
X8570000Y-15850000D02*
G75*
G02*
X8530000Y-15850000I-20000J0D01*
G01*
X8530000Y-15850000D02*
G75*
G02*
X8570000Y-15850000I20000J0D01*
G01*
X8620000Y-5100000D02*
G75*
G02*
X8580000Y-5100000I-20000J0D01*
G01*
X8580000Y-5100000D02*
G75*
G02*
X8620000Y-5100000I20000J0D01*
G01*
X8670000Y-14350000D02*
G75*
G02*
X8630000Y-14350000I-20000J0D01*
G01*
X8630000Y-14350000D02*
G75*
G02*
X8670000Y-14350000I20000J0D01*
G01*
X8670000Y-14850000D02*
G75*
G02*
X8630000Y-14850000I-20000J0D01*
G01*
X8630000Y-14850000D02*
G75*
G02*
X8670000Y-14850000I20000J0D01*
G01*
X8770000Y-5350000D02*
G75*
G02*
X8730000Y-5350000I-20000J0D01*
G01*
X8730000Y-5350000D02*
G75*
G02*
X8770000Y-5350000I20000J0D01*
G01*
X8870000Y-15250000D02*
G75*
G02*
X8830000Y-15250000I-20000J0D01*
G01*
X8830000Y-15250000D02*
G75*
G02*
X8870000Y-15250000I20000J0D01*
G01*
X8970000Y-11950000D02*
G75*
G02*
X8930000Y-11950000I-20000J0D01*
G01*
X8930000Y-11950000D02*
G75*
G02*
X8970000Y-11950000I20000J0D01*
G01*
X8970000Y-14200000D02*
G75*
G02*
X8930000Y-14200000I-20000J0D01*
G01*
X8930000Y-14200000D02*
G75*
G02*
X8970000Y-14200000I20000J0D01*
G01*
X9010704Y-5741130D02*
G75*
G02*
X8970704Y-5741130I-20000J0D01*
G01*
X8970704Y-5741130D02*
G75*
G02*
X9010704Y-5741130I20000J0D01*
G01*
X9120000Y-4950000D02*
G75*
G02*
X9080000Y-4950000I-20000J0D01*
G01*
X9080000Y-4950000D02*
G75*
G02*
X9120000Y-4950000I20000J0D01*
G01*
X9120000Y-15400000D02*
G75*
G02*
X9080000Y-15400000I-20000J0D01*
G01*
X9080000Y-15400000D02*
G75*
G02*
X9120000Y-15400000I20000J0D01*
G01*
X9220000Y-12500000D02*
G75*
G02*
X9180000Y-12500000I-20000J0D01*
G01*
X9180000Y-12500000D02*
G75*
G02*
X9220000Y-12500000I20000J0D01*
G01*
X9220000Y-15750000D02*
G75*
G02*
X9180000Y-15750000I-20000J0D01*
G01*
X9180000Y-15750000D02*
G75*
G02*
X9220000Y-15750000I20000J0D01*
G01*
X9263274Y-5722463D02*
G75*
G02*
X9223274Y-5722463I-20000J0D01*
G01*
X9223274Y-5722463D02*
G75*
G02*
X9263274Y-5722463I20000J0D01*
G01*
X9270000Y-4100000D02*
G75*
G02*
X9230000Y-4100000I-20000J0D01*
G01*
X9230000Y-4100000D02*
G75*
G02*
X9270000Y-4100000I20000J0D01*
G01*
X9270000Y-10450000D02*
G75*
G02*
X9230000Y-10450000I-20000J0D01*
G01*
X9230000Y-10450000D02*
G75*
G02*
X9270000Y-10450000I20000J0D01*
G01*
X9270000Y-11950000D02*
G75*
G02*
X9230000Y-11950000I-20000J0D01*
G01*
X9230000Y-11950000D02*
G75*
G02*
X9270000Y-11950000I20000J0D01*
G01*
X9470000Y-14000000D02*
G75*
G02*
X9430000Y-14000000I-20000J0D01*
G01*
X9430000Y-14000000D02*
G75*
G02*
X9470000Y-14000000I20000J0D01*
G01*
X9520000Y-14850000D02*
G75*
G02*
X9480000Y-14850000I-20000J0D01*
G01*
X9480000Y-14850000D02*
G75*
G02*
X9520000Y-14850000I20000J0D01*
G01*
X9570000Y-13250000D02*
G75*
G02*
X9530000Y-13250000I-20000J0D01*
G01*
X9530000Y-13250000D02*
G75*
G02*
X9570000Y-13250000I20000J0D01*
G01*
X9620000Y-12500000D02*
G75*
G02*
X9580000Y-12500000I-20000J0D01*
G01*
X9580000Y-12500000D02*
G75*
G02*
X9620000Y-12500000I20000J0D01*
G01*
X9670000Y-5300000D02*
G75*
G02*
X9630000Y-5300000I-20000J0D01*
G01*
X9630000Y-5300000D02*
G75*
G02*
X9670000Y-5300000I20000J0D01*
G01*
X9670000Y-10300000D02*
G75*
G02*
X9630000Y-10300000I-20000J0D01*
G01*
X9630000Y-10300000D02*
G75*
G02*
X9670000Y-10300000I20000J0D01*
G01*
X9770000Y-12250000D02*
G75*
G02*
X9730000Y-12250000I-20000J0D01*
G01*
X9730000Y-12250000D02*
G75*
G02*
X9770000Y-12250000I20000J0D01*
G01*
X9870000Y-14000000D02*
G75*
G02*
X9830000Y-14000000I-20000J0D01*
G01*
X9830000Y-14000000D02*
G75*
G02*
X9870000Y-14000000I20000J0D01*
G01*
X9920000Y-15200000D02*
G75*
G02*
X9880000Y-15200000I-20000J0D01*
G01*
X9880000Y-15200000D02*
G75*
G02*
X9920000Y-15200000I20000J0D01*
G01*
X10070000Y-4500000D02*
G75*
G02*
X10030000Y-4500000I-20000J0D01*
G01*
X10030000Y-4500000D02*
G75*
G02*
X10070000Y-4500000I20000J0D01*
G01*
X10120000Y-5300000D02*
G75*
G02*
X10080000Y-5300000I-20000J0D01*
G01*
X10080000Y-5300000D02*
G75*
G02*
X10120000Y-5300000I20000J0D01*
G01*
X10120000Y-5550000D02*
G75*
G02*
X10080000Y-5550000I-20000J0D01*
G01*
X10080000Y-5550000D02*
G75*
G02*
X10120000Y-5550000I20000J0D01*
G01*
X10220000Y-7800000D02*
G75*
G02*
X10180000Y-7800000I-20000J0D01*
G01*
X10180000Y-7800000D02*
G75*
G02*
X10220000Y-7800000I20000J0D01*
G01*
X10220000Y-8250000D02*
G75*
G02*
X10180000Y-8250000I-20000J0D01*
G01*
X10180000Y-8250000D02*
G75*
G02*
X10220000Y-8250000I20000J0D01*
G01*
X10370000Y-8100000D02*
G75*
G02*
X10330000Y-8100000I-20000J0D01*
G01*
X10330000Y-8100000D02*
G75*
G02*
X10370000Y-8100000I20000J0D01*
G01*
X10520000Y-5650000D02*
G75*
G02*
X10480000Y-5650000I-20000J0D01*
G01*
X10480000Y-5650000D02*
G75*
G02*
X10520000Y-5650000I20000J0D01*
G01*
X10620000Y-5150000D02*
G75*
G02*
X10580000Y-5150000I-20000J0D01*
G01*
X10580000Y-5150000D02*
G75*
G02*
X10620000Y-5150000I20000J0D01*
G01*
X10620000Y-10300000D02*
G75*
G02*
X10580000Y-10300000I-20000J0D01*
G01*
X10580000Y-10300000D02*
G75*
G02*
X10620000Y-10300000I20000J0D01*
G01*
X10670000Y-15000000D02*
G75*
G02*
X10630000Y-15000000I-20000J0D01*
G01*
X10630000Y-15000000D02*
G75*
G02*
X10670000Y-15000000I20000J0D01*
G01*
X10720000Y-15350000D02*
G75*
G02*
X10680000Y-15350000I-20000J0D01*
G01*
X10680000Y-15350000D02*
G75*
G02*
X10720000Y-15350000I20000J0D01*
G01*
X10770000Y-8300000D02*
G75*
G02*
X10730000Y-8300000I-20000J0D01*
G01*
X10730000Y-8300000D02*
G75*
G02*
X10770000Y-8300000I20000J0D01*
G01*
X11070000Y-4200000D02*
G75*
G02*
X11030000Y-4200000I-20000J0D01*
G01*
X11030000Y-4200000D02*
G75*
G02*
X11070000Y-4200000I20000J0D01*
G01*
X11070000Y-4850000D02*
G75*
G02*
X11030000Y-4850000I-20000J0D01*
G01*
X11030000Y-4850000D02*
G75*
G02*
X11070000Y-4850000I20000J0D01*
G01*
X11070000Y-13300000D02*
G75*
G02*
X11030000Y-13300000I-20000J0D01*
G01*
X11030000Y-13300000D02*
G75*
G02*
X11070000Y-13300000I20000J0D01*
G01*
X11070000Y-15350000D02*
G75*
G02*
X11030000Y-15350000I-20000J0D01*
G01*
X11030000Y-15350000D02*
G75*
G02*
X11070000Y-15350000I20000J0D01*
G01*
X11120000Y-15750000D02*
G75*
G02*
X11080000Y-15750000I-20000J0D01*
G01*
X11080000Y-15750000D02*
G75*
G02*
X11120000Y-15750000I20000J0D01*
G01*
X11170000Y-9450000D02*
G75*
G02*
X11130000Y-9450000I-20000J0D01*
G01*
X11130000Y-9450000D02*
G75*
G02*
X11170000Y-9450000I20000J0D01*
G01*
X11170000Y-11600000D02*
G75*
G02*
X11130000Y-11600000I-20000J0D01*
G01*
X11130000Y-11600000D02*
G75*
G02*
X11170000Y-11600000I20000J0D01*
G01*
X11170000Y-12250000D02*
G75*
G02*
X11130000Y-12250000I-20000J0D01*
G01*
X11130000Y-12250000D02*
G75*
G02*
X11170000Y-12250000I20000J0D01*
G01*
X11220000Y-8850000D02*
G75*
G02*
X11180000Y-8850000I-20000J0D01*
G01*
X11180000Y-8850000D02*
G75*
G02*
X11220000Y-8850000I20000J0D01*
G01*
X11220000Y-14150000D02*
G75*
G02*
X11180000Y-14150000I-20000J0D01*
G01*
X11180000Y-14150000D02*
G75*
G02*
X11220000Y-14150000I20000J0D01*
G01*
X11370000Y-10250000D02*
G75*
G02*
X11330000Y-10250000I-20000J0D01*
G01*
X11330000Y-10250000D02*
G75*
G02*
X11370000Y-10250000I20000J0D01*
G01*
X11470000Y-14000000D02*
G75*
G02*
X11430000Y-14000000I-20000J0D01*
G01*
X11430000Y-14000000D02*
G75*
G02*
X11470000Y-14000000I20000J0D01*
G01*
X11470000Y-15350000D02*
G75*
G02*
X11430000Y-15350000I-20000J0D01*
G01*
X11430000Y-15350000D02*
G75*
G02*
X11470000Y-15350000I20000J0D01*
G01*
X11520000Y-8800000D02*
G75*
G02*
X11480000Y-8800000I-20000J0D01*
G01*
X11480000Y-8800000D02*
G75*
G02*
X11520000Y-8800000I20000J0D01*
G01*
X11670000Y-5200000D02*
G75*
G02*
X11630000Y-5200000I-20000J0D01*
G01*
X11630000Y-5200000D02*
G75*
G02*
X11670000Y-5200000I20000J0D01*
G01*
X11770000Y-14000000D02*
G75*
G02*
X11730000Y-14000000I-20000J0D01*
G01*
X11730000Y-14000000D02*
G75*
G02*
X11770000Y-14000000I20000J0D01*
G01*
X11870000Y-5850000D02*
G75*
G02*
X11830000Y-5850000I-20000J0D01*
G01*
X11830000Y-5850000D02*
G75*
G02*
X11870000Y-5850000I20000J0D01*
G01*
X11920000Y-10100000D02*
G75*
G02*
X11880000Y-10100000I-20000J0D01*
G01*
X11880000Y-10100000D02*
G75*
G02*
X11920000Y-10100000I20000J0D01*
G01*
X12120000Y-8650000D02*
G75*
G02*
X12080000Y-8650000I-20000J0D01*
G01*
X12080000Y-8650000D02*
G75*
G02*
X12120000Y-8650000I20000J0D01*
G01*
X12170000Y-5450000D02*
G75*
G02*
X12130000Y-5450000I-20000J0D01*
G01*
X12130000Y-5450000D02*
G75*
G02*
X12170000Y-5450000I20000J0D01*
G01*
X12220000Y-10250000D02*
G75*
G02*
X12180000Y-10250000I-20000J0D01*
G01*
X12180000Y-10250000D02*
G75*
G02*
X12220000Y-10250000I20000J0D01*
G01*
X12370000Y-5200000D02*
G75*
G02*
X12330000Y-5200000I-20000J0D01*
G01*
X12330000Y-5200000D02*
G75*
G02*
X12370000Y-5200000I20000J0D01*
G01*
X12520000Y-13500000D02*
G75*
G02*
X12480000Y-13500000I-20000J0D01*
G01*
X12480000Y-13500000D02*
G75*
G02*
X12520000Y-13500000I20000J0D01*
G01*
X12570000Y-15100000D02*
G75*
G02*
X12530000Y-15100000I-20000J0D01*
G01*
X12530000Y-15100000D02*
G75*
G02*
X12570000Y-15100000I20000J0D01*
G01*
X12620000Y-14150000D02*
G75*
G02*
X12580000Y-14150000I-20000J0D01*
G01*
X12580000Y-14150000D02*
G75*
G02*
X12620000Y-14150000I20000J0D01*
G01*
X12670000Y-15300000D02*
G75*
G02*
X12630000Y-15300000I-20000J0D01*
G01*
X12630000Y-15300000D02*
G75*
G02*
X12670000Y-15300000I20000J0D01*
G01*
X12770000Y-8650000D02*
G75*
G02*
X12730000Y-8650000I-20000J0D01*
G01*
X12730000Y-8650000D02*
G75*
G02*
X12770000Y-8650000I20000J0D01*
G01*
X12820000Y-4650000D02*
G75*
G02*
X12780000Y-4650000I-20000J0D01*
G01*
X12780000Y-4650000D02*
G75*
G02*
X12820000Y-4650000I20000J0D01*
G01*
X12870000Y-6900000D02*
G75*
G02*
X12830000Y-6900000I-20000J0D01*
G01*
X12830000Y-6900000D02*
G75*
G02*
X12870000Y-6900000I20000J0D01*
G01*
X12870000Y-7450000D02*
G75*
G02*
X12830000Y-7450000I-20000J0D01*
G01*
X12830000Y-7450000D02*
G75*
G02*
X12870000Y-7450000I20000J0D01*
G01*
X12870000Y-14200000D02*
G75*
G02*
X12830000Y-14200000I-20000J0D01*
G01*
X12830000Y-14200000D02*
G75*
G02*
X12870000Y-14200000I20000J0D01*
G01*
X13120000Y-15800000D02*
G75*
G02*
X13080000Y-15800000I-20000J0D01*
G01*
X13080000Y-15800000D02*
G75*
G02*
X13120000Y-15800000I20000J0D01*
G01*
X13170000Y-14250000D02*
G75*
G02*
X13130000Y-14250000I-20000J0D01*
G01*
X13130000Y-14250000D02*
G75*
G02*
X13170000Y-14250000I20000J0D01*
G01*
X13320000Y-13800000D02*
G75*
G02*
X13280000Y-13800000I-20000J0D01*
G01*
X13280000Y-13800000D02*
G75*
G02*
X13320000Y-13800000I20000J0D01*
G01*
X13320000Y-15350000D02*
G75*
G02*
X13280000Y-15350000I-20000J0D01*
G01*
X13280000Y-15350000D02*
G75*
G02*
X13320000Y-15350000I20000J0D01*
G01*
X13370000Y-14850000D02*
G75*
G02*
X13330000Y-14850000I-20000J0D01*
G01*
X13330000Y-14850000D02*
G75*
G02*
X13370000Y-14850000I20000J0D01*
G01*
X13470000Y-9250000D02*
G75*
G02*
X13430000Y-9250000I-20000J0D01*
G01*
X13430000Y-9250000D02*
G75*
G02*
X13470000Y-9250000I20000J0D01*
G01*
X13470000Y-15800000D02*
G75*
G02*
X13430000Y-15800000I-20000J0D01*
G01*
X13430000Y-15800000D02*
G75*
G02*
X13470000Y-15800000I20000J0D01*
G01*
X13520000Y-7250000D02*
G75*
G02*
X13480000Y-7250000I-20000J0D01*
G01*
X13480000Y-7250000D02*
G75*
G02*
X13520000Y-7250000I20000J0D01*
G01*
X13520000Y-9550000D02*
G75*
G02*
X13480000Y-9550000I-20000J0D01*
G01*
X13480000Y-9550000D02*
G75*
G02*
X13520000Y-9550000I20000J0D01*
G01*
X13520000Y-13000000D02*
G75*
G02*
X13480000Y-13000000I-20000J0D01*
G01*
X13480000Y-13000000D02*
G75*
G02*
X13520000Y-13000000I20000J0D01*
G01*
X6702500Y-4297500D02*
X6702500Y-4337500D01*
X6682500Y-4317500D02*
X6722500Y-4317500D01*
X6702500Y-4432500D02*
X6702500Y-4472500D01*
X6682500Y-4452500D02*
X6722500Y-4452500D01*
X6787500Y-4297500D02*
X6787500Y-4337500D01*
X6767500Y-4317500D02*
X6807500Y-4317500D01*
X6787500Y-4432500D02*
X6787500Y-4472500D01*
X6767500Y-4452500D02*
X6807500Y-4452500D01*
X6872500Y-4297500D02*
X6872500Y-4337500D01*
X6852500Y-4317500D02*
X6892500Y-4317500D01*
X6872500Y-4432500D02*
X6872500Y-4472500D01*
X6852500Y-4452500D02*
X6892500Y-4452500D01*
X6957500Y-4297500D02*
X6957500Y-4337500D01*
X6937500Y-4317500D02*
X6977500Y-4317500D01*
X6957500Y-4432500D02*
X6957500Y-4472500D01*
X6937500Y-4452500D02*
X6977500Y-4452500D01*
X7042500Y-4297500D02*
X7042500Y-4337500D01*
X7022500Y-4317500D02*
X7062500Y-4317500D01*
X7042500Y-4432500D02*
X7042500Y-4472500D01*
X7022500Y-4452500D02*
X7062500Y-4452500D01*
X7127500Y-4297500D02*
X7127500Y-4337500D01*
X7107500Y-4317500D02*
X7147500Y-4317500D01*
X7127500Y-4432500D02*
X7127500Y-4472500D01*
X7107500Y-4452500D02*
X7147500Y-4452500D01*
X7212500Y-4297500D02*
X7212500Y-4337500D01*
X7192500Y-4317500D02*
X7232500Y-4317500D01*
X7212500Y-4432500D02*
X7212500Y-4472500D01*
X7192500Y-4452500D02*
X7232500Y-4452500D01*
X7297500Y-4297500D02*
X7297500Y-4337500D01*
X7277500Y-4317500D02*
X7317500Y-4317500D01*
X7297500Y-4432500D02*
X7297500Y-4472500D01*
X7277500Y-4452500D02*
X7317500Y-4452500D01*
X6588713Y-4037713D02*
X6588713Y-3995287D01*
X6546287Y-3995287D01*
X6546287Y-4037713D01*
X6588713Y-4037713D01*
X6597500Y-4056500D02*
X6597500Y-3976500D01*
X6537500Y-3976500D02*
G75*
G02*
X6597500Y-3976500I30000J0D01*
G01*
X6537500Y-3976500D02*
X6537500Y-4056500D01*
X6537500Y-4056500D02*
G75*
G03*
X6597500Y-4056500I30000J0D01*
G01*
X6588713Y-4375713D02*
X6588713Y-4333287D01*
X6546287Y-4333287D01*
X6546287Y-4375713D01*
X6588713Y-4375713D01*
X6597500Y-4429500D02*
X6597500Y-4279500D01*
X6537500Y-4279500D02*
G75*
G02*
X6597500Y-4279500I30000J0D01*
G01*
X6537500Y-4279500D02*
X6537500Y-4429500D01*
X6537500Y-4429500D02*
G75*
G03*
X6597500Y-4429500I30000J0D01*
G01*
X7453713Y-4037713D02*
X7453713Y-3995287D01*
X7411287Y-3995287D01*
X7411287Y-4037713D01*
X7453713Y-4037713D01*
X7462500Y-4056500D02*
X7462500Y-3976500D01*
X7402500Y-3976500D02*
G75*
G02*
X7462500Y-3976500I30000J0D01*
G01*
X7402500Y-3976500D02*
X7402500Y-4056500D01*
X7402500Y-4056500D02*
G75*
G03*
X7462500Y-4056500I30000J0D01*
G01*
X7453713Y-4375713D02*
X7453713Y-4333287D01*
X7411287Y-4333287D01*
X7411287Y-4375713D01*
X7453713Y-4375713D01*
X7462500Y-4429500D02*
X7462500Y-4279500D01*
X7402500Y-4279500D02*
G75*
G02*
X7462500Y-4279500I30000J0D01*
G01*
X7402500Y-4279500D02*
X7402500Y-4429500D01*
X7402500Y-4429500D02*
G75*
G03*
X7462500Y-4429500I30000J0D01*
G01*
X4614050Y-15626000D02*
X4664050Y-15576000D01*
X4614050Y-15526000D01*
X4564050Y-15576000D01*
X4614050Y-15626000D01*
X4868050Y-15626000D02*
X4918050Y-15576000D01*
X4868050Y-15526000D01*
X4818050Y-15576000D01*
X4868050Y-15626000D01*
X5122050Y-15626000D02*
X5172050Y-15576000D01*
X5122050Y-15526000D01*
X5072050Y-15576000D01*
X5122050Y-15626000D01*
X5376050Y-15626000D02*
X5426050Y-15576000D01*
X5376050Y-15526000D01*
X5326050Y-15576000D01*
X5376050Y-15626000D01*
X5630050Y-15626000D02*
X5680050Y-15576000D01*
X5630050Y-15526000D01*
X5580050Y-15576000D01*
X5630050Y-15626000D01*
X5884050Y-15626000D02*
X5934050Y-15576000D01*
X5884050Y-15526000D01*
X5834050Y-15576000D01*
X5884050Y-15626000D01*
X5993900Y-5562300D02*
X6043900Y-5512300D01*
X5993900Y-5462300D01*
X5943900Y-5512300D01*
X5993900Y-5562300D01*
X5993900Y-5816300D02*
X6043900Y-5766300D01*
X5993900Y-5716300D01*
X5943900Y-5766300D01*
X5993900Y-5816300D01*
X5993900Y-6070300D02*
X6043900Y-6020300D01*
X5993900Y-5970300D01*
X5943900Y-6020300D01*
X5993900Y-6070300D01*
X5993900Y-6324300D02*
X6043900Y-6274300D01*
X5993900Y-6224300D01*
X5943900Y-6274300D01*
X5993900Y-6324300D01*
X5993900Y-6578300D02*
X6043900Y-6528300D01*
X5993900Y-6478300D01*
X5943900Y-6528300D01*
X5993900Y-6578300D01*
X6247900Y-5562300D02*
X6297900Y-5512300D01*
X6247900Y-5462300D01*
X6197900Y-5512300D01*
X6247900Y-5562300D01*
X6247900Y-5816300D02*
X6297900Y-5766300D01*
X6247900Y-5716300D01*
X6197900Y-5766300D01*
X6247900Y-5816300D01*
X6247900Y-6070300D02*
X6297900Y-6020300D01*
X6247900Y-5970300D01*
X6197900Y-6020300D01*
X6247900Y-6070300D01*
X6247900Y-6324300D02*
X6297900Y-6274300D01*
X6247900Y-6224300D01*
X6197900Y-6274300D01*
X6247900Y-6324300D01*
X6247900Y-6578300D02*
X6297900Y-6528300D01*
X6247900Y-6478300D01*
X6197900Y-6528300D01*
X6247900Y-6578300D01*
X6493650Y-15626000D02*
X6543650Y-15576000D01*
X6493650Y-15526000D01*
X6443650Y-15576000D01*
X6493650Y-15626000D01*
X6700000Y-5822500D02*
X6750000Y-5772500D01*
X6700000Y-5722500D01*
X6650000Y-5772500D01*
X6700000Y-5822500D01*
X6700000Y-6076500D02*
X6750000Y-6026500D01*
X6700000Y-5976500D01*
X6650000Y-6026500D01*
X6700000Y-6076500D01*
X6747650Y-15626000D02*
X6797650Y-15576000D01*
X6747650Y-15526000D01*
X6697650Y-15576000D01*
X6747650Y-15626000D01*
X7001650Y-15626000D02*
X7051650Y-15576000D01*
X7001650Y-15526000D01*
X6951650Y-15576000D01*
X7001650Y-15626000D01*
X7255650Y-15626000D02*
X7305650Y-15576000D01*
X7255650Y-15526000D01*
X7205650Y-15576000D01*
X7255650Y-15626000D01*
X7509650Y-15626000D02*
X7559650Y-15576000D01*
X7509650Y-15526000D01*
X7459650Y-15576000D01*
X7509650Y-15626000D01*
X7721600Y-8076400D02*
X7771600Y-8026400D01*
X7721600Y-7976400D01*
X7671600Y-8026400D01*
X7721600Y-8076400D01*
X7721600Y-8330400D02*
X7771600Y-8280400D01*
X7721600Y-8230400D01*
X7671600Y-8280400D01*
X7721600Y-8330400D01*
X7721600Y-8584400D02*
X7771600Y-8534400D01*
X7721600Y-8484400D01*
X7671600Y-8534400D01*
X7721600Y-8584400D01*
X7721600Y-8838400D02*
X7771600Y-8788400D01*
X7721600Y-8738400D01*
X7671600Y-8788400D01*
X7721600Y-8838400D01*
X7763650Y-15626000D02*
X7813650Y-15576000D01*
X7763650Y-15526000D01*
X7713650Y-15576000D01*
X7763650Y-15626000D01*
X8398650Y-15626000D02*
X8448650Y-15576000D01*
X8398650Y-15526000D01*
X8348650Y-15576000D01*
X8398650Y-15626000D01*
X8652650Y-15626000D02*
X8702650Y-15576000D01*
X8652650Y-15526000D01*
X8602650Y-15576000D01*
X8652650Y-15626000D01*
X8906650Y-15626000D02*
X8956650Y-15576000D01*
X8906650Y-15526000D01*
X8856650Y-15576000D01*
X8906650Y-15626000D01*
X9160650Y-15626000D02*
X9210650Y-15576000D01*
X9160650Y-15526000D01*
X9110650Y-15576000D01*
X9160650Y-15626000D01*
X9414650Y-15626000D02*
X9464650Y-15576000D01*
X9414650Y-15526000D01*
X9364650Y-15576000D01*
X9414650Y-15626000D01*
X9600000Y-4150000D02*
X9650000Y-4100000D01*
X9600000Y-4050000D01*
X9550000Y-4100000D01*
X9600000Y-4150000D01*
X9650000Y-4175000D02*
X9650000Y-4025000D01*
X9550000Y-4025000D02*
G75*
G02*
X9650000Y-4025000I50000J0D01*
G01*
X9550000Y-4025000D02*
X9550000Y-4175000D01*
X9550000Y-4175000D02*
G75*
G03*
X9650000Y-4175000I50000J0D01*
G01*
X9668650Y-15626000D02*
X9718650Y-15576000D01*
X9668650Y-15526000D01*
X9618650Y-15576000D01*
X9668650Y-15626000D01*
X10050000Y-4250000D02*
X10100000Y-4200000D01*
X10050000Y-4150000D01*
X10000000Y-4200000D01*
X10050000Y-4250000D01*
X10115000Y-4150000D02*
X9985000Y-4150000D01*
X9985000Y-4250000D02*
G75*
G02*
X9985000Y-4150000I0J50000D01*
G01*
X9985000Y-4250000D02*
X10115000Y-4250000D01*
X10115000Y-4250000D02*
G75*
G03*
X10115000Y-4150000I0J50000D01*
G01*
X10050000Y-4850000D02*
X10100000Y-4800000D01*
X10050000Y-4750000D01*
X10000000Y-4800000D01*
X10050000Y-4850000D01*
X10150000Y-4750000D02*
X9950000Y-4750000D01*
X9950000Y-4850000D02*
G75*
G02*
X9950000Y-4750000I0J50000D01*
G01*
X9950000Y-4850000D02*
X10150000Y-4850000D01*
X10150000Y-4850000D02*
G75*
G03*
X10150000Y-4750000I0J50000D01*
G01*
X10303650Y-15626000D02*
X10353650Y-15576000D01*
X10303650Y-15526000D01*
X10253650Y-15576000D01*
X10303650Y-15626000D01*
X10500000Y-4150000D02*
X10550000Y-4100000D01*
X10500000Y-4050000D01*
X10450000Y-4100000D01*
X10500000Y-4150000D01*
X10550000Y-4175000D02*
X10550000Y-4025000D01*
X10450000Y-4025000D02*
G75*
G02*
X10550000Y-4025000I50000J0D01*
G01*
X10450000Y-4025000D02*
X10450000Y-4175000D01*
X10450000Y-4175000D02*
G75*
G03*
X10550000Y-4175000I50000J0D01*
G01*
X10557650Y-15626000D02*
X10607650Y-15576000D01*
X10557650Y-15526000D01*
X10507650Y-15576000D01*
X10557650Y-15626000D01*
X10811650Y-15626000D02*
X10861650Y-15576000D01*
X10811650Y-15526000D01*
X10761650Y-15576000D01*
X10811650Y-15626000D01*
X11065650Y-15626000D02*
X11115650Y-15576000D01*
X11065650Y-15526000D01*
X11015650Y-15576000D01*
X11065650Y-15626000D01*
X11319650Y-15626000D02*
X11369650Y-15576000D01*
X11319650Y-15526000D01*
X11269650Y-15576000D01*
X11319650Y-15626000D01*
X11573650Y-15626000D02*
X11623650Y-15576000D01*
X11573650Y-15526000D01*
X11523650Y-15576000D01*
X11573650Y-15626000D01*
X12183250Y-15626000D02*
X12233250Y-15576000D01*
X12183250Y-15526000D01*
X12133250Y-15576000D01*
X12183250Y-15626000D01*
X12437250Y-15626000D02*
X12487250Y-15576000D01*
X12437250Y-15526000D01*
X12387250Y-15576000D01*
X12437250Y-15626000D01*
X12691250Y-15626000D02*
X12741250Y-15576000D01*
X12691250Y-15526000D01*
X12641250Y-15576000D01*
X12691250Y-15626000D01*
X12945250Y-15626000D02*
X12995250Y-15576000D01*
X12945250Y-15526000D01*
X12895250Y-15576000D01*
X12945250Y-15626000D01*
X13199250Y-15626000D02*
X13249250Y-15576000D01*
X13199250Y-15526000D01*
X13149250Y-15576000D01*
X13199250Y-15626000D01*
X13453250Y-15626000D02*
X13503250Y-15576000D01*
X13453250Y-15526000D01*
X13403250Y-15576000D01*
X13453250Y-15626000D01*
D13*
X4190000Y-3740000D02*
X4510000Y-4060000D01*
X4510000Y-3740000D02*
X4190000Y-4060000D01*
X4510000Y-3900000D02*
G75*
G02*
X4190000Y-3900000I-160000J0D01*
G01*
X4190000Y-3900000D02*
G75*
G02*
X4510000Y-3900000I160000J0D01*
G01*
X4190000Y-16040000D02*
X4510000Y-16360000D01*
X4510000Y-16040000D02*
X4190000Y-16360000D01*
X4510000Y-16200000D02*
G75*
G02*
X4190000Y-16200000I-160000J0D01*
G01*
X4190000Y-16200000D02*
G75*
G02*
X4510000Y-16200000I160000J0D01*
G01*
X13490000Y-3740000D02*
X13810000Y-4060000D01*
X13810000Y-3740000D02*
X13490000Y-4060000D01*
X13810000Y-3900000D02*
G75*
G02*
X13490000Y-3900000I-160000J0D01*
G01*
X13490000Y-3900000D02*
G75*
G02*
X13810000Y-3900000I160000J0D01*
G01*
X13490000Y-16040000D02*
X13810000Y-16360000D01*
X13810000Y-16040000D02*
X13490000Y-16360000D01*
X13810000Y-16200000D02*
G75*
G02*
X13490000Y-16200000I-160000J0D01*
G01*
X13490000Y-16200000D02*
G75*
G02*
X13810000Y-16200000I160000J0D01*
G01*
D11*
X4258872Y-16863389D02*
X4258872Y-16663389D01*
X4258872Y-16663389D02*
X4306491Y-16663389D01*
X4306491Y-16663389D02*
X4335062Y-16672913D01*
X4335062Y-16672913D02*
X4354110Y-16691960D01*
X4354110Y-16691960D02*
X4363634Y-16711008D01*
X4363634Y-16711008D02*
X4373158Y-16749103D01*
X4373158Y-16749103D02*
X4373158Y-16777675D01*
X4373158Y-16777675D02*
X4363634Y-16815770D01*
X4363634Y-16815770D02*
X4354110Y-16834817D01*
X4354110Y-16834817D02*
X4335062Y-16853865D01*
X4335062Y-16853865D02*
X4306491Y-16863389D01*
X4306491Y-16863389D02*
X4258872Y-16863389D01*
X4458872Y-16863389D02*
X4458872Y-16730055D01*
X4458872Y-16768151D02*
X4468396Y-16749103D01*
X4468396Y-16749103D02*
X4477919Y-16739579D01*
X4477919Y-16739579D02*
X4496967Y-16730055D01*
X4496967Y-16730055D02*
X4516015Y-16730055D01*
X4582681Y-16863389D02*
X4582681Y-16730055D01*
X4582681Y-16663389D02*
X4573158Y-16672913D01*
X4573158Y-16672913D02*
X4582681Y-16682436D01*
X4582681Y-16682436D02*
X4592205Y-16672913D01*
X4592205Y-16672913D02*
X4582681Y-16663389D01*
X4582681Y-16663389D02*
X4582681Y-16682436D01*
X4706491Y-16863389D02*
X4687443Y-16853865D01*
X4687443Y-16853865D02*
X4677919Y-16834817D01*
X4677919Y-16834817D02*
X4677919Y-16663389D01*
X4811253Y-16863389D02*
X4792205Y-16853865D01*
X4792205Y-16853865D02*
X4782681Y-16834817D01*
X4782681Y-16834817D02*
X4782681Y-16663389D01*
X5039824Y-16863389D02*
X5039824Y-16663389D01*
X5039824Y-16663389D02*
X5106491Y-16806246D01*
X5106491Y-16806246D02*
X5173158Y-16663389D01*
X5173158Y-16663389D02*
X5173158Y-16863389D01*
X5354110Y-16863389D02*
X5354110Y-16758627D01*
X5354110Y-16758627D02*
X5344586Y-16739579D01*
X5344586Y-16739579D02*
X5325539Y-16730055D01*
X5325539Y-16730055D02*
X5287443Y-16730055D01*
X5287443Y-16730055D02*
X5268396Y-16739579D01*
X5354110Y-16853865D02*
X5335062Y-16863389D01*
X5335062Y-16863389D02*
X5287443Y-16863389D01*
X5287443Y-16863389D02*
X5268396Y-16853865D01*
X5268396Y-16853865D02*
X5258872Y-16834817D01*
X5258872Y-16834817D02*
X5258872Y-16815770D01*
X5258872Y-16815770D02*
X5268396Y-16796722D01*
X5268396Y-16796722D02*
X5287443Y-16787198D01*
X5287443Y-16787198D02*
X5335062Y-16787198D01*
X5335062Y-16787198D02*
X5354110Y-16777675D01*
X5449348Y-16730055D02*
X5449348Y-16930055D01*
X5449348Y-16739579D02*
X5468396Y-16730055D01*
X5468396Y-16730055D02*
X5506491Y-16730055D01*
X5506491Y-16730055D02*
X5525539Y-16739579D01*
X5525539Y-16739579D02*
X5535062Y-16749103D01*
X5535062Y-16749103D02*
X5544586Y-16768151D01*
X5544586Y-16768151D02*
X5544586Y-16825294D01*
X5544586Y-16825294D02*
X5535062Y-16844341D01*
X5535062Y-16844341D02*
X5525539Y-16853865D01*
X5525539Y-16853865D02*
X5506491Y-16863389D01*
X5506491Y-16863389D02*
X5468396Y-16863389D01*
X5468396Y-16863389D02*
X5449348Y-16853865D01*
X5630300Y-16844341D02*
X5639824Y-16853865D01*
X5639824Y-16853865D02*
X5630300Y-16863389D01*
X5630300Y-16863389D02*
X5620777Y-16853865D01*
X5620777Y-16853865D02*
X5630300Y-16844341D01*
X5630300Y-16844341D02*
X5630300Y-16863389D01*
X5630300Y-16739579D02*
X5639824Y-16749103D01*
X5639824Y-16749103D02*
X5630300Y-16758627D01*
X5630300Y-16758627D02*
X5620777Y-16749103D01*
X5620777Y-16749103D02*
X5630300Y-16739579D01*
X5630300Y-16739579D02*
X5630300Y-16758627D01*
D12*
X3968095Y-17176905D02*
X3998095Y-17206905D01*
X3998095Y-17176905D02*
X3968095Y-17206905D01*
D11*
X4296967Y-17083389D02*
X4316015Y-17083389D01*
X4316015Y-17083389D02*
X4335062Y-17092913D01*
X4335062Y-17092913D02*
X4344586Y-17102436D01*
X4344586Y-17102436D02*
X4354110Y-17121484D01*
X4354110Y-17121484D02*
X4363634Y-17159579D01*
X4363634Y-17159579D02*
X4363634Y-17207198D01*
X4363634Y-17207198D02*
X4354110Y-17245294D01*
X4354110Y-17245294D02*
X4344586Y-17264341D01*
X4344586Y-17264341D02*
X4335062Y-17273865D01*
X4335062Y-17273865D02*
X4316015Y-17283389D01*
X4316015Y-17283389D02*
X4296967Y-17283389D01*
X4296967Y-17283389D02*
X4277919Y-17273865D01*
X4277919Y-17273865D02*
X4268396Y-17264341D01*
X4268396Y-17264341D02*
X4258872Y-17245294D01*
X4258872Y-17245294D02*
X4249348Y-17207198D01*
X4249348Y-17207198D02*
X4249348Y-17159579D01*
X4249348Y-17159579D02*
X4258872Y-17121484D01*
X4258872Y-17121484D02*
X4268396Y-17102436D01*
X4268396Y-17102436D02*
X4277919Y-17092913D01*
X4277919Y-17092913D02*
X4296967Y-17083389D01*
X4449348Y-17264341D02*
X4458872Y-17273865D01*
X4458872Y-17273865D02*
X4449348Y-17283389D01*
X4449348Y-17283389D02*
X4439824Y-17273865D01*
X4439824Y-17273865D02*
X4449348Y-17264341D01*
X4449348Y-17264341D02*
X4449348Y-17283389D01*
X4525539Y-17083389D02*
X4649348Y-17083389D01*
X4649348Y-17083389D02*
X4582681Y-17159579D01*
X4582681Y-17159579D02*
X4611253Y-17159579D01*
X4611253Y-17159579D02*
X4630300Y-17169103D01*
X4630300Y-17169103D02*
X4639824Y-17178627D01*
X4639824Y-17178627D02*
X4649348Y-17197675D01*
X4649348Y-17197675D02*
X4649348Y-17245294D01*
X4649348Y-17245294D02*
X4639824Y-17264341D01*
X4639824Y-17264341D02*
X4630300Y-17273865D01*
X4630300Y-17273865D02*
X4611253Y-17283389D01*
X4611253Y-17283389D02*
X4554110Y-17283389D01*
X4554110Y-17283389D02*
X4535062Y-17273865D01*
X4535062Y-17273865D02*
X4525539Y-17264341D01*
X4773158Y-17083389D02*
X4792205Y-17083389D01*
X4792205Y-17083389D02*
X4811253Y-17092913D01*
X4811253Y-17092913D02*
X4820777Y-17102436D01*
X4820777Y-17102436D02*
X4830300Y-17121484D01*
X4830300Y-17121484D02*
X4839824Y-17159579D01*
X4839824Y-17159579D02*
X4839824Y-17207198D01*
X4839824Y-17207198D02*
X4830300Y-17245294D01*
X4830300Y-17245294D02*
X4820777Y-17264341D01*
X4820777Y-17264341D02*
X4811253Y-17273865D01*
X4811253Y-17273865D02*
X4792205Y-17283389D01*
X4792205Y-17283389D02*
X4773158Y-17283389D01*
X4773158Y-17283389D02*
X4754110Y-17273865D01*
X4754110Y-17273865D02*
X4744586Y-17264341D01*
X4744586Y-17264341D02*
X4735062Y-17245294D01*
X4735062Y-17245294D02*
X4725539Y-17207198D01*
X4725539Y-17207198D02*
X4725539Y-17159579D01*
X4725539Y-17159579D02*
X4735062Y-17121484D01*
X4735062Y-17121484D02*
X4744586Y-17102436D01*
X4744586Y-17102436D02*
X4754110Y-17092913D01*
X4754110Y-17092913D02*
X4773158Y-17083389D01*
X4963634Y-17083389D02*
X4982681Y-17083389D01*
X4982681Y-17083389D02*
X5001729Y-17092913D01*
X5001729Y-17092913D02*
X5011253Y-17102436D01*
X5011253Y-17102436D02*
X5020777Y-17121484D01*
X5020777Y-17121484D02*
X5030300Y-17159579D01*
X5030300Y-17159579D02*
X5030300Y-17207198D01*
X5030300Y-17207198D02*
X5020777Y-17245294D01*
X5020777Y-17245294D02*
X5011253Y-17264341D01*
X5011253Y-17264341D02*
X5001729Y-17273865D01*
X5001729Y-17273865D02*
X4982681Y-17283389D01*
X4982681Y-17283389D02*
X4963634Y-17283389D01*
X4963634Y-17283389D02*
X4944586Y-17273865D01*
X4944586Y-17273865D02*
X4935062Y-17264341D01*
X4935062Y-17264341D02*
X4925539Y-17245294D01*
X4925539Y-17245294D02*
X4916015Y-17207198D01*
X4916015Y-17207198D02*
X4916015Y-17159579D01*
X4916015Y-17159579D02*
X4925539Y-17121484D01*
X4925539Y-17121484D02*
X4935062Y-17102436D01*
X4935062Y-17102436D02*
X4944586Y-17092913D01*
X4944586Y-17092913D02*
X4963634Y-17083389D01*
X5116015Y-17283389D02*
X5116015Y-17150055D01*
X5116015Y-17169103D02*
X5125539Y-17159579D01*
X5125539Y-17159579D02*
X5144586Y-17150055D01*
X5144586Y-17150055D02*
X5173158Y-17150055D01*
X5173158Y-17150055D02*
X5192205Y-17159579D01*
X5192205Y-17159579D02*
X5201729Y-17178627D01*
X5201729Y-17178627D02*
X5201729Y-17283389D01*
X5201729Y-17178627D02*
X5211253Y-17159579D01*
X5211253Y-17159579D02*
X5230300Y-17150055D01*
X5230300Y-17150055D02*
X5258872Y-17150055D01*
X5258872Y-17150055D02*
X5277920Y-17159579D01*
X5277920Y-17159579D02*
X5287443Y-17178627D01*
X5287443Y-17178627D02*
X5287443Y-17283389D01*
X5382681Y-17283389D02*
X5382681Y-17150055D01*
X5382681Y-17169103D02*
X5392205Y-17159579D01*
X5392205Y-17159579D02*
X5411253Y-17150055D01*
X5411253Y-17150055D02*
X5439824Y-17150055D01*
X5439824Y-17150055D02*
X5458872Y-17159579D01*
X5458872Y-17159579D02*
X5468396Y-17178627D01*
X5468396Y-17178627D02*
X5468396Y-17283389D01*
X5468396Y-17178627D02*
X5477920Y-17159579D01*
X5477920Y-17159579D02*
X5496967Y-17150055D01*
X5496967Y-17150055D02*
X5525539Y-17150055D01*
X5525539Y-17150055D02*
X5544586Y-17159579D01*
X5544586Y-17159579D02*
X5554110Y-17178627D01*
X5554110Y-17178627D02*
X5554110Y-17283389D01*
X5944586Y-17073865D02*
X5773158Y-17331008D01*
X6201729Y-17083389D02*
X6220777Y-17083389D01*
X6220777Y-17083389D02*
X6239824Y-17092913D01*
X6239824Y-17092913D02*
X6249348Y-17102436D01*
X6249348Y-17102436D02*
X6258872Y-17121484D01*
X6258872Y-17121484D02*
X6268396Y-17159579D01*
X6268396Y-17159579D02*
X6268396Y-17207198D01*
X6268396Y-17207198D02*
X6258872Y-17245294D01*
X6258872Y-17245294D02*
X6249348Y-17264341D01*
X6249348Y-17264341D02*
X6239824Y-17273865D01*
X6239824Y-17273865D02*
X6220777Y-17283389D01*
X6220777Y-17283389D02*
X6201729Y-17283389D01*
X6201729Y-17283389D02*
X6182681Y-17273865D01*
X6182681Y-17273865D02*
X6173158Y-17264341D01*
X6173158Y-17264341D02*
X6163634Y-17245294D01*
X6163634Y-17245294D02*
X6154110Y-17207198D01*
X6154110Y-17207198D02*
X6154110Y-17159579D01*
X6154110Y-17159579D02*
X6163634Y-17121484D01*
X6163634Y-17121484D02*
X6173158Y-17102436D01*
X6173158Y-17102436D02*
X6182681Y-17092913D01*
X6182681Y-17092913D02*
X6201729Y-17083389D01*
X6354110Y-17264341D02*
X6363634Y-17273865D01*
X6363634Y-17273865D02*
X6354110Y-17283389D01*
X6354110Y-17283389D02*
X6344586Y-17273865D01*
X6344586Y-17273865D02*
X6354110Y-17264341D01*
X6354110Y-17264341D02*
X6354110Y-17283389D01*
X6487443Y-17083389D02*
X6506491Y-17083389D01*
X6506491Y-17083389D02*
X6525539Y-17092913D01*
X6525539Y-17092913D02*
X6535062Y-17102436D01*
X6535062Y-17102436D02*
X6544586Y-17121484D01*
X6544586Y-17121484D02*
X6554110Y-17159579D01*
X6554110Y-17159579D02*
X6554110Y-17207198D01*
X6554110Y-17207198D02*
X6544586Y-17245294D01*
X6544586Y-17245294D02*
X6535062Y-17264341D01*
X6535062Y-17264341D02*
X6525539Y-17273865D01*
X6525539Y-17273865D02*
X6506491Y-17283389D01*
X6506491Y-17283389D02*
X6487443Y-17283389D01*
X6487443Y-17283389D02*
X6468396Y-17273865D01*
X6468396Y-17273865D02*
X6458872Y-17264341D01*
X6458872Y-17264341D02*
X6449348Y-17245294D01*
X6449348Y-17245294D02*
X6439824Y-17207198D01*
X6439824Y-17207198D02*
X6439824Y-17159579D01*
X6439824Y-17159579D02*
X6449348Y-17121484D01*
X6449348Y-17121484D02*
X6458872Y-17102436D01*
X6458872Y-17102436D02*
X6468396Y-17092913D01*
X6468396Y-17092913D02*
X6487443Y-17083389D01*
X6744586Y-17283389D02*
X6630301Y-17283389D01*
X6687443Y-17283389D02*
X6687443Y-17083389D01*
X6687443Y-17083389D02*
X6668396Y-17111960D01*
X6668396Y-17111960D02*
X6649348Y-17131008D01*
X6649348Y-17131008D02*
X6630301Y-17140532D01*
X6935062Y-17283389D02*
X6820777Y-17283389D01*
X6877920Y-17283389D02*
X6877920Y-17083389D01*
X6877920Y-17083389D02*
X6858872Y-17111960D01*
X6858872Y-17111960D02*
X6839824Y-17131008D01*
X6839824Y-17131008D02*
X6820777Y-17140532D01*
X7049348Y-17169103D02*
X7030301Y-17159579D01*
X7030301Y-17159579D02*
X7020777Y-17150055D01*
X7020777Y-17150055D02*
X7011253Y-17131008D01*
X7011253Y-17131008D02*
X7011253Y-17121484D01*
X7011253Y-17121484D02*
X7020777Y-17102436D01*
X7020777Y-17102436D02*
X7030301Y-17092913D01*
X7030301Y-17092913D02*
X7049348Y-17083389D01*
X7049348Y-17083389D02*
X7087443Y-17083389D01*
X7087443Y-17083389D02*
X7106491Y-17092913D01*
X7106491Y-17092913D02*
X7116015Y-17102436D01*
X7116015Y-17102436D02*
X7125539Y-17121484D01*
X7125539Y-17121484D02*
X7125539Y-17131008D01*
X7125539Y-17131008D02*
X7116015Y-17150055D01*
X7116015Y-17150055D02*
X7106491Y-17159579D01*
X7106491Y-17159579D02*
X7087443Y-17169103D01*
X7087443Y-17169103D02*
X7049348Y-17169103D01*
X7049348Y-17169103D02*
X7030301Y-17178627D01*
X7030301Y-17178627D02*
X7020777Y-17188151D01*
X7020777Y-17188151D02*
X7011253Y-17207198D01*
X7011253Y-17207198D02*
X7011253Y-17245294D01*
X7011253Y-17245294D02*
X7020777Y-17264341D01*
X7020777Y-17264341D02*
X7030301Y-17273865D01*
X7030301Y-17273865D02*
X7049348Y-17283389D01*
X7049348Y-17283389D02*
X7087443Y-17283389D01*
X7087443Y-17283389D02*
X7106491Y-17273865D01*
X7106491Y-17273865D02*
X7116015Y-17264341D01*
X7116015Y-17264341D02*
X7125539Y-17245294D01*
X7125539Y-17245294D02*
X7125539Y-17207198D01*
X7125539Y-17207198D02*
X7116015Y-17188151D01*
X7116015Y-17188151D02*
X7106491Y-17178627D01*
X7106491Y-17178627D02*
X7087443Y-17169103D01*
X7201729Y-17083389D02*
X7201729Y-17121484D01*
X7277920Y-17083389D02*
X7277920Y-17121484D01*
X7573158Y-17359579D02*
X7563634Y-17350055D01*
X7563634Y-17350055D02*
X7544586Y-17321484D01*
X7544586Y-17321484D02*
X7535063Y-17302436D01*
X7535063Y-17302436D02*
X7525539Y-17273865D01*
X7525539Y-17273865D02*
X7516015Y-17226246D01*
X7516015Y-17226246D02*
X7516015Y-17188151D01*
X7516015Y-17188151D02*
X7525539Y-17140532D01*
X7525539Y-17140532D02*
X7535063Y-17111960D01*
X7535063Y-17111960D02*
X7544586Y-17092913D01*
X7544586Y-17092913D02*
X7563634Y-17064341D01*
X7563634Y-17064341D02*
X7573158Y-17054817D01*
X7639824Y-17102436D02*
X7649348Y-17092913D01*
X7649348Y-17092913D02*
X7668396Y-17083389D01*
X7668396Y-17083389D02*
X7716015Y-17083389D01*
X7716015Y-17083389D02*
X7735063Y-17092913D01*
X7735063Y-17092913D02*
X7744586Y-17102436D01*
X7744586Y-17102436D02*
X7754110Y-17121484D01*
X7754110Y-17121484D02*
X7754110Y-17140532D01*
X7754110Y-17140532D02*
X7744586Y-17169103D01*
X7744586Y-17169103D02*
X7630301Y-17283389D01*
X7630301Y-17283389D02*
X7754110Y-17283389D01*
X7849348Y-17283389D02*
X7887443Y-17283389D01*
X7887443Y-17283389D02*
X7906491Y-17273865D01*
X7906491Y-17273865D02*
X7916015Y-17264341D01*
X7916015Y-17264341D02*
X7935063Y-17235770D01*
X7935063Y-17235770D02*
X7944586Y-17197675D01*
X7944586Y-17197675D02*
X7944586Y-17121484D01*
X7944586Y-17121484D02*
X7935063Y-17102436D01*
X7935063Y-17102436D02*
X7925539Y-17092913D01*
X7925539Y-17092913D02*
X7906491Y-17083389D01*
X7906491Y-17083389D02*
X7868396Y-17083389D01*
X7868396Y-17083389D02*
X7849348Y-17092913D01*
X7849348Y-17092913D02*
X7839824Y-17102436D01*
X7839824Y-17102436D02*
X7830301Y-17121484D01*
X7830301Y-17121484D02*
X7830301Y-17169103D01*
X7830301Y-17169103D02*
X7839824Y-17188151D01*
X7839824Y-17188151D02*
X7849348Y-17197675D01*
X7849348Y-17197675D02*
X7868396Y-17207198D01*
X7868396Y-17207198D02*
X7906491Y-17207198D01*
X7906491Y-17207198D02*
X7925539Y-17197675D01*
X7925539Y-17197675D02*
X7935063Y-17188151D01*
X7935063Y-17188151D02*
X7944586Y-17169103D01*
X8116015Y-17083389D02*
X8077920Y-17083389D01*
X8077920Y-17083389D02*
X8058872Y-17092913D01*
X8058872Y-17092913D02*
X8049348Y-17102436D01*
X8049348Y-17102436D02*
X8030301Y-17131008D01*
X8030301Y-17131008D02*
X8020777Y-17169103D01*
X8020777Y-17169103D02*
X8020777Y-17245294D01*
X8020777Y-17245294D02*
X8030301Y-17264341D01*
X8030301Y-17264341D02*
X8039824Y-17273865D01*
X8039824Y-17273865D02*
X8058872Y-17283389D01*
X8058872Y-17283389D02*
X8096967Y-17283389D01*
X8096967Y-17283389D02*
X8116015Y-17273865D01*
X8116015Y-17273865D02*
X8125539Y-17264341D01*
X8125539Y-17264341D02*
X8135063Y-17245294D01*
X8135063Y-17245294D02*
X8135063Y-17197675D01*
X8135063Y-17197675D02*
X8125539Y-17178627D01*
X8125539Y-17178627D02*
X8116015Y-17169103D01*
X8116015Y-17169103D02*
X8096967Y-17159579D01*
X8096967Y-17159579D02*
X8058872Y-17159579D01*
X8058872Y-17159579D02*
X8039824Y-17169103D01*
X8039824Y-17169103D02*
X8030301Y-17178627D01*
X8030301Y-17178627D02*
X8020777Y-17197675D01*
X8373158Y-17283389D02*
X8373158Y-17083389D01*
X8458872Y-17283389D02*
X8458872Y-17178627D01*
X8458872Y-17178627D02*
X8449348Y-17159579D01*
X8449348Y-17159579D02*
X8430301Y-17150055D01*
X8430301Y-17150055D02*
X8401729Y-17150055D01*
X8401729Y-17150055D02*
X8382682Y-17159579D01*
X8382682Y-17159579D02*
X8373158Y-17169103D01*
X8582682Y-17283389D02*
X8563634Y-17273865D01*
X8563634Y-17273865D02*
X8554110Y-17264341D01*
X8554110Y-17264341D02*
X8544587Y-17245294D01*
X8544587Y-17245294D02*
X8544587Y-17188151D01*
X8544587Y-17188151D02*
X8554110Y-17169103D01*
X8554110Y-17169103D02*
X8563634Y-17159579D01*
X8563634Y-17159579D02*
X8582682Y-17150055D01*
X8582682Y-17150055D02*
X8611253Y-17150055D01*
X8611253Y-17150055D02*
X8630301Y-17159579D01*
X8630301Y-17159579D02*
X8639825Y-17169103D01*
X8639825Y-17169103D02*
X8649348Y-17188151D01*
X8649348Y-17188151D02*
X8649348Y-17245294D01*
X8649348Y-17245294D02*
X8639825Y-17264341D01*
X8639825Y-17264341D02*
X8630301Y-17273865D01*
X8630301Y-17273865D02*
X8611253Y-17283389D01*
X8611253Y-17283389D02*
X8582682Y-17283389D01*
X8763634Y-17283389D02*
X8744587Y-17273865D01*
X8744587Y-17273865D02*
X8735063Y-17254817D01*
X8735063Y-17254817D02*
X8735063Y-17083389D01*
X8916015Y-17273865D02*
X8896968Y-17283389D01*
X8896968Y-17283389D02*
X8858872Y-17283389D01*
X8858872Y-17283389D02*
X8839825Y-17273865D01*
X8839825Y-17273865D02*
X8830301Y-17254817D01*
X8830301Y-17254817D02*
X8830301Y-17178627D01*
X8830301Y-17178627D02*
X8839825Y-17159579D01*
X8839825Y-17159579D02*
X8858872Y-17150055D01*
X8858872Y-17150055D02*
X8896968Y-17150055D01*
X8896968Y-17150055D02*
X8916015Y-17159579D01*
X8916015Y-17159579D02*
X8925539Y-17178627D01*
X8925539Y-17178627D02*
X8925539Y-17197675D01*
X8925539Y-17197675D02*
X8830301Y-17216722D01*
X9001729Y-17273865D02*
X9020777Y-17283389D01*
X9020777Y-17283389D02*
X9058872Y-17283389D01*
X9058872Y-17283389D02*
X9077920Y-17273865D01*
X9077920Y-17273865D02*
X9087444Y-17254817D01*
X9087444Y-17254817D02*
X9087444Y-17245294D01*
X9087444Y-17245294D02*
X9077920Y-17226246D01*
X9077920Y-17226246D02*
X9058872Y-17216722D01*
X9058872Y-17216722D02*
X9030301Y-17216722D01*
X9030301Y-17216722D02*
X9011253Y-17207198D01*
X9011253Y-17207198D02*
X9001729Y-17188151D01*
X9001729Y-17188151D02*
X9001729Y-17178627D01*
X9001729Y-17178627D02*
X9011253Y-17159579D01*
X9011253Y-17159579D02*
X9030301Y-17150055D01*
X9030301Y-17150055D02*
X9058872Y-17150055D01*
X9058872Y-17150055D02*
X9077920Y-17159579D01*
X9154110Y-17359579D02*
X9163634Y-17350055D01*
X9163634Y-17350055D02*
X9182682Y-17321484D01*
X9182682Y-17321484D02*
X9192206Y-17302436D01*
X9192206Y-17302436D02*
X9201729Y-17273865D01*
X9201729Y-17273865D02*
X9211253Y-17226246D01*
X9211253Y-17226246D02*
X9211253Y-17188151D01*
X9211253Y-17188151D02*
X9201729Y-17140532D01*
X9201729Y-17140532D02*
X9192206Y-17111960D01*
X9192206Y-17111960D02*
X9182682Y-17092913D01*
X9182682Y-17092913D02*
X9163634Y-17064341D01*
X9163634Y-17064341D02*
X9154110Y-17054817D01*
D12*
X3998095Y-17455905D02*
G75*
G02*
X3958095Y-17455905I-20000J0D01*
G01*
X3958095Y-17455905D02*
G75*
G02*
X3998095Y-17455905I20000J0D01*
G01*
D11*
X4296967Y-17347389D02*
X4316015Y-17347389D01*
X4316015Y-17347389D02*
X4335062Y-17356913D01*
X4335062Y-17356913D02*
X4344586Y-17366436D01*
X4344586Y-17366436D02*
X4354110Y-17385484D01*
X4354110Y-17385484D02*
X4363634Y-17423579D01*
X4363634Y-17423579D02*
X4363634Y-17471198D01*
X4363634Y-17471198D02*
X4354110Y-17509294D01*
X4354110Y-17509294D02*
X4344586Y-17528341D01*
X4344586Y-17528341D02*
X4335062Y-17537865D01*
X4335062Y-17537865D02*
X4316015Y-17547389D01*
X4316015Y-17547389D02*
X4296967Y-17547389D01*
X4296967Y-17547389D02*
X4277919Y-17537865D01*
X4277919Y-17537865D02*
X4268396Y-17528341D01*
X4268396Y-17528341D02*
X4258872Y-17509294D01*
X4258872Y-17509294D02*
X4249348Y-17471198D01*
X4249348Y-17471198D02*
X4249348Y-17423579D01*
X4249348Y-17423579D02*
X4258872Y-17385484D01*
X4258872Y-17385484D02*
X4268396Y-17366436D01*
X4268396Y-17366436D02*
X4277919Y-17356913D01*
X4277919Y-17356913D02*
X4296967Y-17347389D01*
X4449348Y-17528341D02*
X4458872Y-17537865D01*
X4458872Y-17537865D02*
X4449348Y-17547389D01*
X4449348Y-17547389D02*
X4439824Y-17537865D01*
X4439824Y-17537865D02*
X4449348Y-17528341D01*
X4449348Y-17528341D02*
X4449348Y-17547389D01*
X4630300Y-17414055D02*
X4630300Y-17547389D01*
X4582681Y-17337865D02*
X4535062Y-17480722D01*
X4535062Y-17480722D02*
X4658872Y-17480722D01*
X4773158Y-17347389D02*
X4792205Y-17347389D01*
X4792205Y-17347389D02*
X4811253Y-17356913D01*
X4811253Y-17356913D02*
X4820777Y-17366436D01*
X4820777Y-17366436D02*
X4830300Y-17385484D01*
X4830300Y-17385484D02*
X4839824Y-17423579D01*
X4839824Y-17423579D02*
X4839824Y-17471198D01*
X4839824Y-17471198D02*
X4830300Y-17509294D01*
X4830300Y-17509294D02*
X4820777Y-17528341D01*
X4820777Y-17528341D02*
X4811253Y-17537865D01*
X4811253Y-17537865D02*
X4792205Y-17547389D01*
X4792205Y-17547389D02*
X4773158Y-17547389D01*
X4773158Y-17547389D02*
X4754110Y-17537865D01*
X4754110Y-17537865D02*
X4744586Y-17528341D01*
X4744586Y-17528341D02*
X4735062Y-17509294D01*
X4735062Y-17509294D02*
X4725539Y-17471198D01*
X4725539Y-17471198D02*
X4725539Y-17423579D01*
X4725539Y-17423579D02*
X4735062Y-17385484D01*
X4735062Y-17385484D02*
X4744586Y-17366436D01*
X4744586Y-17366436D02*
X4754110Y-17356913D01*
X4754110Y-17356913D02*
X4773158Y-17347389D01*
X4963634Y-17347389D02*
X4982681Y-17347389D01*
X4982681Y-17347389D02*
X5001729Y-17356913D01*
X5001729Y-17356913D02*
X5011253Y-17366436D01*
X5011253Y-17366436D02*
X5020777Y-17385484D01*
X5020777Y-17385484D02*
X5030300Y-17423579D01*
X5030300Y-17423579D02*
X5030300Y-17471198D01*
X5030300Y-17471198D02*
X5020777Y-17509294D01*
X5020777Y-17509294D02*
X5011253Y-17528341D01*
X5011253Y-17528341D02*
X5001729Y-17537865D01*
X5001729Y-17537865D02*
X4982681Y-17547389D01*
X4982681Y-17547389D02*
X4963634Y-17547389D01*
X4963634Y-17547389D02*
X4944586Y-17537865D01*
X4944586Y-17537865D02*
X4935062Y-17528341D01*
X4935062Y-17528341D02*
X4925539Y-17509294D01*
X4925539Y-17509294D02*
X4916015Y-17471198D01*
X4916015Y-17471198D02*
X4916015Y-17423579D01*
X4916015Y-17423579D02*
X4925539Y-17385484D01*
X4925539Y-17385484D02*
X4935062Y-17366436D01*
X4935062Y-17366436D02*
X4944586Y-17356913D01*
X4944586Y-17356913D02*
X4963634Y-17347389D01*
X5116015Y-17547389D02*
X5116015Y-17414055D01*
X5116015Y-17433103D02*
X5125539Y-17423579D01*
X5125539Y-17423579D02*
X5144586Y-17414055D01*
X5144586Y-17414055D02*
X5173158Y-17414055D01*
X5173158Y-17414055D02*
X5192205Y-17423579D01*
X5192205Y-17423579D02*
X5201729Y-17442627D01*
X5201729Y-17442627D02*
X5201729Y-17547389D01*
X5201729Y-17442627D02*
X5211253Y-17423579D01*
X5211253Y-17423579D02*
X5230300Y-17414055D01*
X5230300Y-17414055D02*
X5258872Y-17414055D01*
X5258872Y-17414055D02*
X5277920Y-17423579D01*
X5277920Y-17423579D02*
X5287443Y-17442627D01*
X5287443Y-17442627D02*
X5287443Y-17547389D01*
X5382681Y-17547389D02*
X5382681Y-17414055D01*
X5382681Y-17433103D02*
X5392205Y-17423579D01*
X5392205Y-17423579D02*
X5411253Y-17414055D01*
X5411253Y-17414055D02*
X5439824Y-17414055D01*
X5439824Y-17414055D02*
X5458872Y-17423579D01*
X5458872Y-17423579D02*
X5468396Y-17442627D01*
X5468396Y-17442627D02*
X5468396Y-17547389D01*
X5468396Y-17442627D02*
X5477920Y-17423579D01*
X5477920Y-17423579D02*
X5496967Y-17414055D01*
X5496967Y-17414055D02*
X5525539Y-17414055D01*
X5525539Y-17414055D02*
X5544586Y-17423579D01*
X5544586Y-17423579D02*
X5554110Y-17442627D01*
X5554110Y-17442627D02*
X5554110Y-17547389D01*
X5944586Y-17337865D02*
X5773158Y-17595008D01*
X6201729Y-17347389D02*
X6220777Y-17347389D01*
X6220777Y-17347389D02*
X6239824Y-17356913D01*
X6239824Y-17356913D02*
X6249348Y-17366436D01*
X6249348Y-17366436D02*
X6258872Y-17385484D01*
X6258872Y-17385484D02*
X6268396Y-17423579D01*
X6268396Y-17423579D02*
X6268396Y-17471198D01*
X6268396Y-17471198D02*
X6258872Y-17509294D01*
X6258872Y-17509294D02*
X6249348Y-17528341D01*
X6249348Y-17528341D02*
X6239824Y-17537865D01*
X6239824Y-17537865D02*
X6220777Y-17547389D01*
X6220777Y-17547389D02*
X6201729Y-17547389D01*
X6201729Y-17547389D02*
X6182681Y-17537865D01*
X6182681Y-17537865D02*
X6173158Y-17528341D01*
X6173158Y-17528341D02*
X6163634Y-17509294D01*
X6163634Y-17509294D02*
X6154110Y-17471198D01*
X6154110Y-17471198D02*
X6154110Y-17423579D01*
X6154110Y-17423579D02*
X6163634Y-17385484D01*
X6163634Y-17385484D02*
X6173158Y-17366436D01*
X6173158Y-17366436D02*
X6182681Y-17356913D01*
X6182681Y-17356913D02*
X6201729Y-17347389D01*
X6354110Y-17528341D02*
X6363634Y-17537865D01*
X6363634Y-17537865D02*
X6354110Y-17547389D01*
X6354110Y-17547389D02*
X6344586Y-17537865D01*
X6344586Y-17537865D02*
X6354110Y-17528341D01*
X6354110Y-17528341D02*
X6354110Y-17547389D01*
X6487443Y-17347389D02*
X6506491Y-17347389D01*
X6506491Y-17347389D02*
X6525539Y-17356913D01*
X6525539Y-17356913D02*
X6535062Y-17366436D01*
X6535062Y-17366436D02*
X6544586Y-17385484D01*
X6544586Y-17385484D02*
X6554110Y-17423579D01*
X6554110Y-17423579D02*
X6554110Y-17471198D01*
X6554110Y-17471198D02*
X6544586Y-17509294D01*
X6544586Y-17509294D02*
X6535062Y-17528341D01*
X6535062Y-17528341D02*
X6525539Y-17537865D01*
X6525539Y-17537865D02*
X6506491Y-17547389D01*
X6506491Y-17547389D02*
X6487443Y-17547389D01*
X6487443Y-17547389D02*
X6468396Y-17537865D01*
X6468396Y-17537865D02*
X6458872Y-17528341D01*
X6458872Y-17528341D02*
X6449348Y-17509294D01*
X6449348Y-17509294D02*
X6439824Y-17471198D01*
X6439824Y-17471198D02*
X6439824Y-17423579D01*
X6439824Y-17423579D02*
X6449348Y-17385484D01*
X6449348Y-17385484D02*
X6458872Y-17366436D01*
X6458872Y-17366436D02*
X6468396Y-17356913D01*
X6468396Y-17356913D02*
X6487443Y-17347389D01*
X6744586Y-17547389D02*
X6630301Y-17547389D01*
X6687443Y-17547389D02*
X6687443Y-17347389D01*
X6687443Y-17347389D02*
X6668396Y-17375960D01*
X6668396Y-17375960D02*
X6649348Y-17395008D01*
X6649348Y-17395008D02*
X6630301Y-17404532D01*
X6925539Y-17347389D02*
X6830301Y-17347389D01*
X6830301Y-17347389D02*
X6820777Y-17442627D01*
X6820777Y-17442627D02*
X6830301Y-17433103D01*
X6830301Y-17433103D02*
X6849348Y-17423579D01*
X6849348Y-17423579D02*
X6896967Y-17423579D01*
X6896967Y-17423579D02*
X6916015Y-17433103D01*
X6916015Y-17433103D02*
X6925539Y-17442627D01*
X6925539Y-17442627D02*
X6935062Y-17461675D01*
X6935062Y-17461675D02*
X6935062Y-17509294D01*
X6935062Y-17509294D02*
X6925539Y-17528341D01*
X6925539Y-17528341D02*
X6916015Y-17537865D01*
X6916015Y-17537865D02*
X6896967Y-17547389D01*
X6896967Y-17547389D02*
X6849348Y-17547389D01*
X6849348Y-17547389D02*
X6830301Y-17537865D01*
X6830301Y-17537865D02*
X6820777Y-17528341D01*
X7001729Y-17347389D02*
X7135062Y-17347389D01*
X7135062Y-17347389D02*
X7049348Y-17547389D01*
X7201729Y-17347389D02*
X7201729Y-17385484D01*
X7277920Y-17347389D02*
X7277920Y-17385484D01*
X7573158Y-17623579D02*
X7563634Y-17614055D01*
X7563634Y-17614055D02*
X7544586Y-17585484D01*
X7544586Y-17585484D02*
X7535063Y-17566436D01*
X7535063Y-17566436D02*
X7525539Y-17537865D01*
X7525539Y-17537865D02*
X7516015Y-17490246D01*
X7516015Y-17490246D02*
X7516015Y-17452151D01*
X7516015Y-17452151D02*
X7525539Y-17404532D01*
X7525539Y-17404532D02*
X7535063Y-17375960D01*
X7535063Y-17375960D02*
X7544586Y-17356913D01*
X7544586Y-17356913D02*
X7563634Y-17328341D01*
X7563634Y-17328341D02*
X7573158Y-17318817D01*
X7754110Y-17547389D02*
X7639824Y-17547389D01*
X7696967Y-17547389D02*
X7696967Y-17347389D01*
X7696967Y-17347389D02*
X7677920Y-17375960D01*
X7677920Y-17375960D02*
X7658872Y-17395008D01*
X7658872Y-17395008D02*
X7639824Y-17404532D01*
X7925539Y-17414055D02*
X7925539Y-17547389D01*
X7877920Y-17337865D02*
X7830301Y-17480722D01*
X7830301Y-17480722D02*
X7954110Y-17480722D01*
X8125539Y-17347389D02*
X8030301Y-17347389D01*
X8030301Y-17347389D02*
X8020777Y-17442627D01*
X8020777Y-17442627D02*
X8030301Y-17433103D01*
X8030301Y-17433103D02*
X8049348Y-17423579D01*
X8049348Y-17423579D02*
X8096967Y-17423579D01*
X8096967Y-17423579D02*
X8116015Y-17433103D01*
X8116015Y-17433103D02*
X8125539Y-17442627D01*
X8125539Y-17442627D02*
X8135063Y-17461675D01*
X8135063Y-17461675D02*
X8135063Y-17509294D01*
X8135063Y-17509294D02*
X8125539Y-17528341D01*
X8125539Y-17528341D02*
X8116015Y-17537865D01*
X8116015Y-17537865D02*
X8096967Y-17547389D01*
X8096967Y-17547389D02*
X8049348Y-17547389D01*
X8049348Y-17547389D02*
X8030301Y-17537865D01*
X8030301Y-17537865D02*
X8020777Y-17528341D01*
X8373158Y-17547389D02*
X8373158Y-17347389D01*
X8458872Y-17547389D02*
X8458872Y-17442627D01*
X8458872Y-17442627D02*
X8449348Y-17423579D01*
X8449348Y-17423579D02*
X8430301Y-17414055D01*
X8430301Y-17414055D02*
X8401729Y-17414055D01*
X8401729Y-17414055D02*
X8382682Y-17423579D01*
X8382682Y-17423579D02*
X8373158Y-17433103D01*
X8582682Y-17547389D02*
X8563634Y-17537865D01*
X8563634Y-17537865D02*
X8554110Y-17528341D01*
X8554110Y-17528341D02*
X8544587Y-17509294D01*
X8544587Y-17509294D02*
X8544587Y-17452151D01*
X8544587Y-17452151D02*
X8554110Y-17433103D01*
X8554110Y-17433103D02*
X8563634Y-17423579D01*
X8563634Y-17423579D02*
X8582682Y-17414055D01*
X8582682Y-17414055D02*
X8611253Y-17414055D01*
X8611253Y-17414055D02*
X8630301Y-17423579D01*
X8630301Y-17423579D02*
X8639825Y-17433103D01*
X8639825Y-17433103D02*
X8649348Y-17452151D01*
X8649348Y-17452151D02*
X8649348Y-17509294D01*
X8649348Y-17509294D02*
X8639825Y-17528341D01*
X8639825Y-17528341D02*
X8630301Y-17537865D01*
X8630301Y-17537865D02*
X8611253Y-17547389D01*
X8611253Y-17547389D02*
X8582682Y-17547389D01*
X8763634Y-17547389D02*
X8744587Y-17537865D01*
X8744587Y-17537865D02*
X8735063Y-17518817D01*
X8735063Y-17518817D02*
X8735063Y-17347389D01*
X8916015Y-17537865D02*
X8896968Y-17547389D01*
X8896968Y-17547389D02*
X8858872Y-17547389D01*
X8858872Y-17547389D02*
X8839825Y-17537865D01*
X8839825Y-17537865D02*
X8830301Y-17518817D01*
X8830301Y-17518817D02*
X8830301Y-17442627D01*
X8830301Y-17442627D02*
X8839825Y-17423579D01*
X8839825Y-17423579D02*
X8858872Y-17414055D01*
X8858872Y-17414055D02*
X8896968Y-17414055D01*
X8896968Y-17414055D02*
X8916015Y-17423579D01*
X8916015Y-17423579D02*
X8925539Y-17442627D01*
X8925539Y-17442627D02*
X8925539Y-17461675D01*
X8925539Y-17461675D02*
X8830301Y-17480722D01*
X9001729Y-17537865D02*
X9020777Y-17547389D01*
X9020777Y-17547389D02*
X9058872Y-17547389D01*
X9058872Y-17547389D02*
X9077920Y-17537865D01*
X9077920Y-17537865D02*
X9087444Y-17518817D01*
X9087444Y-17518817D02*
X9087444Y-17509294D01*
X9087444Y-17509294D02*
X9077920Y-17490246D01*
X9077920Y-17490246D02*
X9058872Y-17480722D01*
X9058872Y-17480722D02*
X9030301Y-17480722D01*
X9030301Y-17480722D02*
X9011253Y-17471198D01*
X9011253Y-17471198D02*
X9001729Y-17452151D01*
X9001729Y-17452151D02*
X9001729Y-17442627D01*
X9001729Y-17442627D02*
X9011253Y-17423579D01*
X9011253Y-17423579D02*
X9030301Y-17414055D01*
X9030301Y-17414055D02*
X9058872Y-17414055D01*
X9058872Y-17414055D02*
X9077920Y-17423579D01*
X9154110Y-17623579D02*
X9163634Y-17614055D01*
X9163634Y-17614055D02*
X9182682Y-17585484D01*
X9182682Y-17585484D02*
X9192206Y-17566436D01*
X9192206Y-17566436D02*
X9201729Y-17537865D01*
X9201729Y-17537865D02*
X9211253Y-17490246D01*
X9211253Y-17490246D02*
X9211253Y-17452151D01*
X9211253Y-17452151D02*
X9201729Y-17404532D01*
X9201729Y-17404532D02*
X9192206Y-17375960D01*
X9192206Y-17375960D02*
X9182682Y-17356913D01*
X9182682Y-17356913D02*
X9163634Y-17328341D01*
X9163634Y-17328341D02*
X9154110Y-17318817D01*
D12*
X3978095Y-17699905D02*
X3978095Y-17739905D01*
X3958095Y-17719905D02*
X3998095Y-17719905D01*
D11*
X4296967Y-17611389D02*
X4316015Y-17611389D01*
X4316015Y-17611389D02*
X4335062Y-17620913D01*
X4335062Y-17620913D02*
X4344586Y-17630436D01*
X4344586Y-17630436D02*
X4354110Y-17649484D01*
X4354110Y-17649484D02*
X4363634Y-17687579D01*
X4363634Y-17687579D02*
X4363634Y-17735198D01*
X4363634Y-17735198D02*
X4354110Y-17773294D01*
X4354110Y-17773294D02*
X4344586Y-17792341D01*
X4344586Y-17792341D02*
X4335062Y-17801865D01*
X4335062Y-17801865D02*
X4316015Y-17811389D01*
X4316015Y-17811389D02*
X4296967Y-17811389D01*
X4296967Y-17811389D02*
X4277919Y-17801865D01*
X4277919Y-17801865D02*
X4268396Y-17792341D01*
X4268396Y-17792341D02*
X4258872Y-17773294D01*
X4258872Y-17773294D02*
X4249348Y-17735198D01*
X4249348Y-17735198D02*
X4249348Y-17687579D01*
X4249348Y-17687579D02*
X4258872Y-17649484D01*
X4258872Y-17649484D02*
X4268396Y-17630436D01*
X4268396Y-17630436D02*
X4277919Y-17620913D01*
X4277919Y-17620913D02*
X4296967Y-17611389D01*
X4449348Y-17792341D02*
X4458872Y-17801865D01*
X4458872Y-17801865D02*
X4449348Y-17811389D01*
X4449348Y-17811389D02*
X4439824Y-17801865D01*
X4439824Y-17801865D02*
X4449348Y-17792341D01*
X4449348Y-17792341D02*
X4449348Y-17811389D01*
X4630300Y-17678055D02*
X4630300Y-17811389D01*
X4582681Y-17601865D02*
X4535062Y-17744722D01*
X4535062Y-17744722D02*
X4658872Y-17744722D01*
X4773158Y-17611389D02*
X4792205Y-17611389D01*
X4792205Y-17611389D02*
X4811253Y-17620913D01*
X4811253Y-17620913D02*
X4820777Y-17630436D01*
X4820777Y-17630436D02*
X4830300Y-17649484D01*
X4830300Y-17649484D02*
X4839824Y-17687579D01*
X4839824Y-17687579D02*
X4839824Y-17735198D01*
X4839824Y-17735198D02*
X4830300Y-17773294D01*
X4830300Y-17773294D02*
X4820777Y-17792341D01*
X4820777Y-17792341D02*
X4811253Y-17801865D01*
X4811253Y-17801865D02*
X4792205Y-17811389D01*
X4792205Y-17811389D02*
X4773158Y-17811389D01*
X4773158Y-17811389D02*
X4754110Y-17801865D01*
X4754110Y-17801865D02*
X4744586Y-17792341D01*
X4744586Y-17792341D02*
X4735062Y-17773294D01*
X4735062Y-17773294D02*
X4725539Y-17735198D01*
X4725539Y-17735198D02*
X4725539Y-17687579D01*
X4725539Y-17687579D02*
X4735062Y-17649484D01*
X4735062Y-17649484D02*
X4744586Y-17630436D01*
X4744586Y-17630436D02*
X4754110Y-17620913D01*
X4754110Y-17620913D02*
X4773158Y-17611389D01*
X4963634Y-17611389D02*
X4982681Y-17611389D01*
X4982681Y-17611389D02*
X5001729Y-17620913D01*
X5001729Y-17620913D02*
X5011253Y-17630436D01*
X5011253Y-17630436D02*
X5020777Y-17649484D01*
X5020777Y-17649484D02*
X5030300Y-17687579D01*
X5030300Y-17687579D02*
X5030300Y-17735198D01*
X5030300Y-17735198D02*
X5020777Y-17773294D01*
X5020777Y-17773294D02*
X5011253Y-17792341D01*
X5011253Y-17792341D02*
X5001729Y-17801865D01*
X5001729Y-17801865D02*
X4982681Y-17811389D01*
X4982681Y-17811389D02*
X4963634Y-17811389D01*
X4963634Y-17811389D02*
X4944586Y-17801865D01*
X4944586Y-17801865D02*
X4935062Y-17792341D01*
X4935062Y-17792341D02*
X4925539Y-17773294D01*
X4925539Y-17773294D02*
X4916015Y-17735198D01*
X4916015Y-17735198D02*
X4916015Y-17687579D01*
X4916015Y-17687579D02*
X4925539Y-17649484D01*
X4925539Y-17649484D02*
X4935062Y-17630436D01*
X4935062Y-17630436D02*
X4944586Y-17620913D01*
X4944586Y-17620913D02*
X4963634Y-17611389D01*
X5116015Y-17811389D02*
X5116015Y-17678055D01*
X5116015Y-17697103D02*
X5125539Y-17687579D01*
X5125539Y-17687579D02*
X5144586Y-17678055D01*
X5144586Y-17678055D02*
X5173158Y-17678055D01*
X5173158Y-17678055D02*
X5192205Y-17687579D01*
X5192205Y-17687579D02*
X5201729Y-17706627D01*
X5201729Y-17706627D02*
X5201729Y-17811389D01*
X5201729Y-17706627D02*
X5211253Y-17687579D01*
X5211253Y-17687579D02*
X5230300Y-17678055D01*
X5230300Y-17678055D02*
X5258872Y-17678055D01*
X5258872Y-17678055D02*
X5277920Y-17687579D01*
X5277920Y-17687579D02*
X5287443Y-17706627D01*
X5287443Y-17706627D02*
X5287443Y-17811389D01*
X5382681Y-17811389D02*
X5382681Y-17678055D01*
X5382681Y-17697103D02*
X5392205Y-17687579D01*
X5392205Y-17687579D02*
X5411253Y-17678055D01*
X5411253Y-17678055D02*
X5439824Y-17678055D01*
X5439824Y-17678055D02*
X5458872Y-17687579D01*
X5458872Y-17687579D02*
X5468396Y-17706627D01*
X5468396Y-17706627D02*
X5468396Y-17811389D01*
X5468396Y-17706627D02*
X5477920Y-17687579D01*
X5477920Y-17687579D02*
X5496967Y-17678055D01*
X5496967Y-17678055D02*
X5525539Y-17678055D01*
X5525539Y-17678055D02*
X5544586Y-17687579D01*
X5544586Y-17687579D02*
X5554110Y-17706627D01*
X5554110Y-17706627D02*
X5554110Y-17811389D01*
X5944586Y-17601865D02*
X5773158Y-17859008D01*
X6201729Y-17611389D02*
X6220777Y-17611389D01*
X6220777Y-17611389D02*
X6239824Y-17620913D01*
X6239824Y-17620913D02*
X6249348Y-17630436D01*
X6249348Y-17630436D02*
X6258872Y-17649484D01*
X6258872Y-17649484D02*
X6268396Y-17687579D01*
X6268396Y-17687579D02*
X6268396Y-17735198D01*
X6268396Y-17735198D02*
X6258872Y-17773294D01*
X6258872Y-17773294D02*
X6249348Y-17792341D01*
X6249348Y-17792341D02*
X6239824Y-17801865D01*
X6239824Y-17801865D02*
X6220777Y-17811389D01*
X6220777Y-17811389D02*
X6201729Y-17811389D01*
X6201729Y-17811389D02*
X6182681Y-17801865D01*
X6182681Y-17801865D02*
X6173158Y-17792341D01*
X6173158Y-17792341D02*
X6163634Y-17773294D01*
X6163634Y-17773294D02*
X6154110Y-17735198D01*
X6154110Y-17735198D02*
X6154110Y-17687579D01*
X6154110Y-17687579D02*
X6163634Y-17649484D01*
X6163634Y-17649484D02*
X6173158Y-17630436D01*
X6173158Y-17630436D02*
X6182681Y-17620913D01*
X6182681Y-17620913D02*
X6201729Y-17611389D01*
X6354110Y-17792341D02*
X6363634Y-17801865D01*
X6363634Y-17801865D02*
X6354110Y-17811389D01*
X6354110Y-17811389D02*
X6344586Y-17801865D01*
X6344586Y-17801865D02*
X6354110Y-17792341D01*
X6354110Y-17792341D02*
X6354110Y-17811389D01*
X6487443Y-17611389D02*
X6506491Y-17611389D01*
X6506491Y-17611389D02*
X6525539Y-17620913D01*
X6525539Y-17620913D02*
X6535062Y-17630436D01*
X6535062Y-17630436D02*
X6544586Y-17649484D01*
X6544586Y-17649484D02*
X6554110Y-17687579D01*
X6554110Y-17687579D02*
X6554110Y-17735198D01*
X6554110Y-17735198D02*
X6544586Y-17773294D01*
X6544586Y-17773294D02*
X6535062Y-17792341D01*
X6535062Y-17792341D02*
X6525539Y-17801865D01*
X6525539Y-17801865D02*
X6506491Y-17811389D01*
X6506491Y-17811389D02*
X6487443Y-17811389D01*
X6487443Y-17811389D02*
X6468396Y-17801865D01*
X6468396Y-17801865D02*
X6458872Y-17792341D01*
X6458872Y-17792341D02*
X6449348Y-17773294D01*
X6449348Y-17773294D02*
X6439824Y-17735198D01*
X6439824Y-17735198D02*
X6439824Y-17687579D01*
X6439824Y-17687579D02*
X6449348Y-17649484D01*
X6449348Y-17649484D02*
X6458872Y-17630436D01*
X6458872Y-17630436D02*
X6468396Y-17620913D01*
X6468396Y-17620913D02*
X6487443Y-17611389D01*
X6744586Y-17811389D02*
X6630301Y-17811389D01*
X6687443Y-17811389D02*
X6687443Y-17611389D01*
X6687443Y-17611389D02*
X6668396Y-17639960D01*
X6668396Y-17639960D02*
X6649348Y-17659008D01*
X6649348Y-17659008D02*
X6630301Y-17668532D01*
X6925539Y-17611389D02*
X6830301Y-17611389D01*
X6830301Y-17611389D02*
X6820777Y-17706627D01*
X6820777Y-17706627D02*
X6830301Y-17697103D01*
X6830301Y-17697103D02*
X6849348Y-17687579D01*
X6849348Y-17687579D02*
X6896967Y-17687579D01*
X6896967Y-17687579D02*
X6916015Y-17697103D01*
X6916015Y-17697103D02*
X6925539Y-17706627D01*
X6925539Y-17706627D02*
X6935062Y-17725675D01*
X6935062Y-17725675D02*
X6935062Y-17773294D01*
X6935062Y-17773294D02*
X6925539Y-17792341D01*
X6925539Y-17792341D02*
X6916015Y-17801865D01*
X6916015Y-17801865D02*
X6896967Y-17811389D01*
X6896967Y-17811389D02*
X6849348Y-17811389D01*
X6849348Y-17811389D02*
X6830301Y-17801865D01*
X6830301Y-17801865D02*
X6820777Y-17792341D01*
X7001729Y-17611389D02*
X7135062Y-17611389D01*
X7135062Y-17611389D02*
X7049348Y-17811389D01*
X7201729Y-17611389D02*
X7201729Y-17649484D01*
X7277920Y-17611389D02*
X7277920Y-17649484D01*
X7573158Y-17887579D02*
X7563634Y-17878055D01*
X7563634Y-17878055D02*
X7544586Y-17849484D01*
X7544586Y-17849484D02*
X7535063Y-17830436D01*
X7535063Y-17830436D02*
X7525539Y-17801865D01*
X7525539Y-17801865D02*
X7516015Y-17754246D01*
X7516015Y-17754246D02*
X7516015Y-17716151D01*
X7516015Y-17716151D02*
X7525539Y-17668532D01*
X7525539Y-17668532D02*
X7535063Y-17639960D01*
X7535063Y-17639960D02*
X7544586Y-17620913D01*
X7544586Y-17620913D02*
X7563634Y-17592341D01*
X7563634Y-17592341D02*
X7573158Y-17582817D01*
X7754110Y-17811389D02*
X7639824Y-17811389D01*
X7696967Y-17811389D02*
X7696967Y-17611389D01*
X7696967Y-17611389D02*
X7677920Y-17639960D01*
X7677920Y-17639960D02*
X7658872Y-17659008D01*
X7658872Y-17659008D02*
X7639824Y-17668532D01*
X7925539Y-17611389D02*
X7887443Y-17611389D01*
X7887443Y-17611389D02*
X7868396Y-17620913D01*
X7868396Y-17620913D02*
X7858872Y-17630436D01*
X7858872Y-17630436D02*
X7839824Y-17659008D01*
X7839824Y-17659008D02*
X7830301Y-17697103D01*
X7830301Y-17697103D02*
X7830301Y-17773294D01*
X7830301Y-17773294D02*
X7839824Y-17792341D01*
X7839824Y-17792341D02*
X7849348Y-17801865D01*
X7849348Y-17801865D02*
X7868396Y-17811389D01*
X7868396Y-17811389D02*
X7906491Y-17811389D01*
X7906491Y-17811389D02*
X7925539Y-17801865D01*
X7925539Y-17801865D02*
X7935063Y-17792341D01*
X7935063Y-17792341D02*
X7944586Y-17773294D01*
X7944586Y-17773294D02*
X7944586Y-17725675D01*
X7944586Y-17725675D02*
X7935063Y-17706627D01*
X7935063Y-17706627D02*
X7925539Y-17697103D01*
X7925539Y-17697103D02*
X7906491Y-17687579D01*
X7906491Y-17687579D02*
X7868396Y-17687579D01*
X7868396Y-17687579D02*
X7849348Y-17697103D01*
X7849348Y-17697103D02*
X7839824Y-17706627D01*
X7839824Y-17706627D02*
X7830301Y-17725675D01*
X8182682Y-17811389D02*
X8182682Y-17611389D01*
X8268396Y-17811389D02*
X8268396Y-17706627D01*
X8268396Y-17706627D02*
X8258872Y-17687579D01*
X8258872Y-17687579D02*
X8239825Y-17678055D01*
X8239825Y-17678055D02*
X8211253Y-17678055D01*
X8211253Y-17678055D02*
X8192205Y-17687579D01*
X8192205Y-17687579D02*
X8182682Y-17697103D01*
X8392206Y-17811389D02*
X8373158Y-17801865D01*
X8373158Y-17801865D02*
X8363634Y-17792341D01*
X8363634Y-17792341D02*
X8354110Y-17773294D01*
X8354110Y-17773294D02*
X8354110Y-17716151D01*
X8354110Y-17716151D02*
X8363634Y-17697103D01*
X8363634Y-17697103D02*
X8373158Y-17687579D01*
X8373158Y-17687579D02*
X8392206Y-17678055D01*
X8392206Y-17678055D02*
X8420777Y-17678055D01*
X8420777Y-17678055D02*
X8439825Y-17687579D01*
X8439825Y-17687579D02*
X8449348Y-17697103D01*
X8449348Y-17697103D02*
X8458872Y-17716151D01*
X8458872Y-17716151D02*
X8458872Y-17773294D01*
X8458872Y-17773294D02*
X8449348Y-17792341D01*
X8449348Y-17792341D02*
X8439825Y-17801865D01*
X8439825Y-17801865D02*
X8420777Y-17811389D01*
X8420777Y-17811389D02*
X8392206Y-17811389D01*
X8573158Y-17811389D02*
X8554110Y-17801865D01*
X8554110Y-17801865D02*
X8544587Y-17782817D01*
X8544587Y-17782817D02*
X8544587Y-17611389D01*
X8725539Y-17801865D02*
X8706491Y-17811389D01*
X8706491Y-17811389D02*
X8668396Y-17811389D01*
X8668396Y-17811389D02*
X8649348Y-17801865D01*
X8649348Y-17801865D02*
X8639825Y-17782817D01*
X8639825Y-17782817D02*
X8639825Y-17706627D01*
X8639825Y-17706627D02*
X8649348Y-17687579D01*
X8649348Y-17687579D02*
X8668396Y-17678055D01*
X8668396Y-17678055D02*
X8706491Y-17678055D01*
X8706491Y-17678055D02*
X8725539Y-17687579D01*
X8725539Y-17687579D02*
X8735063Y-17706627D01*
X8735063Y-17706627D02*
X8735063Y-17725675D01*
X8735063Y-17725675D02*
X8639825Y-17744722D01*
X8811253Y-17801865D02*
X8830301Y-17811389D01*
X8830301Y-17811389D02*
X8868396Y-17811389D01*
X8868396Y-17811389D02*
X8887444Y-17801865D01*
X8887444Y-17801865D02*
X8896968Y-17782817D01*
X8896968Y-17782817D02*
X8896968Y-17773294D01*
X8896968Y-17773294D02*
X8887444Y-17754246D01*
X8887444Y-17754246D02*
X8868396Y-17744722D01*
X8868396Y-17744722D02*
X8839825Y-17744722D01*
X8839825Y-17744722D02*
X8820777Y-17735198D01*
X8820777Y-17735198D02*
X8811253Y-17716151D01*
X8811253Y-17716151D02*
X8811253Y-17706627D01*
X8811253Y-17706627D02*
X8820777Y-17687579D01*
X8820777Y-17687579D02*
X8839825Y-17678055D01*
X8839825Y-17678055D02*
X8868396Y-17678055D01*
X8868396Y-17678055D02*
X8887444Y-17687579D01*
X8963634Y-17887579D02*
X8973158Y-17878055D01*
X8973158Y-17878055D02*
X8992206Y-17849484D01*
X8992206Y-17849484D02*
X9001729Y-17830436D01*
X9001729Y-17830436D02*
X9011253Y-17801865D01*
X9011253Y-17801865D02*
X9020777Y-17754246D01*
X9020777Y-17754246D02*
X9020777Y-17716151D01*
X9020777Y-17716151D02*
X9011253Y-17668532D01*
X9011253Y-17668532D02*
X9001729Y-17639960D01*
X9001729Y-17639960D02*
X8992206Y-17620913D01*
X8992206Y-17620913D02*
X8973158Y-17592341D01*
X8973158Y-17592341D02*
X8963634Y-17582817D01*
D12*
X3989308Y-18005118D02*
X3989308Y-17962692D01*
X3946882Y-17962692D01*
X3946882Y-18005118D01*
X3989308Y-18005118D01*
D11*
X4296967Y-17875389D02*
X4316015Y-17875389D01*
X4316015Y-17875389D02*
X4335062Y-17884913D01*
X4335062Y-17884913D02*
X4344586Y-17894436D01*
X4344586Y-17894436D02*
X4354110Y-17913484D01*
X4354110Y-17913484D02*
X4363634Y-17951579D01*
X4363634Y-17951579D02*
X4363634Y-17999198D01*
X4363634Y-17999198D02*
X4354110Y-18037294D01*
X4354110Y-18037294D02*
X4344586Y-18056341D01*
X4344586Y-18056341D02*
X4335062Y-18065865D01*
X4335062Y-18065865D02*
X4316015Y-18075389D01*
X4316015Y-18075389D02*
X4296967Y-18075389D01*
X4296967Y-18075389D02*
X4277919Y-18065865D01*
X4277919Y-18065865D02*
X4268396Y-18056341D01*
X4268396Y-18056341D02*
X4258872Y-18037294D01*
X4258872Y-18037294D02*
X4249348Y-17999198D01*
X4249348Y-17999198D02*
X4249348Y-17951579D01*
X4249348Y-17951579D02*
X4258872Y-17913484D01*
X4258872Y-17913484D02*
X4268396Y-17894436D01*
X4268396Y-17894436D02*
X4277919Y-17884913D01*
X4277919Y-17884913D02*
X4296967Y-17875389D01*
X4449348Y-18056341D02*
X4458872Y-18065865D01*
X4458872Y-18065865D02*
X4449348Y-18075389D01*
X4449348Y-18075389D02*
X4439824Y-18065865D01*
X4439824Y-18065865D02*
X4449348Y-18056341D01*
X4449348Y-18056341D02*
X4449348Y-18075389D01*
X4630300Y-17875389D02*
X4592205Y-17875389D01*
X4592205Y-17875389D02*
X4573158Y-17884913D01*
X4573158Y-17884913D02*
X4563634Y-17894436D01*
X4563634Y-17894436D02*
X4544586Y-17923008D01*
X4544586Y-17923008D02*
X4535062Y-17961103D01*
X4535062Y-17961103D02*
X4535062Y-18037294D01*
X4535062Y-18037294D02*
X4544586Y-18056341D01*
X4544586Y-18056341D02*
X4554110Y-18065865D01*
X4554110Y-18065865D02*
X4573158Y-18075389D01*
X4573158Y-18075389D02*
X4611253Y-18075389D01*
X4611253Y-18075389D02*
X4630300Y-18065865D01*
X4630300Y-18065865D02*
X4639824Y-18056341D01*
X4639824Y-18056341D02*
X4649348Y-18037294D01*
X4649348Y-18037294D02*
X4649348Y-17989675D01*
X4649348Y-17989675D02*
X4639824Y-17970627D01*
X4639824Y-17970627D02*
X4630300Y-17961103D01*
X4630300Y-17961103D02*
X4611253Y-17951579D01*
X4611253Y-17951579D02*
X4573158Y-17951579D01*
X4573158Y-17951579D02*
X4554110Y-17961103D01*
X4554110Y-17961103D02*
X4544586Y-17970627D01*
X4544586Y-17970627D02*
X4535062Y-17989675D01*
X4773158Y-17875389D02*
X4792205Y-17875389D01*
X4792205Y-17875389D02*
X4811253Y-17884913D01*
X4811253Y-17884913D02*
X4820777Y-17894436D01*
X4820777Y-17894436D02*
X4830300Y-17913484D01*
X4830300Y-17913484D02*
X4839824Y-17951579D01*
X4839824Y-17951579D02*
X4839824Y-17999198D01*
X4839824Y-17999198D02*
X4830300Y-18037294D01*
X4830300Y-18037294D02*
X4820777Y-18056341D01*
X4820777Y-18056341D02*
X4811253Y-18065865D01*
X4811253Y-18065865D02*
X4792205Y-18075389D01*
X4792205Y-18075389D02*
X4773158Y-18075389D01*
X4773158Y-18075389D02*
X4754110Y-18065865D01*
X4754110Y-18065865D02*
X4744586Y-18056341D01*
X4744586Y-18056341D02*
X4735062Y-18037294D01*
X4735062Y-18037294D02*
X4725539Y-17999198D01*
X4725539Y-17999198D02*
X4725539Y-17951579D01*
X4725539Y-17951579D02*
X4735062Y-17913484D01*
X4735062Y-17913484D02*
X4744586Y-17894436D01*
X4744586Y-17894436D02*
X4754110Y-17884913D01*
X4754110Y-17884913D02*
X4773158Y-17875389D01*
X4963634Y-17875389D02*
X4982681Y-17875389D01*
X4982681Y-17875389D02*
X5001729Y-17884913D01*
X5001729Y-17884913D02*
X5011253Y-17894436D01*
X5011253Y-17894436D02*
X5020777Y-17913484D01*
X5020777Y-17913484D02*
X5030300Y-17951579D01*
X5030300Y-17951579D02*
X5030300Y-17999198D01*
X5030300Y-17999198D02*
X5020777Y-18037294D01*
X5020777Y-18037294D02*
X5011253Y-18056341D01*
X5011253Y-18056341D02*
X5001729Y-18065865D01*
X5001729Y-18065865D02*
X4982681Y-18075389D01*
X4982681Y-18075389D02*
X4963634Y-18075389D01*
X4963634Y-18075389D02*
X4944586Y-18065865D01*
X4944586Y-18065865D02*
X4935062Y-18056341D01*
X4935062Y-18056341D02*
X4925539Y-18037294D01*
X4925539Y-18037294D02*
X4916015Y-17999198D01*
X4916015Y-17999198D02*
X4916015Y-17951579D01*
X4916015Y-17951579D02*
X4925539Y-17913484D01*
X4925539Y-17913484D02*
X4935062Y-17894436D01*
X4935062Y-17894436D02*
X4944586Y-17884913D01*
X4944586Y-17884913D02*
X4963634Y-17875389D01*
X5116015Y-18075389D02*
X5116015Y-17942055D01*
X5116015Y-17961103D02*
X5125539Y-17951579D01*
X5125539Y-17951579D02*
X5144586Y-17942055D01*
X5144586Y-17942055D02*
X5173158Y-17942055D01*
X5173158Y-17942055D02*
X5192205Y-17951579D01*
X5192205Y-17951579D02*
X5201729Y-17970627D01*
X5201729Y-17970627D02*
X5201729Y-18075389D01*
X5201729Y-17970627D02*
X5211253Y-17951579D01*
X5211253Y-17951579D02*
X5230300Y-17942055D01*
X5230300Y-17942055D02*
X5258872Y-17942055D01*
X5258872Y-17942055D02*
X5277920Y-17951579D01*
X5277920Y-17951579D02*
X5287443Y-17970627D01*
X5287443Y-17970627D02*
X5287443Y-18075389D01*
X5382681Y-18075389D02*
X5382681Y-17942055D01*
X5382681Y-17961103D02*
X5392205Y-17951579D01*
X5392205Y-17951579D02*
X5411253Y-17942055D01*
X5411253Y-17942055D02*
X5439824Y-17942055D01*
X5439824Y-17942055D02*
X5458872Y-17951579D01*
X5458872Y-17951579D02*
X5468396Y-17970627D01*
X5468396Y-17970627D02*
X5468396Y-18075389D01*
X5468396Y-17970627D02*
X5477920Y-17951579D01*
X5477920Y-17951579D02*
X5496967Y-17942055D01*
X5496967Y-17942055D02*
X5525539Y-17942055D01*
X5525539Y-17942055D02*
X5544586Y-17951579D01*
X5544586Y-17951579D02*
X5554110Y-17970627D01*
X5554110Y-17970627D02*
X5554110Y-18075389D01*
X5944586Y-17865865D02*
X5773158Y-18123008D01*
X6201729Y-17875389D02*
X6220777Y-17875389D01*
X6220777Y-17875389D02*
X6239824Y-17884913D01*
X6239824Y-17884913D02*
X6249348Y-17894436D01*
X6249348Y-17894436D02*
X6258872Y-17913484D01*
X6258872Y-17913484D02*
X6268396Y-17951579D01*
X6268396Y-17951579D02*
X6268396Y-17999198D01*
X6268396Y-17999198D02*
X6258872Y-18037294D01*
X6258872Y-18037294D02*
X6249348Y-18056341D01*
X6249348Y-18056341D02*
X6239824Y-18065865D01*
X6239824Y-18065865D02*
X6220777Y-18075389D01*
X6220777Y-18075389D02*
X6201729Y-18075389D01*
X6201729Y-18075389D02*
X6182681Y-18065865D01*
X6182681Y-18065865D02*
X6173158Y-18056341D01*
X6173158Y-18056341D02*
X6163634Y-18037294D01*
X6163634Y-18037294D02*
X6154110Y-17999198D01*
X6154110Y-17999198D02*
X6154110Y-17951579D01*
X6154110Y-17951579D02*
X6163634Y-17913484D01*
X6163634Y-17913484D02*
X6173158Y-17894436D01*
X6173158Y-17894436D02*
X6182681Y-17884913D01*
X6182681Y-17884913D02*
X6201729Y-17875389D01*
X6354110Y-18056341D02*
X6363634Y-18065865D01*
X6363634Y-18065865D02*
X6354110Y-18075389D01*
X6354110Y-18075389D02*
X6344586Y-18065865D01*
X6344586Y-18065865D02*
X6354110Y-18056341D01*
X6354110Y-18056341D02*
X6354110Y-18075389D01*
X6487443Y-17875389D02*
X6506491Y-17875389D01*
X6506491Y-17875389D02*
X6525539Y-17884913D01*
X6525539Y-17884913D02*
X6535062Y-17894436D01*
X6535062Y-17894436D02*
X6544586Y-17913484D01*
X6544586Y-17913484D02*
X6554110Y-17951579D01*
X6554110Y-17951579D02*
X6554110Y-17999198D01*
X6554110Y-17999198D02*
X6544586Y-18037294D01*
X6544586Y-18037294D02*
X6535062Y-18056341D01*
X6535062Y-18056341D02*
X6525539Y-18065865D01*
X6525539Y-18065865D02*
X6506491Y-18075389D01*
X6506491Y-18075389D02*
X6487443Y-18075389D01*
X6487443Y-18075389D02*
X6468396Y-18065865D01*
X6468396Y-18065865D02*
X6458872Y-18056341D01*
X6458872Y-18056341D02*
X6449348Y-18037294D01*
X6449348Y-18037294D02*
X6439824Y-17999198D01*
X6439824Y-17999198D02*
X6439824Y-17951579D01*
X6439824Y-17951579D02*
X6449348Y-17913484D01*
X6449348Y-17913484D02*
X6458872Y-17894436D01*
X6458872Y-17894436D02*
X6468396Y-17884913D01*
X6468396Y-17884913D02*
X6487443Y-17875389D01*
X6630301Y-17894436D02*
X6639824Y-17884913D01*
X6639824Y-17884913D02*
X6658872Y-17875389D01*
X6658872Y-17875389D02*
X6706491Y-17875389D01*
X6706491Y-17875389D02*
X6725539Y-17884913D01*
X6725539Y-17884913D02*
X6735062Y-17894436D01*
X6735062Y-17894436D02*
X6744586Y-17913484D01*
X6744586Y-17913484D02*
X6744586Y-17932532D01*
X6744586Y-17932532D02*
X6735062Y-17961103D01*
X6735062Y-17961103D02*
X6620777Y-18075389D01*
X6620777Y-18075389D02*
X6744586Y-18075389D01*
X6811253Y-17875389D02*
X6935062Y-17875389D01*
X6935062Y-17875389D02*
X6868396Y-17951579D01*
X6868396Y-17951579D02*
X6896967Y-17951579D01*
X6896967Y-17951579D02*
X6916015Y-17961103D01*
X6916015Y-17961103D02*
X6925539Y-17970627D01*
X6925539Y-17970627D02*
X6935062Y-17989675D01*
X6935062Y-17989675D02*
X6935062Y-18037294D01*
X6935062Y-18037294D02*
X6925539Y-18056341D01*
X6925539Y-18056341D02*
X6916015Y-18065865D01*
X6916015Y-18065865D02*
X6896967Y-18075389D01*
X6896967Y-18075389D02*
X6839824Y-18075389D01*
X6839824Y-18075389D02*
X6820777Y-18065865D01*
X6820777Y-18065865D02*
X6811253Y-18056341D01*
X7106491Y-17875389D02*
X7068396Y-17875389D01*
X7068396Y-17875389D02*
X7049348Y-17884913D01*
X7049348Y-17884913D02*
X7039824Y-17894436D01*
X7039824Y-17894436D02*
X7020777Y-17923008D01*
X7020777Y-17923008D02*
X7011253Y-17961103D01*
X7011253Y-17961103D02*
X7011253Y-18037294D01*
X7011253Y-18037294D02*
X7020777Y-18056341D01*
X7020777Y-18056341D02*
X7030301Y-18065865D01*
X7030301Y-18065865D02*
X7049348Y-18075389D01*
X7049348Y-18075389D02*
X7087443Y-18075389D01*
X7087443Y-18075389D02*
X7106491Y-18065865D01*
X7106491Y-18065865D02*
X7116015Y-18056341D01*
X7116015Y-18056341D02*
X7125539Y-18037294D01*
X7125539Y-18037294D02*
X7125539Y-17989675D01*
X7125539Y-17989675D02*
X7116015Y-17970627D01*
X7116015Y-17970627D02*
X7106491Y-17961103D01*
X7106491Y-17961103D02*
X7087443Y-17951579D01*
X7087443Y-17951579D02*
X7049348Y-17951579D01*
X7049348Y-17951579D02*
X7030301Y-17961103D01*
X7030301Y-17961103D02*
X7020777Y-17970627D01*
X7020777Y-17970627D02*
X7011253Y-17989675D01*
X7201729Y-17875389D02*
X7201729Y-17913484D01*
X7277920Y-17875389D02*
X7277920Y-17913484D01*
X7573158Y-18151579D02*
X7563634Y-18142055D01*
X7563634Y-18142055D02*
X7544586Y-18113484D01*
X7544586Y-18113484D02*
X7535063Y-18094436D01*
X7535063Y-18094436D02*
X7525539Y-18065865D01*
X7525539Y-18065865D02*
X7516015Y-18018246D01*
X7516015Y-18018246D02*
X7516015Y-17980151D01*
X7516015Y-17980151D02*
X7525539Y-17932532D01*
X7525539Y-17932532D02*
X7535063Y-17903960D01*
X7535063Y-17903960D02*
X7544586Y-17884913D01*
X7544586Y-17884913D02*
X7563634Y-17856341D01*
X7563634Y-17856341D02*
X7573158Y-17846817D01*
X7687443Y-17875389D02*
X7706491Y-17875389D01*
X7706491Y-17875389D02*
X7725539Y-17884913D01*
X7725539Y-17884913D02*
X7735063Y-17894436D01*
X7735063Y-17894436D02*
X7744586Y-17913484D01*
X7744586Y-17913484D02*
X7754110Y-17951579D01*
X7754110Y-17951579D02*
X7754110Y-17999198D01*
X7754110Y-17999198D02*
X7744586Y-18037294D01*
X7744586Y-18037294D02*
X7735063Y-18056341D01*
X7735063Y-18056341D02*
X7725539Y-18065865D01*
X7725539Y-18065865D02*
X7706491Y-18075389D01*
X7706491Y-18075389D02*
X7687443Y-18075389D01*
X7687443Y-18075389D02*
X7668396Y-18065865D01*
X7668396Y-18065865D02*
X7658872Y-18056341D01*
X7658872Y-18056341D02*
X7649348Y-18037294D01*
X7649348Y-18037294D02*
X7639824Y-17999198D01*
X7639824Y-17999198D02*
X7639824Y-17951579D01*
X7639824Y-17951579D02*
X7649348Y-17913484D01*
X7649348Y-17913484D02*
X7658872Y-17894436D01*
X7658872Y-17894436D02*
X7668396Y-17884913D01*
X7668396Y-17884913D02*
X7687443Y-17875389D01*
X7992205Y-18075389D02*
X7992205Y-17875389D01*
X8077920Y-18075389D02*
X8077920Y-17970627D01*
X8077920Y-17970627D02*
X8068396Y-17951579D01*
X8068396Y-17951579D02*
X8049348Y-17942055D01*
X8049348Y-17942055D02*
X8020777Y-17942055D01*
X8020777Y-17942055D02*
X8001729Y-17951579D01*
X8001729Y-17951579D02*
X7992205Y-17961103D01*
X8201729Y-18075389D02*
X8182682Y-18065865D01*
X8182682Y-18065865D02*
X8173158Y-18056341D01*
X8173158Y-18056341D02*
X8163634Y-18037294D01*
X8163634Y-18037294D02*
X8163634Y-17980151D01*
X8163634Y-17980151D02*
X8173158Y-17961103D01*
X8173158Y-17961103D02*
X8182682Y-17951579D01*
X8182682Y-17951579D02*
X8201729Y-17942055D01*
X8201729Y-17942055D02*
X8230301Y-17942055D01*
X8230301Y-17942055D02*
X8249348Y-17951579D01*
X8249348Y-17951579D02*
X8258872Y-17961103D01*
X8258872Y-17961103D02*
X8268396Y-17980151D01*
X8268396Y-17980151D02*
X8268396Y-18037294D01*
X8268396Y-18037294D02*
X8258872Y-18056341D01*
X8258872Y-18056341D02*
X8249348Y-18065865D01*
X8249348Y-18065865D02*
X8230301Y-18075389D01*
X8230301Y-18075389D02*
X8201729Y-18075389D01*
X8382682Y-18075389D02*
X8363634Y-18065865D01*
X8363634Y-18065865D02*
X8354110Y-18046817D01*
X8354110Y-18046817D02*
X8354110Y-17875389D01*
X8535063Y-18065865D02*
X8516015Y-18075389D01*
X8516015Y-18075389D02*
X8477920Y-18075389D01*
X8477920Y-18075389D02*
X8458872Y-18065865D01*
X8458872Y-18065865D02*
X8449348Y-18046817D01*
X8449348Y-18046817D02*
X8449348Y-17970627D01*
X8449348Y-17970627D02*
X8458872Y-17951579D01*
X8458872Y-17951579D02*
X8477920Y-17942055D01*
X8477920Y-17942055D02*
X8516015Y-17942055D01*
X8516015Y-17942055D02*
X8535063Y-17951579D01*
X8535063Y-17951579D02*
X8544587Y-17970627D01*
X8544587Y-17970627D02*
X8544587Y-17989675D01*
X8544587Y-17989675D02*
X8449348Y-18008722D01*
X8620777Y-18065865D02*
X8639825Y-18075389D01*
X8639825Y-18075389D02*
X8677920Y-18075389D01*
X8677920Y-18075389D02*
X8696968Y-18065865D01*
X8696968Y-18065865D02*
X8706491Y-18046817D01*
X8706491Y-18046817D02*
X8706491Y-18037294D01*
X8706491Y-18037294D02*
X8696968Y-18018246D01*
X8696968Y-18018246D02*
X8677920Y-18008722D01*
X8677920Y-18008722D02*
X8649348Y-18008722D01*
X8649348Y-18008722D02*
X8630301Y-17999198D01*
X8630301Y-17999198D02*
X8620777Y-17980151D01*
X8620777Y-17980151D02*
X8620777Y-17970627D01*
X8620777Y-17970627D02*
X8630301Y-17951579D01*
X8630301Y-17951579D02*
X8649348Y-17942055D01*
X8649348Y-17942055D02*
X8677920Y-17942055D01*
X8677920Y-17942055D02*
X8696968Y-17951579D01*
X8944587Y-17999198D02*
X9096968Y-17999198D01*
X9020777Y-18075389D02*
X9020777Y-17923008D01*
X9430301Y-17942055D02*
X9430301Y-18075389D01*
X9382682Y-17865865D02*
X9335063Y-18008722D01*
X9335063Y-18008722D02*
X9458872Y-18008722D01*
X9677920Y-18065865D02*
X9696968Y-18075389D01*
X9696968Y-18075389D02*
X9735063Y-18075389D01*
X9735063Y-18075389D02*
X9754111Y-18065865D01*
X9754111Y-18065865D02*
X9763634Y-18046817D01*
X9763634Y-18046817D02*
X9763634Y-18037294D01*
X9763634Y-18037294D02*
X9754111Y-18018246D01*
X9754111Y-18018246D02*
X9735063Y-18008722D01*
X9735063Y-18008722D02*
X9706491Y-18008722D01*
X9706491Y-18008722D02*
X9687444Y-17999198D01*
X9687444Y-17999198D02*
X9677920Y-17980151D01*
X9677920Y-17980151D02*
X9677920Y-17970627D01*
X9677920Y-17970627D02*
X9687444Y-17951579D01*
X9687444Y-17951579D02*
X9706491Y-17942055D01*
X9706491Y-17942055D02*
X9735063Y-17942055D01*
X9735063Y-17942055D02*
X9754111Y-17951579D01*
X9877920Y-18075389D02*
X9858872Y-18065865D01*
X9858872Y-18065865D02*
X9849349Y-18046817D01*
X9849349Y-18046817D02*
X9849349Y-17875389D01*
X9982682Y-18075389D02*
X9963634Y-18065865D01*
X9963634Y-18065865D02*
X9954111Y-18056341D01*
X9954111Y-18056341D02*
X9944587Y-18037294D01*
X9944587Y-18037294D02*
X9944587Y-17980151D01*
X9944587Y-17980151D02*
X9954111Y-17961103D01*
X9954111Y-17961103D02*
X9963634Y-17951579D01*
X9963634Y-17951579D02*
X9982682Y-17942055D01*
X9982682Y-17942055D02*
X10011253Y-17942055D01*
X10011253Y-17942055D02*
X10030301Y-17951579D01*
X10030301Y-17951579D02*
X10039825Y-17961103D01*
X10039825Y-17961103D02*
X10049349Y-17980151D01*
X10049349Y-17980151D02*
X10049349Y-18037294D01*
X10049349Y-18037294D02*
X10039825Y-18056341D01*
X10039825Y-18056341D02*
X10030301Y-18065865D01*
X10030301Y-18065865D02*
X10011253Y-18075389D01*
X10011253Y-18075389D02*
X9982682Y-18075389D01*
X10106492Y-17942055D02*
X10182682Y-17942055D01*
X10135063Y-17875389D02*
X10135063Y-18046817D01*
X10135063Y-18046817D02*
X10144587Y-18065865D01*
X10144587Y-18065865D02*
X10163634Y-18075389D01*
X10163634Y-18075389D02*
X10182682Y-18075389D01*
X10239825Y-18065865D02*
X10258872Y-18075389D01*
X10258872Y-18075389D02*
X10296968Y-18075389D01*
X10296968Y-18075389D02*
X10316015Y-18065865D01*
X10316015Y-18065865D02*
X10325539Y-18046817D01*
X10325539Y-18046817D02*
X10325539Y-18037294D01*
X10325539Y-18037294D02*
X10316015Y-18018246D01*
X10316015Y-18018246D02*
X10296968Y-18008722D01*
X10296968Y-18008722D02*
X10268396Y-18008722D01*
X10268396Y-18008722D02*
X10249349Y-17999198D01*
X10249349Y-17999198D02*
X10239825Y-17980151D01*
X10239825Y-17980151D02*
X10239825Y-17970627D01*
X10239825Y-17970627D02*
X10249349Y-17951579D01*
X10249349Y-17951579D02*
X10268396Y-17942055D01*
X10268396Y-17942055D02*
X10296968Y-17942055D01*
X10296968Y-17942055D02*
X10316015Y-17951579D01*
X10392206Y-18151579D02*
X10401730Y-18142055D01*
X10401730Y-18142055D02*
X10420777Y-18113484D01*
X10420777Y-18113484D02*
X10430301Y-18094436D01*
X10430301Y-18094436D02*
X10439825Y-18065865D01*
X10439825Y-18065865D02*
X10449349Y-18018246D01*
X10449349Y-18018246D02*
X10449349Y-17980151D01*
X10449349Y-17980151D02*
X10439825Y-17932532D01*
X10439825Y-17932532D02*
X10430301Y-17903960D01*
X10430301Y-17903960D02*
X10420777Y-17884913D01*
X10420777Y-17884913D02*
X10401730Y-17856341D01*
X10401730Y-17856341D02*
X10392206Y-17846817D01*
D12*
X3948095Y-18297905D02*
X3998095Y-18247905D01*
X3948095Y-18197905D01*
X3898095Y-18247905D01*
X3948095Y-18297905D01*
D11*
X4363634Y-18339389D02*
X4249348Y-18339389D01*
X4306491Y-18339389D02*
X4306491Y-18139389D01*
X4306491Y-18139389D02*
X4287443Y-18167960D01*
X4287443Y-18167960D02*
X4268396Y-18187008D01*
X4268396Y-18187008D02*
X4249348Y-18196532D01*
X4449348Y-18320341D02*
X4458872Y-18329865D01*
X4458872Y-18329865D02*
X4449348Y-18339389D01*
X4449348Y-18339389D02*
X4439824Y-18329865D01*
X4439824Y-18329865D02*
X4449348Y-18320341D01*
X4449348Y-18320341D02*
X4449348Y-18339389D01*
X4582681Y-18139389D02*
X4601729Y-18139389D01*
X4601729Y-18139389D02*
X4620777Y-18148913D01*
X4620777Y-18148913D02*
X4630300Y-18158436D01*
X4630300Y-18158436D02*
X4639824Y-18177484D01*
X4639824Y-18177484D02*
X4649348Y-18215579D01*
X4649348Y-18215579D02*
X4649348Y-18263198D01*
X4649348Y-18263198D02*
X4639824Y-18301294D01*
X4639824Y-18301294D02*
X4630300Y-18320341D01*
X4630300Y-18320341D02*
X4620777Y-18329865D01*
X4620777Y-18329865D02*
X4601729Y-18339389D01*
X4601729Y-18339389D02*
X4582681Y-18339389D01*
X4582681Y-18339389D02*
X4563634Y-18329865D01*
X4563634Y-18329865D02*
X4554110Y-18320341D01*
X4554110Y-18320341D02*
X4544586Y-18301294D01*
X4544586Y-18301294D02*
X4535062Y-18263198D01*
X4535062Y-18263198D02*
X4535062Y-18215579D01*
X4535062Y-18215579D02*
X4544586Y-18177484D01*
X4544586Y-18177484D02*
X4554110Y-18158436D01*
X4554110Y-18158436D02*
X4563634Y-18148913D01*
X4563634Y-18148913D02*
X4582681Y-18139389D01*
X4773158Y-18139389D02*
X4792205Y-18139389D01*
X4792205Y-18139389D02*
X4811253Y-18148913D01*
X4811253Y-18148913D02*
X4820777Y-18158436D01*
X4820777Y-18158436D02*
X4830300Y-18177484D01*
X4830300Y-18177484D02*
X4839824Y-18215579D01*
X4839824Y-18215579D02*
X4839824Y-18263198D01*
X4839824Y-18263198D02*
X4830300Y-18301294D01*
X4830300Y-18301294D02*
X4820777Y-18320341D01*
X4820777Y-18320341D02*
X4811253Y-18329865D01*
X4811253Y-18329865D02*
X4792205Y-18339389D01*
X4792205Y-18339389D02*
X4773158Y-18339389D01*
X4773158Y-18339389D02*
X4754110Y-18329865D01*
X4754110Y-18329865D02*
X4744586Y-18320341D01*
X4744586Y-18320341D02*
X4735062Y-18301294D01*
X4735062Y-18301294D02*
X4725539Y-18263198D01*
X4725539Y-18263198D02*
X4725539Y-18215579D01*
X4725539Y-18215579D02*
X4735062Y-18177484D01*
X4735062Y-18177484D02*
X4744586Y-18158436D01*
X4744586Y-18158436D02*
X4754110Y-18148913D01*
X4754110Y-18148913D02*
X4773158Y-18139389D01*
X4963634Y-18139389D02*
X4982681Y-18139389D01*
X4982681Y-18139389D02*
X5001729Y-18148913D01*
X5001729Y-18148913D02*
X5011253Y-18158436D01*
X5011253Y-18158436D02*
X5020777Y-18177484D01*
X5020777Y-18177484D02*
X5030300Y-18215579D01*
X5030300Y-18215579D02*
X5030300Y-18263198D01*
X5030300Y-18263198D02*
X5020777Y-18301294D01*
X5020777Y-18301294D02*
X5011253Y-18320341D01*
X5011253Y-18320341D02*
X5001729Y-18329865D01*
X5001729Y-18329865D02*
X4982681Y-18339389D01*
X4982681Y-18339389D02*
X4963634Y-18339389D01*
X4963634Y-18339389D02*
X4944586Y-18329865D01*
X4944586Y-18329865D02*
X4935062Y-18320341D01*
X4935062Y-18320341D02*
X4925539Y-18301294D01*
X4925539Y-18301294D02*
X4916015Y-18263198D01*
X4916015Y-18263198D02*
X4916015Y-18215579D01*
X4916015Y-18215579D02*
X4925539Y-18177484D01*
X4925539Y-18177484D02*
X4935062Y-18158436D01*
X4935062Y-18158436D02*
X4944586Y-18148913D01*
X4944586Y-18148913D02*
X4963634Y-18139389D01*
X5116015Y-18339389D02*
X5116015Y-18206055D01*
X5116015Y-18225103D02*
X5125539Y-18215579D01*
X5125539Y-18215579D02*
X5144586Y-18206055D01*
X5144586Y-18206055D02*
X5173158Y-18206055D01*
X5173158Y-18206055D02*
X5192205Y-18215579D01*
X5192205Y-18215579D02*
X5201729Y-18234627D01*
X5201729Y-18234627D02*
X5201729Y-18339389D01*
X5201729Y-18234627D02*
X5211253Y-18215579D01*
X5211253Y-18215579D02*
X5230300Y-18206055D01*
X5230300Y-18206055D02*
X5258872Y-18206055D01*
X5258872Y-18206055D02*
X5277920Y-18215579D01*
X5277920Y-18215579D02*
X5287443Y-18234627D01*
X5287443Y-18234627D02*
X5287443Y-18339389D01*
X5382681Y-18339389D02*
X5382681Y-18206055D01*
X5382681Y-18225103D02*
X5392205Y-18215579D01*
X5392205Y-18215579D02*
X5411253Y-18206055D01*
X5411253Y-18206055D02*
X5439824Y-18206055D01*
X5439824Y-18206055D02*
X5458872Y-18215579D01*
X5458872Y-18215579D02*
X5468396Y-18234627D01*
X5468396Y-18234627D02*
X5468396Y-18339389D01*
X5468396Y-18234627D02*
X5477920Y-18215579D01*
X5477920Y-18215579D02*
X5496967Y-18206055D01*
X5496967Y-18206055D02*
X5525539Y-18206055D01*
X5525539Y-18206055D02*
X5544586Y-18215579D01*
X5544586Y-18215579D02*
X5554110Y-18234627D01*
X5554110Y-18234627D02*
X5554110Y-18339389D01*
X5944586Y-18129865D02*
X5773158Y-18387008D01*
X6201729Y-18139389D02*
X6220777Y-18139389D01*
X6220777Y-18139389D02*
X6239824Y-18148913D01*
X6239824Y-18148913D02*
X6249348Y-18158436D01*
X6249348Y-18158436D02*
X6258872Y-18177484D01*
X6258872Y-18177484D02*
X6268396Y-18215579D01*
X6268396Y-18215579D02*
X6268396Y-18263198D01*
X6268396Y-18263198D02*
X6258872Y-18301294D01*
X6258872Y-18301294D02*
X6249348Y-18320341D01*
X6249348Y-18320341D02*
X6239824Y-18329865D01*
X6239824Y-18329865D02*
X6220777Y-18339389D01*
X6220777Y-18339389D02*
X6201729Y-18339389D01*
X6201729Y-18339389D02*
X6182681Y-18329865D01*
X6182681Y-18329865D02*
X6173158Y-18320341D01*
X6173158Y-18320341D02*
X6163634Y-18301294D01*
X6163634Y-18301294D02*
X6154110Y-18263198D01*
X6154110Y-18263198D02*
X6154110Y-18215579D01*
X6154110Y-18215579D02*
X6163634Y-18177484D01*
X6163634Y-18177484D02*
X6173158Y-18158436D01*
X6173158Y-18158436D02*
X6182681Y-18148913D01*
X6182681Y-18148913D02*
X6201729Y-18139389D01*
X6354110Y-18320341D02*
X6363634Y-18329865D01*
X6363634Y-18329865D02*
X6354110Y-18339389D01*
X6354110Y-18339389D02*
X6344586Y-18329865D01*
X6344586Y-18329865D02*
X6354110Y-18320341D01*
X6354110Y-18320341D02*
X6354110Y-18339389D01*
X6487443Y-18139389D02*
X6506491Y-18139389D01*
X6506491Y-18139389D02*
X6525539Y-18148913D01*
X6525539Y-18148913D02*
X6535062Y-18158436D01*
X6535062Y-18158436D02*
X6544586Y-18177484D01*
X6544586Y-18177484D02*
X6554110Y-18215579D01*
X6554110Y-18215579D02*
X6554110Y-18263198D01*
X6554110Y-18263198D02*
X6544586Y-18301294D01*
X6544586Y-18301294D02*
X6535062Y-18320341D01*
X6535062Y-18320341D02*
X6525539Y-18329865D01*
X6525539Y-18329865D02*
X6506491Y-18339389D01*
X6506491Y-18339389D02*
X6487443Y-18339389D01*
X6487443Y-18339389D02*
X6468396Y-18329865D01*
X6468396Y-18329865D02*
X6458872Y-18320341D01*
X6458872Y-18320341D02*
X6449348Y-18301294D01*
X6449348Y-18301294D02*
X6439824Y-18263198D01*
X6439824Y-18263198D02*
X6439824Y-18215579D01*
X6439824Y-18215579D02*
X6449348Y-18177484D01*
X6449348Y-18177484D02*
X6458872Y-18158436D01*
X6458872Y-18158436D02*
X6468396Y-18148913D01*
X6468396Y-18148913D02*
X6487443Y-18139389D01*
X6620777Y-18139389D02*
X6744586Y-18139389D01*
X6744586Y-18139389D02*
X6677920Y-18215579D01*
X6677920Y-18215579D02*
X6706491Y-18215579D01*
X6706491Y-18215579D02*
X6725539Y-18225103D01*
X6725539Y-18225103D02*
X6735062Y-18234627D01*
X6735062Y-18234627D02*
X6744586Y-18253675D01*
X6744586Y-18253675D02*
X6744586Y-18301294D01*
X6744586Y-18301294D02*
X6735062Y-18320341D01*
X6735062Y-18320341D02*
X6725539Y-18329865D01*
X6725539Y-18329865D02*
X6706491Y-18339389D01*
X6706491Y-18339389D02*
X6649348Y-18339389D01*
X6649348Y-18339389D02*
X6630301Y-18329865D01*
X6630301Y-18329865D02*
X6620777Y-18320341D01*
X6839824Y-18339389D02*
X6877920Y-18339389D01*
X6877920Y-18339389D02*
X6896967Y-18329865D01*
X6896967Y-18329865D02*
X6906491Y-18320341D01*
X6906491Y-18320341D02*
X6925539Y-18291770D01*
X6925539Y-18291770D02*
X6935062Y-18253675D01*
X6935062Y-18253675D02*
X6935062Y-18177484D01*
X6935062Y-18177484D02*
X6925539Y-18158436D01*
X6925539Y-18158436D02*
X6916015Y-18148913D01*
X6916015Y-18148913D02*
X6896967Y-18139389D01*
X6896967Y-18139389D02*
X6858872Y-18139389D01*
X6858872Y-18139389D02*
X6839824Y-18148913D01*
X6839824Y-18148913D02*
X6830301Y-18158436D01*
X6830301Y-18158436D02*
X6820777Y-18177484D01*
X6820777Y-18177484D02*
X6820777Y-18225103D01*
X6820777Y-18225103D02*
X6830301Y-18244151D01*
X6830301Y-18244151D02*
X6839824Y-18253675D01*
X6839824Y-18253675D02*
X6858872Y-18263198D01*
X6858872Y-18263198D02*
X6896967Y-18263198D01*
X6896967Y-18263198D02*
X6916015Y-18253675D01*
X6916015Y-18253675D02*
X6925539Y-18244151D01*
X6925539Y-18244151D02*
X6935062Y-18225103D01*
X7106491Y-18206055D02*
X7106491Y-18339389D01*
X7058872Y-18129865D02*
X7011253Y-18272722D01*
X7011253Y-18272722D02*
X7135062Y-18272722D01*
X7201729Y-18139389D02*
X7201729Y-18177484D01*
X7277920Y-18139389D02*
X7277920Y-18177484D01*
X7573158Y-18415579D02*
X7563634Y-18406055D01*
X7563634Y-18406055D02*
X7544586Y-18377484D01*
X7544586Y-18377484D02*
X7535063Y-18358436D01*
X7535063Y-18358436D02*
X7525539Y-18329865D01*
X7525539Y-18329865D02*
X7516015Y-18282246D01*
X7516015Y-18282246D02*
X7516015Y-18244151D01*
X7516015Y-18244151D02*
X7525539Y-18196532D01*
X7525539Y-18196532D02*
X7535063Y-18167960D01*
X7535063Y-18167960D02*
X7544586Y-18148913D01*
X7544586Y-18148913D02*
X7563634Y-18120341D01*
X7563634Y-18120341D02*
X7573158Y-18110817D01*
X7735063Y-18206055D02*
X7735063Y-18339389D01*
X7687443Y-18129865D02*
X7639824Y-18272722D01*
X7639824Y-18272722D02*
X7763634Y-18272722D01*
X7925539Y-18139389D02*
X7887443Y-18139389D01*
X7887443Y-18139389D02*
X7868396Y-18148913D01*
X7868396Y-18148913D02*
X7858872Y-18158436D01*
X7858872Y-18158436D02*
X7839824Y-18187008D01*
X7839824Y-18187008D02*
X7830301Y-18225103D01*
X7830301Y-18225103D02*
X7830301Y-18301294D01*
X7830301Y-18301294D02*
X7839824Y-18320341D01*
X7839824Y-18320341D02*
X7849348Y-18329865D01*
X7849348Y-18329865D02*
X7868396Y-18339389D01*
X7868396Y-18339389D02*
X7906491Y-18339389D01*
X7906491Y-18339389D02*
X7925539Y-18329865D01*
X7925539Y-18329865D02*
X7935063Y-18320341D01*
X7935063Y-18320341D02*
X7944586Y-18301294D01*
X7944586Y-18301294D02*
X7944586Y-18253675D01*
X7944586Y-18253675D02*
X7935063Y-18234627D01*
X7935063Y-18234627D02*
X7925539Y-18225103D01*
X7925539Y-18225103D02*
X7906491Y-18215579D01*
X7906491Y-18215579D02*
X7868396Y-18215579D01*
X7868396Y-18215579D02*
X7849348Y-18225103D01*
X7849348Y-18225103D02*
X7839824Y-18234627D01*
X7839824Y-18234627D02*
X7830301Y-18253675D01*
X8182682Y-18339389D02*
X8182682Y-18139389D01*
X8268396Y-18339389D02*
X8268396Y-18234627D01*
X8268396Y-18234627D02*
X8258872Y-18215579D01*
X8258872Y-18215579D02*
X8239825Y-18206055D01*
X8239825Y-18206055D02*
X8211253Y-18206055D01*
X8211253Y-18206055D02*
X8192205Y-18215579D01*
X8192205Y-18215579D02*
X8182682Y-18225103D01*
X8392206Y-18339389D02*
X8373158Y-18329865D01*
X8373158Y-18329865D02*
X8363634Y-18320341D01*
X8363634Y-18320341D02*
X8354110Y-18301294D01*
X8354110Y-18301294D02*
X8354110Y-18244151D01*
X8354110Y-18244151D02*
X8363634Y-18225103D01*
X8363634Y-18225103D02*
X8373158Y-18215579D01*
X8373158Y-18215579D02*
X8392206Y-18206055D01*
X8392206Y-18206055D02*
X8420777Y-18206055D01*
X8420777Y-18206055D02*
X8439825Y-18215579D01*
X8439825Y-18215579D02*
X8449348Y-18225103D01*
X8449348Y-18225103D02*
X8458872Y-18244151D01*
X8458872Y-18244151D02*
X8458872Y-18301294D01*
X8458872Y-18301294D02*
X8449348Y-18320341D01*
X8449348Y-18320341D02*
X8439825Y-18329865D01*
X8439825Y-18329865D02*
X8420777Y-18339389D01*
X8420777Y-18339389D02*
X8392206Y-18339389D01*
X8573158Y-18339389D02*
X8554110Y-18329865D01*
X8554110Y-18329865D02*
X8544587Y-18310817D01*
X8544587Y-18310817D02*
X8544587Y-18139389D01*
X8725539Y-18329865D02*
X8706491Y-18339389D01*
X8706491Y-18339389D02*
X8668396Y-18339389D01*
X8668396Y-18339389D02*
X8649348Y-18329865D01*
X8649348Y-18329865D02*
X8639825Y-18310817D01*
X8639825Y-18310817D02*
X8639825Y-18234627D01*
X8639825Y-18234627D02*
X8649348Y-18215579D01*
X8649348Y-18215579D02*
X8668396Y-18206055D01*
X8668396Y-18206055D02*
X8706491Y-18206055D01*
X8706491Y-18206055D02*
X8725539Y-18215579D01*
X8725539Y-18215579D02*
X8735063Y-18234627D01*
X8735063Y-18234627D02*
X8735063Y-18253675D01*
X8735063Y-18253675D02*
X8639825Y-18272722D01*
X8811253Y-18329865D02*
X8830301Y-18339389D01*
X8830301Y-18339389D02*
X8868396Y-18339389D01*
X8868396Y-18339389D02*
X8887444Y-18329865D01*
X8887444Y-18329865D02*
X8896968Y-18310817D01*
X8896968Y-18310817D02*
X8896968Y-18301294D01*
X8896968Y-18301294D02*
X8887444Y-18282246D01*
X8887444Y-18282246D02*
X8868396Y-18272722D01*
X8868396Y-18272722D02*
X8839825Y-18272722D01*
X8839825Y-18272722D02*
X8820777Y-18263198D01*
X8820777Y-18263198D02*
X8811253Y-18244151D01*
X8811253Y-18244151D02*
X8811253Y-18234627D01*
X8811253Y-18234627D02*
X8820777Y-18215579D01*
X8820777Y-18215579D02*
X8839825Y-18206055D01*
X8839825Y-18206055D02*
X8868396Y-18206055D01*
X8868396Y-18206055D02*
X8887444Y-18215579D01*
X9135063Y-18263198D02*
X9287444Y-18263198D01*
X9211253Y-18339389D02*
X9211253Y-18187008D01*
X9620777Y-18206055D02*
X9620777Y-18339389D01*
X9573158Y-18129865D02*
X9525539Y-18272722D01*
X9525539Y-18272722D02*
X9649349Y-18272722D01*
X9868396Y-18329865D02*
X9887444Y-18339389D01*
X9887444Y-18339389D02*
X9925539Y-18339389D01*
X9925539Y-18339389D02*
X9944587Y-18329865D01*
X9944587Y-18329865D02*
X9954111Y-18310817D01*
X9954111Y-18310817D02*
X9954111Y-18301294D01*
X9954111Y-18301294D02*
X9944587Y-18282246D01*
X9944587Y-18282246D02*
X9925539Y-18272722D01*
X9925539Y-18272722D02*
X9896968Y-18272722D01*
X9896968Y-18272722D02*
X9877920Y-18263198D01*
X9877920Y-18263198D02*
X9868396Y-18244151D01*
X9868396Y-18244151D02*
X9868396Y-18234627D01*
X9868396Y-18234627D02*
X9877920Y-18215579D01*
X9877920Y-18215579D02*
X9896968Y-18206055D01*
X9896968Y-18206055D02*
X9925539Y-18206055D01*
X9925539Y-18206055D02*
X9944587Y-18215579D01*
X10068396Y-18339389D02*
X10049349Y-18329865D01*
X10049349Y-18329865D02*
X10039825Y-18310817D01*
X10039825Y-18310817D02*
X10039825Y-18139389D01*
X10173158Y-18339389D02*
X10154111Y-18329865D01*
X10154111Y-18329865D02*
X10144587Y-18320341D01*
X10144587Y-18320341D02*
X10135063Y-18301294D01*
X10135063Y-18301294D02*
X10135063Y-18244151D01*
X10135063Y-18244151D02*
X10144587Y-18225103D01*
X10144587Y-18225103D02*
X10154111Y-18215579D01*
X10154111Y-18215579D02*
X10173158Y-18206055D01*
X10173158Y-18206055D02*
X10201730Y-18206055D01*
X10201730Y-18206055D02*
X10220777Y-18215579D01*
X10220777Y-18215579D02*
X10230301Y-18225103D01*
X10230301Y-18225103D02*
X10239825Y-18244151D01*
X10239825Y-18244151D02*
X10239825Y-18301294D01*
X10239825Y-18301294D02*
X10230301Y-18320341D01*
X10230301Y-18320341D02*
X10220777Y-18329865D01*
X10220777Y-18329865D02*
X10201730Y-18339389D01*
X10201730Y-18339389D02*
X10173158Y-18339389D01*
X10296968Y-18206055D02*
X10373158Y-18206055D01*
X10325539Y-18139389D02*
X10325539Y-18310817D01*
X10325539Y-18310817D02*
X10335063Y-18329865D01*
X10335063Y-18329865D02*
X10354111Y-18339389D01*
X10354111Y-18339389D02*
X10373158Y-18339389D01*
X10430301Y-18329865D02*
X10449349Y-18339389D01*
X10449349Y-18339389D02*
X10487444Y-18339389D01*
X10487444Y-18339389D02*
X10506492Y-18329865D01*
X10506492Y-18329865D02*
X10516015Y-18310817D01*
X10516015Y-18310817D02*
X10516015Y-18301294D01*
X10516015Y-18301294D02*
X10506492Y-18282246D01*
X10506492Y-18282246D02*
X10487444Y-18272722D01*
X10487444Y-18272722D02*
X10458872Y-18272722D01*
X10458872Y-18272722D02*
X10439825Y-18263198D01*
X10439825Y-18263198D02*
X10430301Y-18244151D01*
X10430301Y-18244151D02*
X10430301Y-18234627D01*
X10430301Y-18234627D02*
X10439825Y-18215579D01*
X10439825Y-18215579D02*
X10458872Y-18206055D01*
X10458872Y-18206055D02*
X10487444Y-18206055D01*
X10487444Y-18206055D02*
X10506492Y-18215579D01*
X10582682Y-18415579D02*
X10592206Y-18406055D01*
X10592206Y-18406055D02*
X10611253Y-18377484D01*
X10611253Y-18377484D02*
X10620777Y-18358436D01*
X10620777Y-18358436D02*
X10630301Y-18329865D01*
X10630301Y-18329865D02*
X10639825Y-18282246D01*
X10639825Y-18282246D02*
X10639825Y-18244151D01*
X10639825Y-18244151D02*
X10630301Y-18196532D01*
X10630301Y-18196532D02*
X10620777Y-18167960D01*
X10620777Y-18167960D02*
X10611253Y-18148913D01*
X10611253Y-18148913D02*
X10592206Y-18120341D01*
X10592206Y-18120341D02*
X10582682Y-18110817D01*
X3798095Y-18411905D02*
X3998095Y-18611905D01*
X3998095Y-18411905D02*
X3798095Y-18611905D01*
X3998095Y-18511905D02*
G75*
G02*
X3798095Y-18511905I-100000J0D01*
G01*
X3798095Y-18511905D02*
G75*
G02*
X3998095Y-18511905I100000J0D01*
G01*
X4239824Y-18403389D02*
X4363634Y-18403389D01*
X4363634Y-18403389D02*
X4296967Y-18479579D01*
X4296967Y-18479579D02*
X4325539Y-18479579D01*
X4325539Y-18479579D02*
X4344586Y-18489103D01*
X4344586Y-18489103D02*
X4354110Y-18498627D01*
X4354110Y-18498627D02*
X4363634Y-18517675D01*
X4363634Y-18517675D02*
X4363634Y-18565294D01*
X4363634Y-18565294D02*
X4354110Y-18584341D01*
X4354110Y-18584341D02*
X4344586Y-18593865D01*
X4344586Y-18593865D02*
X4325539Y-18603389D01*
X4325539Y-18603389D02*
X4268396Y-18603389D01*
X4268396Y-18603389D02*
X4249348Y-18593865D01*
X4249348Y-18593865D02*
X4239824Y-18584341D01*
X4449348Y-18584341D02*
X4458872Y-18593865D01*
X4458872Y-18593865D02*
X4449348Y-18603389D01*
X4449348Y-18603389D02*
X4439824Y-18593865D01*
X4439824Y-18593865D02*
X4449348Y-18584341D01*
X4449348Y-18584341D02*
X4449348Y-18603389D01*
X4535062Y-18422436D02*
X4544586Y-18412913D01*
X4544586Y-18412913D02*
X4563634Y-18403389D01*
X4563634Y-18403389D02*
X4611253Y-18403389D01*
X4611253Y-18403389D02*
X4630300Y-18412913D01*
X4630300Y-18412913D02*
X4639824Y-18422436D01*
X4639824Y-18422436D02*
X4649348Y-18441484D01*
X4649348Y-18441484D02*
X4649348Y-18460532D01*
X4649348Y-18460532D02*
X4639824Y-18489103D01*
X4639824Y-18489103D02*
X4525539Y-18603389D01*
X4525539Y-18603389D02*
X4649348Y-18603389D01*
X4773158Y-18403389D02*
X4792205Y-18403389D01*
X4792205Y-18403389D02*
X4811253Y-18412913D01*
X4811253Y-18412913D02*
X4820777Y-18422436D01*
X4820777Y-18422436D02*
X4830300Y-18441484D01*
X4830300Y-18441484D02*
X4839824Y-18479579D01*
X4839824Y-18479579D02*
X4839824Y-18527198D01*
X4839824Y-18527198D02*
X4830300Y-18565294D01*
X4830300Y-18565294D02*
X4820777Y-18584341D01*
X4820777Y-18584341D02*
X4811253Y-18593865D01*
X4811253Y-18593865D02*
X4792205Y-18603389D01*
X4792205Y-18603389D02*
X4773158Y-18603389D01*
X4773158Y-18603389D02*
X4754110Y-18593865D01*
X4754110Y-18593865D02*
X4744586Y-18584341D01*
X4744586Y-18584341D02*
X4735062Y-18565294D01*
X4735062Y-18565294D02*
X4725539Y-18527198D01*
X4725539Y-18527198D02*
X4725539Y-18479579D01*
X4725539Y-18479579D02*
X4735062Y-18441484D01*
X4735062Y-18441484D02*
X4744586Y-18422436D01*
X4744586Y-18422436D02*
X4754110Y-18412913D01*
X4754110Y-18412913D02*
X4773158Y-18403389D01*
X4963634Y-18403389D02*
X4982681Y-18403389D01*
X4982681Y-18403389D02*
X5001729Y-18412913D01*
X5001729Y-18412913D02*
X5011253Y-18422436D01*
X5011253Y-18422436D02*
X5020777Y-18441484D01*
X5020777Y-18441484D02*
X5030300Y-18479579D01*
X5030300Y-18479579D02*
X5030300Y-18527198D01*
X5030300Y-18527198D02*
X5020777Y-18565294D01*
X5020777Y-18565294D02*
X5011253Y-18584341D01*
X5011253Y-18584341D02*
X5001729Y-18593865D01*
X5001729Y-18593865D02*
X4982681Y-18603389D01*
X4982681Y-18603389D02*
X4963634Y-18603389D01*
X4963634Y-18603389D02*
X4944586Y-18593865D01*
X4944586Y-18593865D02*
X4935062Y-18584341D01*
X4935062Y-18584341D02*
X4925539Y-18565294D01*
X4925539Y-18565294D02*
X4916015Y-18527198D01*
X4916015Y-18527198D02*
X4916015Y-18479579D01*
X4916015Y-18479579D02*
X4925539Y-18441484D01*
X4925539Y-18441484D02*
X4935062Y-18422436D01*
X4935062Y-18422436D02*
X4944586Y-18412913D01*
X4944586Y-18412913D02*
X4963634Y-18403389D01*
X5116015Y-18603389D02*
X5116015Y-18470055D01*
X5116015Y-18489103D02*
X5125539Y-18479579D01*
X5125539Y-18479579D02*
X5144586Y-18470055D01*
X5144586Y-18470055D02*
X5173158Y-18470055D01*
X5173158Y-18470055D02*
X5192205Y-18479579D01*
X5192205Y-18479579D02*
X5201729Y-18498627D01*
X5201729Y-18498627D02*
X5201729Y-18603389D01*
X5201729Y-18498627D02*
X5211253Y-18479579D01*
X5211253Y-18479579D02*
X5230300Y-18470055D01*
X5230300Y-18470055D02*
X5258872Y-18470055D01*
X5258872Y-18470055D02*
X5277920Y-18479579D01*
X5277920Y-18479579D02*
X5287443Y-18498627D01*
X5287443Y-18498627D02*
X5287443Y-18603389D01*
X5382681Y-18603389D02*
X5382681Y-18470055D01*
X5382681Y-18489103D02*
X5392205Y-18479579D01*
X5392205Y-18479579D02*
X5411253Y-18470055D01*
X5411253Y-18470055D02*
X5439824Y-18470055D01*
X5439824Y-18470055D02*
X5458872Y-18479579D01*
X5458872Y-18479579D02*
X5468396Y-18498627D01*
X5468396Y-18498627D02*
X5468396Y-18603389D01*
X5468396Y-18498627D02*
X5477920Y-18479579D01*
X5477920Y-18479579D02*
X5496967Y-18470055D01*
X5496967Y-18470055D02*
X5525539Y-18470055D01*
X5525539Y-18470055D02*
X5544586Y-18479579D01*
X5544586Y-18479579D02*
X5554110Y-18498627D01*
X5554110Y-18498627D02*
X5554110Y-18603389D01*
X5944586Y-18393865D02*
X5773158Y-18651008D01*
X6201729Y-18403389D02*
X6220777Y-18403389D01*
X6220777Y-18403389D02*
X6239824Y-18412913D01*
X6239824Y-18412913D02*
X6249348Y-18422436D01*
X6249348Y-18422436D02*
X6258872Y-18441484D01*
X6258872Y-18441484D02*
X6268396Y-18479579D01*
X6268396Y-18479579D02*
X6268396Y-18527198D01*
X6268396Y-18527198D02*
X6258872Y-18565294D01*
X6258872Y-18565294D02*
X6249348Y-18584341D01*
X6249348Y-18584341D02*
X6239824Y-18593865D01*
X6239824Y-18593865D02*
X6220777Y-18603389D01*
X6220777Y-18603389D02*
X6201729Y-18603389D01*
X6201729Y-18603389D02*
X6182681Y-18593865D01*
X6182681Y-18593865D02*
X6173158Y-18584341D01*
X6173158Y-18584341D02*
X6163634Y-18565294D01*
X6163634Y-18565294D02*
X6154110Y-18527198D01*
X6154110Y-18527198D02*
X6154110Y-18479579D01*
X6154110Y-18479579D02*
X6163634Y-18441484D01*
X6163634Y-18441484D02*
X6173158Y-18422436D01*
X6173158Y-18422436D02*
X6182681Y-18412913D01*
X6182681Y-18412913D02*
X6201729Y-18403389D01*
X6354110Y-18584341D02*
X6363634Y-18593865D01*
X6363634Y-18593865D02*
X6354110Y-18603389D01*
X6354110Y-18603389D02*
X6344586Y-18593865D01*
X6344586Y-18593865D02*
X6354110Y-18584341D01*
X6354110Y-18584341D02*
X6354110Y-18603389D01*
X6554110Y-18603389D02*
X6439824Y-18603389D01*
X6496967Y-18603389D02*
X6496967Y-18403389D01*
X6496967Y-18403389D02*
X6477920Y-18431960D01*
X6477920Y-18431960D02*
X6458872Y-18451008D01*
X6458872Y-18451008D02*
X6439824Y-18460532D01*
X6630301Y-18422436D02*
X6639824Y-18412913D01*
X6639824Y-18412913D02*
X6658872Y-18403389D01*
X6658872Y-18403389D02*
X6706491Y-18403389D01*
X6706491Y-18403389D02*
X6725539Y-18412913D01*
X6725539Y-18412913D02*
X6735062Y-18422436D01*
X6735062Y-18422436D02*
X6744586Y-18441484D01*
X6744586Y-18441484D02*
X6744586Y-18460532D01*
X6744586Y-18460532D02*
X6735062Y-18489103D01*
X6735062Y-18489103D02*
X6620777Y-18603389D01*
X6620777Y-18603389D02*
X6744586Y-18603389D01*
X6916015Y-18403389D02*
X6877920Y-18403389D01*
X6877920Y-18403389D02*
X6858872Y-18412913D01*
X6858872Y-18412913D02*
X6849348Y-18422436D01*
X6849348Y-18422436D02*
X6830301Y-18451008D01*
X6830301Y-18451008D02*
X6820777Y-18489103D01*
X6820777Y-18489103D02*
X6820777Y-18565294D01*
X6820777Y-18565294D02*
X6830301Y-18584341D01*
X6830301Y-18584341D02*
X6839824Y-18593865D01*
X6839824Y-18593865D02*
X6858872Y-18603389D01*
X6858872Y-18603389D02*
X6896967Y-18603389D01*
X6896967Y-18603389D02*
X6916015Y-18593865D01*
X6916015Y-18593865D02*
X6925539Y-18584341D01*
X6925539Y-18584341D02*
X6935062Y-18565294D01*
X6935062Y-18565294D02*
X6935062Y-18517675D01*
X6935062Y-18517675D02*
X6925539Y-18498627D01*
X6925539Y-18498627D02*
X6916015Y-18489103D01*
X6916015Y-18489103D02*
X6896967Y-18479579D01*
X6896967Y-18479579D02*
X6858872Y-18479579D01*
X6858872Y-18479579D02*
X6839824Y-18489103D01*
X6839824Y-18489103D02*
X6830301Y-18498627D01*
X6830301Y-18498627D02*
X6820777Y-18517675D01*
X7058872Y-18403389D02*
X7077920Y-18403389D01*
X7077920Y-18403389D02*
X7096967Y-18412913D01*
X7096967Y-18412913D02*
X7106491Y-18422436D01*
X7106491Y-18422436D02*
X7116015Y-18441484D01*
X7116015Y-18441484D02*
X7125539Y-18479579D01*
X7125539Y-18479579D02*
X7125539Y-18527198D01*
X7125539Y-18527198D02*
X7116015Y-18565294D01*
X7116015Y-18565294D02*
X7106491Y-18584341D01*
X7106491Y-18584341D02*
X7096967Y-18593865D01*
X7096967Y-18593865D02*
X7077920Y-18603389D01*
X7077920Y-18603389D02*
X7058872Y-18603389D01*
X7058872Y-18603389D02*
X7039824Y-18593865D01*
X7039824Y-18593865D02*
X7030301Y-18584341D01*
X7030301Y-18584341D02*
X7020777Y-18565294D01*
X7020777Y-18565294D02*
X7011253Y-18527198D01*
X7011253Y-18527198D02*
X7011253Y-18479579D01*
X7011253Y-18479579D02*
X7020777Y-18441484D01*
X7020777Y-18441484D02*
X7030301Y-18422436D01*
X7030301Y-18422436D02*
X7039824Y-18412913D01*
X7039824Y-18412913D02*
X7058872Y-18403389D01*
X7201729Y-18403389D02*
X7201729Y-18441484D01*
X7277920Y-18403389D02*
X7277920Y-18441484D01*
X7573158Y-18679579D02*
X7563634Y-18670055D01*
X7563634Y-18670055D02*
X7544586Y-18641484D01*
X7544586Y-18641484D02*
X7535063Y-18622436D01*
X7535063Y-18622436D02*
X7525539Y-18593865D01*
X7525539Y-18593865D02*
X7516015Y-18546246D01*
X7516015Y-18546246D02*
X7516015Y-18508151D01*
X7516015Y-18508151D02*
X7525539Y-18460532D01*
X7525539Y-18460532D02*
X7535063Y-18431960D01*
X7535063Y-18431960D02*
X7544586Y-18412913D01*
X7544586Y-18412913D02*
X7563634Y-18384341D01*
X7563634Y-18384341D02*
X7573158Y-18374817D01*
X7735063Y-18470055D02*
X7735063Y-18603389D01*
X7687443Y-18393865D02*
X7639824Y-18536722D01*
X7639824Y-18536722D02*
X7763634Y-18536722D01*
X7992205Y-18603389D02*
X7992205Y-18403389D01*
X8077920Y-18603389D02*
X8077920Y-18498627D01*
X8077920Y-18498627D02*
X8068396Y-18479579D01*
X8068396Y-18479579D02*
X8049348Y-18470055D01*
X8049348Y-18470055D02*
X8020777Y-18470055D01*
X8020777Y-18470055D02*
X8001729Y-18479579D01*
X8001729Y-18479579D02*
X7992205Y-18489103D01*
X8201729Y-18603389D02*
X8182682Y-18593865D01*
X8182682Y-18593865D02*
X8173158Y-18584341D01*
X8173158Y-18584341D02*
X8163634Y-18565294D01*
X8163634Y-18565294D02*
X8163634Y-18508151D01*
X8163634Y-18508151D02*
X8173158Y-18489103D01*
X8173158Y-18489103D02*
X8182682Y-18479579D01*
X8182682Y-18479579D02*
X8201729Y-18470055D01*
X8201729Y-18470055D02*
X8230301Y-18470055D01*
X8230301Y-18470055D02*
X8249348Y-18479579D01*
X8249348Y-18479579D02*
X8258872Y-18489103D01*
X8258872Y-18489103D02*
X8268396Y-18508151D01*
X8268396Y-18508151D02*
X8268396Y-18565294D01*
X8268396Y-18565294D02*
X8258872Y-18584341D01*
X8258872Y-18584341D02*
X8249348Y-18593865D01*
X8249348Y-18593865D02*
X8230301Y-18603389D01*
X8230301Y-18603389D02*
X8201729Y-18603389D01*
X8382682Y-18603389D02*
X8363634Y-18593865D01*
X8363634Y-18593865D02*
X8354110Y-18574817D01*
X8354110Y-18574817D02*
X8354110Y-18403389D01*
X8535063Y-18593865D02*
X8516015Y-18603389D01*
X8516015Y-18603389D02*
X8477920Y-18603389D01*
X8477920Y-18603389D02*
X8458872Y-18593865D01*
X8458872Y-18593865D02*
X8449348Y-18574817D01*
X8449348Y-18574817D02*
X8449348Y-18498627D01*
X8449348Y-18498627D02*
X8458872Y-18479579D01*
X8458872Y-18479579D02*
X8477920Y-18470055D01*
X8477920Y-18470055D02*
X8516015Y-18470055D01*
X8516015Y-18470055D02*
X8535063Y-18479579D01*
X8535063Y-18479579D02*
X8544587Y-18498627D01*
X8544587Y-18498627D02*
X8544587Y-18517675D01*
X8544587Y-18517675D02*
X8449348Y-18536722D01*
X8620777Y-18593865D02*
X8639825Y-18603389D01*
X8639825Y-18603389D02*
X8677920Y-18603389D01*
X8677920Y-18603389D02*
X8696968Y-18593865D01*
X8696968Y-18593865D02*
X8706491Y-18574817D01*
X8706491Y-18574817D02*
X8706491Y-18565294D01*
X8706491Y-18565294D02*
X8696968Y-18546246D01*
X8696968Y-18546246D02*
X8677920Y-18536722D01*
X8677920Y-18536722D02*
X8649348Y-18536722D01*
X8649348Y-18536722D02*
X8630301Y-18527198D01*
X8630301Y-18527198D02*
X8620777Y-18508151D01*
X8620777Y-18508151D02*
X8620777Y-18498627D01*
X8620777Y-18498627D02*
X8630301Y-18479579D01*
X8630301Y-18479579D02*
X8649348Y-18470055D01*
X8649348Y-18470055D02*
X8677920Y-18470055D01*
X8677920Y-18470055D02*
X8696968Y-18479579D01*
X8773158Y-18679579D02*
X8782682Y-18670055D01*
X8782682Y-18670055D02*
X8801729Y-18641484D01*
X8801729Y-18641484D02*
X8811253Y-18622436D01*
X8811253Y-18622436D02*
X8820777Y-18593865D01*
X8820777Y-18593865D02*
X8830301Y-18546246D01*
X8830301Y-18546246D02*
X8830301Y-18508151D01*
X8830301Y-18508151D02*
X8820777Y-18460532D01*
X8820777Y-18460532D02*
X8811253Y-18431960D01*
X8811253Y-18431960D02*
X8801729Y-18412913D01*
X8801729Y-18412913D02*
X8782682Y-18384341D01*
X8782682Y-18384341D02*
X8773158Y-18374817D01*
M02*
